<svg xmlns="http://www.w3.org/2000/svg" viewBox="0 0 588.6 462.37"><g id="Camada_2" data-name="Camada 2"><g id="Camada_1-2" data-name="Camada 1"><path d="M529.47,7.32c-50-20.67-103.64,5.77-138.63,37.94-4.58,4.2-8.92,8.56-13.08,13.06Q376,53.7,374,49.19C365.92,31,352.47,12.38,329.55,8.64a1.6,1.6,0,0,0-1.65.75c-15.6,20.06-25.59,42.4-31.8,65.76A217.87,217.87,0,0,0,273.18,62c-38.62-19.13-83-28.46-127-28.34a309.45,309.45,0,0,0-65.86,7.28C60.15,45.51,40.12,52.58,24,64.59,8.5,76.2-1.63,92.63.22,111.07c2.15,21,17.91,38.84,33,54a358.19,358.19,0,0,0,62,49.23,117.49,117.49,0,0,0,9.14,19.89c-1.3,15.13,6.54,29.86,19.22,41.13a103.66,103.66,0,0,0,14,10.4c17.81,23.87,38.64,45.85,64.16,63.25a208.41,208.41,0,0,0,39.12,20.92c-4.8,9.23-7.08,19.21-4.22,29.17,5.59,19.45,27.47,32.12,45.84,41.18a216.62,216.62,0,0,0,67.84,20.38,221.81,221.81,0,0,0,71-2.38,1.71,1.71,0,1,0-.77-3.31c-46.23,9.29-96,2.84-137.23-18.1-18.35-9.28-42-22.93-43.9-43.76-.7-7.48,1.29-14.87,4.85-21.85A184.57,184.57,0,0,0,308,383.61c3.31,7.15,8,14,14.43,19a26.23,26.23,0,0,0,17.48,5.66c.95,2,1.95,4,3.05,5.94,5.95,10.6,16.54,22.6,31.31,19.71a1.86,1.86,0,0,0,1.58-1.52c4.72-21.47,9.28-43.42,12.89-65.55,8.88-3.35,17.63-7,26.3-10.65s21.09-7.11,24.13-16.33c2.68-8.16-3.92-15.88-10.49-20.77-7.95-5.86-18-8.82-27.7-11.12-1.77-.41-3.55-.77-5.34-1.12q.59-9.94.7-19.88,8.49-3.18,16.87-6.68a371.15,371.15,0,0,0,93.07-49.51c21.43-15.75,42.26-33.72,57.15-54.81a110.89,110.89,0,0,0,13.38-24.71,113.12,113.12,0,0,0,11.71-44.12C590.4,68,570.89,24.58,529.47,7.32Zm-220,41.23A160.21,160.21,0,0,1,319.8,28.24q2.56-4.38,5.51-8.73c.92-1.45,2-2.79,3-4.23,1.2-1.66,1.72-3.14,4.08-3,6,.42,12.54,4.66,17,8a57.85,57.85,0,0,1,13.15,14.45C368.12,43,372,52,375.23,61.11a264,264,0,0,0-17.39,21.71q-10.32,3.51-20.52,7.2l-4.74,1.75q-5.67,1.29-11.28,2.78a212.4,212.4,0,0,0-21.58-17A191.16,191.16,0,0,1,309.47,48.55Zm68.58,21c.65,2.06,1.28,4.11,1.9,6.17q-7.79,2.37-15.51,4.92c3.87-5.21,7.95-10.31,12.25-15.25C377.15,66.74,377.6,68.13,378.05,69.52ZM575.2,146.91c-16,34.87-48.3,63.92-81.44,86.08q-13,8.69-26.7,16.62a14.22,14.22,0,0,0,2.38-5.61c1.55-8.78-6.18-17.22-11.26-24.07-15.52-20.87-35.24-38.86-57.68-53.58-1.13-13.15-2.82-26.27-5.1-39.28-2.35-13.28-5-26.8-8.51-40.14,3.82-.21,7.64-.35,11.48-.41,29.88-.43,59.54,4.85,86.52,16.57,1.34,1.29,2.54-1.88.38-2.9-31.33-13.56-65.27-18-99.15-16.13C385.57,82,385,80,384.4,78c24-7.19,48.6-12.9,73.82-14.75,32.43-2.43,67.82,2.17,94.38,20.36,12.35,8.43,21.78,20,24.81,33.89C579.52,127.33,578.29,137.35,575.2,146.91ZM385.67,364.31c-2.05.76-4.1,1.53-6.17,2.26q-3.92,1.38-7.87,2.67a457.57,457.57,0,0,0,18.48-59.94l1.84.28c-1.05,17.5-3.09,34.87-5.79,51.81C386,362.36,385.83,363.34,385.67,364.31Zm-7.46-24.06c-3.18,10.2-6.75,20.32-10.68,30.29a227.48,227.48,0,0,1-35.31,8.17q-3-8-5.74-16-7.8-22.57-14-45.61a159.05,159.05,0,0,1,68.22-9q3.09.28,6.15.7Q383.11,324.67,378.21,340.25Zm-35.6,64.13c-3.27-7.37-6.3-14.85-9.16-22.39,2.57-.36,5.15-.77,7.72-1.26a236.53,236.53,0,0,0,24.72-6.09q-1.8,4.44-3.69,8.84C358.6,391.66,352.24,402.18,342.61,404.38ZM308.7,373a288.85,288.85,0,0,1-8.59-41.33q-.62-4.44-1.11-8.9,4.68-2.22,9.55-4.15,6.6,24.53,15.17,48.59,2.14,6.06,4.41,12.07a159.77,159.77,0,0,1-16.82,1.14A66.82,66.82,0,0,1,308.7,373ZM139.77,282.12q-2-2.72-4-5.45c-9.61-13.52-19.25-27.66-27.15-42.31a36.74,36.74,0,0,1,2.49-10.21l.12-.26a416.11,416.11,0,0,0,54.57,25.83,95.93,95.93,0,0,0,29.89,30.42c28.18,17.89,62.58,23.81,97.1,23.29.09,1.73.2,3.47.32,5.2a313.74,313.74,0,0,1-61.51.74c-29.22-2.65-60.07-9.43-85.41-23.42C144.07,284.76,141.9,283.48,139.77,282.12ZM97.49,186.68c2.66-9.35,8.64-17.5,16.09-24.25,14.75-13.29,34.09-21.61,53.61-27.53a253.68,253.68,0,0,1,56-10.46q9.24-.69,18.51-.75c-1.87.87-3.74,1.74-5.59,2.62-13.22,6.24-26.2,12.83-38.7,20-11.67,6.67-23,14.35-31.18,24.62l-.46.6c-21.18,12.38-45.07,25.92-56.43,46.54l-.26.51c-3.5-2-7-4.13-10.38-6.28C96,204,95.05,195.25,97.49,186.68ZM298.85,81.11A208,208,0,0,1,317.5,95.56c-7.67,2.09-15.27,4.42-22.78,6.93q.86-5.74,2-11.47Q297.66,86.06,298.85,81.11ZM352.16,91c-3.5,5.2-6.85,10.5-10.08,15.85-1.08,1.82-2.15,3.66-3.2,5.49q-6.45-7.35-13.62-14.12,5.33-2,10.69-4Q344,92.4,352.16,91Zm94.51,167.4a299.4,299.4,0,0,1-29.6,7.93q-9.72,2.19-19.56,3.87a456.94,456.94,0,0,0,4.64-59.08q.23-20.24-1.31-40.52a235.81,235.81,0,0,1,29.71,23.61,215.12,215.12,0,0,1,18.27,19.36c5.87,7,13,15,16.21,23.33C469.47,248.23,456.73,255.05,446.67,258.37ZM392,283.8a378.3,378.3,0,0,1-39,9.53,358.07,358.07,0,0,1-45.1,5.78q-2.36-10-4.38-20a430.2,430.2,0,0,0,84.72-3.94c1.42-.21,2.84-.42,4.27-.65.05,1.82.09,3.64.11,5.46C392.47,281.25,392.26,282.53,392,283.8Zm-33.26,11.92q-17.06,4.81-34.48,8.21-7.25,1.41-14.56,2.54c-.3-1.24-.59-2.49-.89-3.73A378.5,378.5,0,0,0,358.77,295.72ZM179.14,167.91q40.55-23.74,83.74-43.6c8.36.56,16.71,1.47,25,2.75a479.67,479.67,0,0,0-.49,52.08,629,629,0,0,0,6.82,71.39q-1.26,12.18-1.65,24.42a441.89,441.89,0,0,1-122.74-27.4c-9.33-15.36-13.77-33.33-10.6-50.66a53,53,0,0,1,11-23.77C173.2,171.37,176.18,169.64,179.14,167.91ZM297.29,268.78c.4,2.2.82,4.39,1.25,6.59l-1.51-.1C297.1,273.11,297.18,270.94,297.29,268.78Zm4.91,3.39q-2-10.4-3.62-20.85c.2-2,.41-3.94.65-5.9A346.7,346.7,0,0,1,330.63,137a286.32,286.32,0,0,1,29.79,11.24C382,185.92,391,228.23,392.48,271a427.47,427.47,0,0,1-89.59,4.62C302.67,274.48,302.42,273.33,302.2,272.17ZM292,127.75a289.54,289.54,0,0,1,34.57,8.06,353.57,353.57,0,0,0-17.64,44.49,349.26,349.26,0,0,0-12.73,54.44q-3.65-28-4.68-56.29A487.34,487.34,0,0,1,292,127.75Zm40,6.39q3.79-7.77,8-15.38a209,209,0,0,1,17.62,24.82Q345.13,138.27,332,134.14ZM328,132.88a297.72,297.72,0,0,0-35.75-8.35q.52-6.87,1.35-13.71,14-5.86,28.25-11.33c4.31,4,8.47,8.16,12.4,12.54q1.49,1.65,2.92,3.32Q332.32,124,328,132.88Zm-39.9-9q-9.51-1.49-19.11-2.34,10-4.55,20.19-8.86Q288.54,118.25,288.09,123.87ZM258.16,274.46q17,2.63,34.29,3.94-.22,10.61.22,21.23a242.38,242.38,0,0,1-31.77-1.79c-29.66-3.67-60-14.32-79.75-35.39a89.93,89.93,0,0,1-8.15-10A446.79,446.79,0,0,0,258.16,274.46Zm38.78,4.26,2.29.15q2.06,10.26,4.46,20.47-3.26.15-6.51.22Q296.75,289.15,296.94,278.72Zm99.73-28.56q-.48,4.84-1.07,9.67c-2.4-37.52-11.14-74.36-30-109.19a265.22,265.22,0,0,1,31.89,17.69A449.18,449.18,0,0,1,396.67,250.16Zm-33.75-104.3a208.71,208.71,0,0,0-21.17-30.2q7.39-13.09,16-25.61,12.67-2,25.52-2.88a445.4,445.4,0,0,1,13.88,77A268.74,268.74,0,0,0,362.92,145.86Zm-60.59-42.44c-2.74,1.12-5.49,2.23-8.23,3.37,0-.22.07-.44.1-.66Q298.25,104.74,302.33,103.42Zm-12.67,5.24q-14.15,6-28,12.31c-1.6-.1-3.2-.17-4.8-.24,10.79-4.7,21.78-9.09,32.95-13.06Zm-34.35,15.25L252,125.45q-37.17,17.53-72.47,38c10.92-9.58,24.71-17,38.11-24C228.18,134,239,128.72,250,123.74,251.8,123.78,253.55,123.84,255.31,123.91Zm-116.38,69.2C146,188,153.44,183.22,161,178.63c-11.81,20.75-9.18,45.31,2.09,66.29a409.3,409.3,0,0,1-50.36-24.21C118.3,209.57,128.45,200.66,138.93,193.11ZM297.37,303.33q3.6-.12,7.2-.32c.33,1.36.66,2.72,1,4.08-2.63.37-5.26.72-7.9,1C297.56,306.52,297.46,304.93,297.37,303.33Zm9.1,7.32c.38,1.52.78,3.05,1.18,4.57q-4.59,1.77-9,3.85c-.25-2.43-.47-4.85-.66-7.28Q302.22,311.27,306.47,310.65Zm63.89-6.48a164.24,164.24,0,0,0-58.74,9.58c-.32-1.25-.65-2.49-1-3.74a408,408,0,0,0,49.18-10.9q15.76-4.55,31.26-10.17-1.57,8.34-3.47,16.64A156.24,156.24,0,0,0,370.36,304.17Zm25.95-21.67c0-1.46,0-2.91,0-4.36q.36-2.16.69-4.32c14.26-2.31,28.82-5.18,42.55-9.4q-14.73,7.33-30,13.67Q402.95,280.41,396.31,282.5ZM382.45,84.29q-11.2.75-22.35,2.35l.82-1.17c6.62-2.22,13.3-4.39,20-6.45C381.46,80.78,382,82.53,382.45,84.29ZM69.31,191.9a304.5,304.5,0,0,1-43.68-40.17C11.55,135.8-.82,115.44,5.6,94.54,11.09,76.82,27.9,64.21,45.5,56.1c18.44-8.71,39-13.25,59.63-16.17,65.72-9.15,136.53,3.47,190.07,38.73A258,258,0,0,0,290.29,104c-14.1,4.87-27.92,10.42-41.47,16.46-38.21-.74-78.29,6-112,22.66-18.07,8.94-36,22-42.3,40.33-3,8.7-2.84,17.3-.79,25.68Q81.11,201,69.31,191.9ZM101.62,220c-.35-.78-.68-1.57-1-2.37,2.28,1.39,4.58,2.75,6.88,4.09a41.28,41.28,0,0,0-2.14,6.22C104,225.33,102.79,222.69,101.62,220Zm7.2,22c.47.79.93,1.58,1.4,2.36,6.1,10.27,12.55,20.47,19.47,30.42C118.88,265.79,110.47,254.55,108.82,242Zm129,122.76c-37.7-16.53-67.52-43.57-91.53-74.07,14.42,7.48,30.49,12.56,46.46,16.35,32.93,7.78,67.05,8.91,100.67,5.27q.36,4.43.83,8.85a138,138,0,0,0-33.71,23.59c-6.52,6.26-13.17,13.78-18,22Q240.17,365.76,237.83,364.75Zm68.25,15.63c-20.76-.38-41.16-5-60.17-12.31,6.4-10.92,16.4-20.73,25.63-28.21a138.5,138.5,0,0,1,23.15-15c.5,4.23,1.07,8.46,1.74,12.67,2.06,12.93,4.35,26.2,8.56,38.63.47,1.39,1,2.79,1.56,4.19Zm26.13,23.15c-9.06-3.36-15.37-11.48-19.46-19.93q8.29-.14,16.63-1.1c1.13,2.95,2.29,5.88,3.48,8.83,1.77,4.46,3.49,9,5.42,13.44A19.66,19.66,0,0,1,332.21,403.53Zm40.35,27.23c-14.42,1.82-23.67-12.73-28.5-23.14a22.75,22.75,0,0,0,6.25-2.63c10.31-6.23,14.4-18.52,18.43-28.43.43-1.06.84-2.12,1.27-3.18,5.05-1.6,10.05-3.33,15-5.15C381.51,389.17,377.15,410,372.56,430.76Zm37.36-116.83c9.78,3.06,21.2,8.39,25.16,17.66,5.4,12.4-12.21,17.48-21.53,21.5-8,3.4-16.07,6.73-24.23,9.85,2.77-17.51,4.91-35.13,6.06-52.73A128.58,128.58,0,0,1,409.92,313.93Zm-19.06-7.88c.55-2.43,1.08-4.88,1.6-7.32q-.13,3.76-.33,7.53Zm194.6-200.71a105.49,105.49,0,0,1-4.22,25.47,50.93,50.93,0,0,0-3.5-21.77c-9.32-23.62-35.83-37.79-61.4-44.43-29.2-7.53-60.36-6-89.76-.53A427.43,427.43,0,0,0,383.4,74.66c-1.27-4.12-2.63-8.21-4.11-12.25a208.06,208.06,0,0,1,44.35-37.66c23.59-14.74,52.18-24.7,81.3-21C558.76,10.63,587.24,60.16,585.46,105.34Z"/></g></g></svg>