<svg xmlns="http://www.w3.org/2000/svg" viewBox="0 0 595.86 492.07"><g id="Camada_2" data-name="Camada 2"><g id="Camada_1-2" data-name="Camada 1"><path d="M551.86,186.79A124.17,124.17,0,0,0,516.09,171a65,65,0,0,0,2.16-10.17c3.46-28-14.1-54.87-52.74-71.31-15.13-6.43-33.56-10.93-53.9-12.26,2.41-8.28.68-16.77-9.1-22.27-6.51-3.64-15.4-4.87-25.17-4.74-2-14-11-26.95-28.86-36.92C331.18,3.7,306.44-2,278.4.63c-32.07,3-62,15.06-85.68,27.56-19.88,10.45-37.26,22.67-50.79,35.73-3.81.54-7.6,1.21-11.36,2.06C105.42,71.66,86.22,83.61,76,96.6a53.13,53.13,0,0,0-7.73,13,143.72,143.72,0,0,0-19,12.67c-15.59,12.44-24.39,25.89-27.34,39.26C.92,181.64-7.2,204.83,7.41,224.07c9,11.81,27.39,22.88,54.21,23,11.47.07,23.11-1.87,34.16-4.6,13.65,2.09,27.71.65,40.92-2.76-3.21,6.84-4.09,13.86-2.07,20.92C123,268.76,114.9,278,112.37,288.19a27.53,27.53,0,0,0-.73,4.59,171.47,171.47,0,0,0-25,23.49c-20.29,15.78-33.52,33.8-38.1,51.56-3.41,13.44-2,26.83,5,39,8.55,14.87,25.2,27.67,45.2,38.23,31.86,16.94,73.7,31.12,121,35.92a339.9,339.9,0,0,0,40.82,8.17c53.7,7.37,112.37.68,163.57-18,53.39-19.38,94.33-48.32,122.11-78.21,24.2-25.71,39.9-54,39-80.86a136.66,136.66,0,0,0,9.4-32.62C599.8,246,589.21,211.35,551.86,186.79ZM454,89.29c39.8,14,59.94,39.54,59.6,66.16a60,60,0,0,1-2,14.36,164.25,164.25,0,0,0-27.14-4.09c-30.12-2-62.21,3.1-92.1,9.58a143.77,143.77,0,0,0-24.26-7.19,173.77,173.77,0,0,0-33.67-3.41,93.85,93.85,0,0,0-22.83-21.27l-.93-.6A416.8,416.8,0,0,0,353,125.74c22-10.56,43.28-23.73,53.54-38.24a38.3,38.3,0,0,0,3.85-6.84A165,165,0,0,1,454,89.29Zm73.12,270.79c-17.18,25-44.46,49.06-80.4,69.1a410.79,410.79,0,0,1-84,34.69c-46.54,7.81-95.27,8.12-137.9,1.26-43.44-7-80.15-21.65-100.75-42.68s-25.09-46.74-15.6-72A101.64,101.64,0,0,1,126,321.35c12.17,10.46,31.06,18.62,52.77,23-36.9,21-38.23,54.24-20.34,75.77,10,12,27.77,22,52.69,25.58,27.27,3.95,59,.26,86.54-7.12,48.39-12.95,84.24-37.71,100.47-63.92,12.7-20.63,13.78-42.44.64-60.82,16-6.61,30.07-14.58,38.79-24.11,12.5-13.71,11.51-27.77,2-39.73a240.82,240.82,0,0,0,32.82-21.58,197.18,197.18,0,0,1,43,11c2.74,1.08,5.38,2.2,7.95,3.37C556.19,276.42,554.35,320.3,527.12,360.08Zm7.55-111.46c28.57,16.09,44.12,38.4,45.63,61.86,0,.13,0,.27,0,.4q-2.72,6.44-6,12.82c-15.61,30.23-40.1,60.8-77.12,87C468,431.5,430.4,448.83,386.72,459.08A428,428,0,0,0,431,440.79c42-20.24,74.6-45.56,95.43-72.56C557.16,328.55,563,283.93,534.67,248.62ZM91.16,317.51q5.46-4.23,11.58-8.23c3.26-2.13,6.66-4.18,10.17-6.16a38.64,38.64,0,0,0,9.83,15.23c-15,17.26-23.25,35.7-24.35,53.56-1.65,26.46,13.16,52.08,44.92,70.23s77.33,28.13,126.25,30.18a460.17,460.17,0,0,0,71.29-2.72,400.85,400.85,0,0,1-54.39,8.92,330.11,330.11,0,0,1-65.21-.41,316.57,316.57,0,0,1-92.72-41.68C93,412.93,63.86,384.56,72.67,350.76,75.62,339.47,82,328.28,91.16,317.51Zm25.93-22.69c0-.51,0-1,0-1.54a252.75,252.75,0,0,1,26.32-17.54,69.15,69.15,0,0,0,7.69,7.33,244.64,244.64,0,0,0-27.75,11q-3.1,1.47-6.09,3C117.17,296.3,117.11,295.56,117.09,294.82Zm28.84-62.19c.27.5.54,1,.82,1.5-.79.3-1.6.58-2.41.86l.09-.15C144.9,234.1,145.41,233.36,145.93,232.63Zm3.37-4.23a72.33,72.33,0,0,1,6.29-6.36q9-3.72,17.66-7.73a49.87,49.87,0,0,0,1.29,6.25,164.6,164.6,0,0,1-21.42,11.06l-1.79.74C150.61,231.05,149.93,229.73,149.3,228.4ZM27.4,161.77c10.39-9.64,23.94-18.54,39.55-26,4.23,13.81,16.21,26.43,34.39,35.72A133.56,133.56,0,0,0,139,183.58a69.44,69.44,0,0,0,3.11,40.95q-15.23,5.91-31.4,11c-4.64,1.45-9.44,2.87-14.36,4.14a81.16,81.16,0,0,1-22.82-7.84c-19.25-9.79-33.36-22.69-41.14-36.69A46.36,46.36,0,0,1,27.4,161.77Zm46-51a197.67,197.67,0,0,1,46.14-18.18,66.81,66.81,0,0,0-7,19.58c-.28,1.65-.48,3.31-.6,5a250.08,250.08,0,0,0-40.64,13.12A36.86,36.86,0,0,1,73.41,110.81Zm72.17-44.25a157.31,157.31,0,0,1,63.34,5.37c11.9,3.57,22.31,8.4,30.43,14.17q-5.57,2.57-10.89,5.27a165.75,165.75,0,0,0-38.4-7.75,211.7,211.7,0,0,0-61.67,3.94A120.78,120.78,0,0,1,145.58,66.56ZM368.05,79.22c-22.2,3.25-43.72,9.46-63.48,16.44A415.73,415.73,0,0,0,262.94,113l-.18-.23a38,38,0,0,0-11.58-22.47c-1.25-1.24-2.61-2.43-4-3.61a402.31,402.31,0,0,1,54.7-19.42c13.08-3.66,26.64-6.73,40.3-9.16,9.44-1.68,20.41-3.79,30.71-4.45C373.58,62,371.84,70.66,368.05,79.22ZM183.21,269.37c1.55.91,3.11,1.81,4.73,2.67-1.86.87-3.71,1.74-5.54,2.63l-2.19.48c.07-.17.15-.34.22-.52A59,59,0,0,1,183.21,269.37ZM189,238.68c10.92-3.44,22.44-6.36,34.2-8.83q-2.49,1.36-4.91,2.77a149,149,0,0,0-19.51,13.48l-2.24.87A68.11,68.11,0,0,1,189,238.68Zm-16.21-29.22c0,.61,0,1.23.09,1.84q-4.59,2.17-9.32,4.28Q167.94,212.43,172.83,209.46Zm5.18-3a237.34,237.34,0,0,1,30.31-14c-6.4,3.84-13,7.55-19.86,11.13q-5.15,2.68-10.45,5.26C178,208.05,178,207.24,178,206.43Zm-60.44-87.57a301.21,301.21,0,0,1,75.23-6C173,127,157.91,142.76,148.55,159.24a59.59,59.59,0,0,1-14-7C121.66,143.14,117.14,131,117.57,118.86Zm81.78-5.69c7.94.52,15.75,1.35,23.35,2.47,8.79,1.3,17.28,3,25.41,5-24.23,13.23-44.49,28.4-58,44.84-13.29,0-25.85-1.5-36.58-4.62C163,144,178.57,127.75,199.35,113.17Zm29.81-17.92c12.34,4.58,22.46,10.74,28.69,18.12.1.67.18,1.34.24,2q-2.91,1.45-5.74,3a289.32,289.32,0,0,0-49-7.89,261.42,261.42,0,0,1,25.8-15.18Zm71.53,48.39q-7.44,2.45-15,4.71c-8.66,2.59-17.53,5.07-26.55,7.31a54.56,54.56,0,0,0,8.64-15.11,28,28,0,0,0,1.41-13.72,172,172,0,0,1,33.56,15.61Zm-64.32,28.52c3.25-3.62,6.31-7.28,9.12-11,1.59-.33,3.19-.68,4.78-1-.86.94-1.74,1.87-2.65,2.8-2.9,2.93-6.06,5.8-9.42,8.63Zm20.29-13.5c5.81-1.4,11.55-2.89,17.16-4.44Q282,152,290.1,149.49A345.12,345.12,0,0,1,256,165.13c-3,1.19-6,2.33-9.09,3.45A112.15,112.15,0,0,0,256.66,158.66Zm-3.8-1.5q-2.62.61-5.28,1.19c5.9-8.18,10.48-16.5,13.08-24.89a56.66,56.66,0,0,0,2-8.78l1.34.42C266.39,135.54,261.54,146.72,252.86,157.16Zm5.36-37.26-.54-.15.54-.29Zm-.23,3.36a62.16,62.16,0,0,1-6.51,20.91,108.2,108.2,0,0,1-9.6,15.39,303.32,303.32,0,0,1-37.21,5.33c-2.88.23-5.75.38-8.59.47,13.59-15.92,33.61-30.59,57.36-43.37C255,122.4,256.49,122.83,258,123.26ZM188.06,168l-1,1.24a79.49,79.49,0,0,0-8.58,14.09c-4.44.24-8.88.33-13.32.23A159,159,0,0,1,145,181.78c.33-1.32.69-2.64,1.09-4A86.3,86.3,0,0,1,152,163.61,136.83,136.83,0,0,0,188.06,168Zm.28,7.65q2.58-3.92,5.66-7.76a285.55,285.55,0,0,0,45.77-5.51c-3.1,4-6.5,8-10.13,11.87a231.58,231.58,0,0,1-45.49,8.7A73.34,73.34,0,0,1,188.34,175.62Zm38.13,1.94q-3.9,4.06-8.11,8.05c-5.85,2-11.58,4.13-17.15,6.4a233.7,233.7,0,0,0-23,10.76A55.92,55.92,0,0,1,183,185.36,239.63,239.63,0,0,0,226.47,177.56Zm-22.12,20.72a231.92,231.92,0,0,1-25.27,19.41,46.33,46.33,0,0,1-.87-5.71C187.3,207.62,196,203.05,204.35,198.28Zm15.92-9.71,1.48-1c11.31-3.81,23-7.13,34.53-9.92,23.7-5.7,49.63-10.33,74.34-10.39a68.15,68.15,0,0,1,10,20.35c-14.67,3.84-29.17,7.94-43.31,12.31-23.55,7.22-46.3,15.65-66.25,25.74-4.24.83-8.43,1.69-12.54,2.59-10.41,2.28-20.93,5-31.1,8.23a52.78,52.78,0,0,1-7.63-15.8C195.63,210.88,208.63,199.69,220.27,188.57Zm208.55,56.22a70.63,70.63,0,0,1-5.57,10.8A335.06,335.06,0,0,1,348.3,281q-7.43-2.58-15.48-4.68c36.27-5.65,70.81-18.44,90-36.32A58.43,58.43,0,0,1,428.82,244.79ZM259.6,337.56a39.91,39.91,0,0,1,7.75,3.39c-22.79,4-46.92,5.55-68.75,3.33-3.38-.34-6.69-.79-9.95-1.3a103.1,103.1,0,0,1,38.5-9.09A222.07,222.07,0,0,0,259.6,337.56Zm9.84.27c4.66.05,9.36,0,14.06-.16l-2.28.52c-2.7.6-5.44,1.17-8.19,1.71A33.13,33.13,0,0,0,269.44,337.83Zm-8-3.12a89.3,89.3,0,0,0-18.49-3.32,122.53,122.53,0,0,0-13.42-.32c-16.69-3.32-31-8.92-40.39-16.83A34,34,0,0,1,178.64,300q1.83.88,3.69,1.74c18.55,8.59,45,20.18,74.47,13.86,20.49-4.45,35.15-15,46.38-25.56,1.62-.14,3.23-.28,4.84-.45a372.43,372.43,0,0,0,38-5.81c5.1,1.8,10,3.76,14.55,5.9A107.86,107.86,0,0,1,377,299c-22.44,14.46-50,26.81-79.35,35.06A305.31,305.31,0,0,1,261.41,334.71Zm-83.17-54.16.63-.34c2.17-1.15,4.38-2.26,6.61-3.36,2.87-.6,5.77-1.17,8.68-1.7a155.84,155.84,0,0,0,26.49,9.59c22.84,6.05,49.6,7.64,76.78,5.75-3.48,3-7.17,5.95-11.13,8.76-9.2,6.52-21.23,12.84-36.1,14.89-16,2.19-30.23-1.65-42-5.7a228.29,228.29,0,0,1-30.9-13.17A32.15,32.15,0,0,1,178.24,280.55Zm53.8-10c21.71,7.14,48.25,10.37,77.25,8.44q-4.28,4.63-9.16,9.11c-20.56,1.58-41,1.26-59.72-1.8a159.12,159.12,0,0,1-40.82-12.08c10.6-1.73,21.44-3,32.39-3.67Zm82.28,8.06c3.41-.3,6.83-.66,10.24-1.09,6,1.43,11.81,3,17.35,4.85q-4.7.93-9.48,1.74c-8.81,1.48-17.77,2.67-26.74,3.51C308.82,284.52,311.68,281.47,314.32,278.6Zm3.77-2.53-1.62.15.36-.41Zm-6.69.58c-26.41,2-50.93-.49-71.49-6.51A329.34,329.34,0,0,1,312.82,275C312.36,275.57,311.88,276.11,311.4,276.65Zm-43-9.3a348.37,348.37,0,0,0-35.65.48,127.74,127.74,0,0,1-13.09-5.4c36.52-13.28,78.24-22.69,118.84-29.27a112.38,112.38,0,0,1-11.6,23.11,172.58,172.58,0,0,1-11.8,16.13A319.74,319.74,0,0,0,268.35,267.35Zm-42.54,1c-10.2.85-20.36,2.14-30.37,3.85,6.48-2.89,13.21-5.64,20.13-8.25Q220.46,266.29,225.81,268.32Zm126.4,14.12a344.41,344.41,0,0,0,68.39-22.87c-9.11,12.94-23,25.62-40.05,37.07A133.2,133.2,0,0,0,352.21,282.44ZM327.26,275c-2.67-.63-5.39-1.23-8.14-1.79,11.32-13.26,19.68-27,24.49-40.85l6.44-1c13.95-2.1,28-3.74,42-4.8,10.52,2.89,19.93,6.67,27.72,11.5C400.89,256.76,364.75,269.88,327.26,275Zm17.36-45.71a82.47,82.47,0,0,0,2.41-9.65,243.64,243.64,0,0,1,36.18,4.77C370.32,225.61,357.4,227.29,344.62,229.27Zm-5.14.82c-10.56,1.71-21,3.62-31.23,5.66-31.85,6.33-63.64,14.36-92.35,24.82a93.19,93.19,0,0,1-13.17-8.38q-1.41-1.08-2.73-2.19c.73-.64,1.48-1.27,2.24-1.9,28.9-11.1,60.19-20.28,92.2-28a405.29,405.29,0,0,1,47.71-.73A84.64,84.64,0,0,1,339.48,230.09ZM210.74,241.65a201,201,0,0,1,23.46-14c13.88-2.56,27.94-4.51,41.66-5.95C253.46,227.57,231.55,234.15,210.74,241.65Zm99.78-25.33q5.52-1.26,11.05-2.45c7.12-1.54,14.37-3.08,21.7-4.54-.1,2.36-.32,4.72-.65,7.1C332.15,215.93,321.39,215.92,310.52,216.32Zm16.92-6.61q-16.85,3.51-33.58,7.53c-17.31,1.27-34.67,3.48-51.38,6.37,17.41-8.23,36.93-15.39,56.86-21.53,13.72-4.2,27.79-8.15,42-11.88a65.33,65.33,0,0,1,2,16.29C338,207.54,332.68,208.62,327.44,209.71ZM197.16,252.54a95.78,95.78,0,0,0,14.72,9.52q-10.4,3.92-20.16,8.26c-2.31-1.25-4.53-2.53-6.66-3.86A80.64,80.64,0,0,1,197.16,252.54ZM181.4,264.11c-1-.7-2.06-1.41-3.05-2.13s-2.23-1.66-3.31-2.5q8.28-3.78,16.92-7.3A91.37,91.37,0,0,0,181.4,264.11ZM172,284a32.89,32.89,0,0,0-.67,7.92q-3.19-1.85-6.18-3.81Q168.48,286,172,284Zm-10.1,1.9c-1-.73-2-1.46-3-2.2,4.35-1.35,8.79-2.6,13.29-3.76C168.66,281.88,165.21,283.86,161.88,285.91Zm10,10.65c1.29,6.52,4.86,12.77,11.13,18.44,8.48,7.7,20.77,13.22,35.25,16.91a108.79,108.79,0,0,0-35,10.11c-16.57-3.19-31.16-8.56-42.41-15.36A71.2,71.2,0,0,1,129,317.84a165.68,165.68,0,0,1,32.4-27.33C164.72,292.61,168.21,294.63,171.85,296.56Zm12.06,48.77c27.3,4.69,57.51,3.23,86.64-2.16a12.91,12.91,0,0,1,4.86,7.79c.26,1.69,5.52,1,5.26-.65a14,14,0,0,0-4.75-8.18c7.52-1.52,14.94-3.3,22.21-5.28l2.75-.22a360.82,360.82,0,0,0,72-13.61c7.21-2.21,14.38-4.64,21.27-7.31,8.47,12,11,25.56,7.43,39.5-6.26,24.66-30.41,50-68.51,67.63-44.42,20.43-113.07,31-151.89,10.21-32.72-17.7-38.79-52-12.18-77.16A70.54,70.54,0,0,1,183.91,345.33ZM372.8,319.91a341.71,341.71,0,0,1-60.44,12.71,315.92,315.92,0,0,0,30.52-11.5,272.47,272.47,0,0,0,37.24-19.8,69.69,69.69,0,0,1,12.13,11.83C385.94,315.62,379.38,317.87,372.8,319.91ZM387,301.47c-1.05-.86-2.15-1.7-3.27-2.54,19.51-13,34.94-27.69,44.11-42.83,2.58-1.27,5.11-2.57,7.6-3.88,7.22,10.17,8.49,22.07.13,33.37-7.67,10.23-22.12,18.77-38.8,25.72A67.63,67.63,0,0,0,387,301.47Zm43.08-49.33q1.08-2,2-4.07c.62.68,1.21,1.37,1.78,2.07C432.66,250.82,431.39,251.48,430.12,252.14Zm3.69-8.15a55.61,55.61,0,0,0,2.47-8.53,42.32,42.32,0,0,0,.8-10.05,309.34,309.34,0,0,1,31.16,2.46A232.16,232.16,0,0,1,437.82,248,52.31,52.31,0,0,0,433.81,244Zm-3.59-3q-2.3-1.78-4.84-3.47c1.31-1.36,2.55-2.75,3.69-4.17,1.38-1.78-3.32-2.5-4.77-.27-.66.83-1.37,1.64-2.1,2.45A110.06,110.06,0,0,0,401,226c10.65-.6,21.2-.85,31.55-.66A45.11,45.11,0,0,1,430.22,241ZM393,223.56c-1-.27-2-.54-3-.78a243.83,243.83,0,0,0-42.41-6.08,74,74,0,0,0,.76-8.36c23.13-4.45,46.94-7.87,70-7.46,1.58,0,3.15.08,4.71.15a41.12,41.12,0,0,1,9.28,21.18C419.4,222,406.23,222.54,393,223.56Zm-44.65-18A67.32,67.32,0,0,0,346.2,189c12.87-3.32,25.86-6.48,38.82-9.48l5.41-1.22a100.77,100.77,0,0,1,18.53,10,71.22,71.22,0,0,1,11.51,9.85C396.67,197.53,372.11,201,348.32,205.54Zm-2.84-19.15a69.08,69.08,0,0,0-9.17-19c4,.1,8,.33,11.86.72a149,149,0,0,1,38.16,8.54C372.67,179.66,359,182.91,345.48,186.39Zm-68.52-16a437.71,437.71,0,0,0-46.59,11.32c4-2.87,7.9-5.82,11.54-8.84,3.94-1.32,7.81-2.69,11.58-4.11a339.71,339.71,0,0,0,50.05-23.55l2.36-.78a94.93,94.93,0,0,1,22.79,20.27A306.88,306.88,0,0,0,277,170.41Zm83.41-77.76c-11.9,17-30.62,33.28-53.88,47.52A182.39,182.39,0,0,0,268.27,123a29.9,29.9,0,0,0-3.21-6.93c8.65-4.23,17.7-8.22,27-11.94,22.52-9,47.86-17.23,74.25-21.29A81.78,81.78,0,0,1,360.37,92.65ZM371.3,82.07c3.93-.52,7.89-.95,11.86-1.26a190.09,190.09,0,0,1,22.7-.4c-.33.84-.68,1.67-1.08,2.47-6.9,14-27,27.43-47.23,37.78a376.51,376.51,0,0,1-44.31,18.7c22.79-14.44,41-30.78,52.46-47.69A83.58,83.58,0,0,0,371.3,82.07ZM252.57,99.27a35,35,0,0,1,3.35,6.56,81.62,81.62,0,0,0-22.59-12.69q4.62-2.3,9.41-4.48A47.2,47.2,0,0,1,252.57,99.27ZM142.26,88c25.69-3.81,51.56-2.37,73.19,3,3,.76,6,1.6,8.79,2.52A269.08,269.08,0,0,0,196.78,110q-9.71-.54-19.68-.49a297.6,297.6,0,0,0-59.33,6.35l.15-1.31A65.12,65.12,0,0,1,126.33,91Q134.18,89.21,142.26,88ZM75.33,132a227.58,227.58,0,0,1,36.54-11.84c-.09,11.1,3.9,22,14.24,30.87,5.42,4.58,12.53,8.31,20.88,11.08l-.62,1.16a87.52,87.52,0,0,0-6.71,17.64,124.57,124.57,0,0,1-36-12.27c-17-9.23-28.19-21.69-31.68-35.2C73.12,132.93,74.21,132.45,75.33,132Zm69,52.43A167.78,167.78,0,0,0,163.79,186c4.54.1,9.1,0,13.64-.24a56.58,56.58,0,0,0-4.62,20.1A133.19,133.19,0,0,0,152,220.57c-1.69.7-3.39,1.4-5.09,2.08A68.17,68.17,0,0,1,144.36,184.41Zm25,42.41c2.07-1.12,4.08-2.26,6.07-3.43A54.6,54.6,0,0,0,183,238c-7.63,2.53-15,5.31-21.95,8.33a80.93,80.93,0,0,1-8.47-11.71A151.75,151.75,0,0,0,169.34,226.82Zm15.3,13.29a72.84,72.84,0,0,0,7.88,8.47q-10.36,4.15-20.26,8.65a98.14,98.14,0,0,1-9.24-8.76C169.83,245.42,177.07,242.63,184.64,240.11Zm-21,14.86c1.5,1.38,3.08,2.74,4.71,4.07q-9.5,4.45-18.47,9.25-2.15,1.14-4.25,2.31a36.24,36.24,0,0,1-5.21-9.73q2.29-1.58,4.77-3.09A154.42,154.42,0,0,1,159,250.36C160.43,251.92,162,253.46,163.62,255Zm-6.39,13.16q6.81-3.53,13.93-6.86c2.58,2,5.33,3.9,8.22,5.75a57.13,57.13,0,0,0-5.07,9.48q-9.28,2.22-18.21,5a67.48,67.48,0,0,1-8.39-8.21Q152.38,270.65,157.23,268.13ZM153.9,285.3q2,1.53,4.18,3c-2.94,1.9-5.81,3.85-8.56,5.86A164.28,164.28,0,0,0,126,314.73a34.37,34.37,0,0,1-8.08-14.33A236.85,236.85,0,0,1,153.9,285.3Zm339.21-56.08q-8.5-2.07-17.41-3.48,5.39-4.44,10.17-9c2.11,1,4.18,2.08,6.18,3.17a137.91,137.91,0,0,1,24.27,16.46A196.55,196.55,0,0,0,493.11,229.22Zm-21.45-4.1a299.55,299.55,0,0,0-34.82-2.82,44.64,44.64,0,0,0-8.37-21,157.48,157.48,0,0,1,54.23,13.87Q477.55,220.26,471.66,225.12Zm-45.55-26.81C419.24,190,409.25,182.7,396.32,177c26.32-5.63,54.14-10,80.93-9.08a160.6,160.6,0,0,1,33.57,4.58c-4.17,13.58-12.91,27.16-25.39,40A162.94,162.94,0,0,0,426.11,198.31ZM386.78,53.89c18.73,2.32,22.45,13.28,20.14,23.1-2.95-.12-5.93-.18-8.94-.16a213.15,213.15,0,0,0-25,1.72,54,54,0,0,0,4.74-25.09A67.08,67.08,0,0,1,386.78,53.89Zm-196.87-20c22.29-12.54,50.5-24.84,81.45-29.3,29.7-4.31,56.56,1.1,74.51,11.59C362,25.58,370.26,37.53,372.42,50.4c-14.79.81-31,4.22-43.68,6.87A422.92,422.92,0,0,0,248.62,82c-1.62.69-3.24,1.39-4.84,2.1C232.52,76,217,69.6,198.92,65.84a171.83,171.83,0,0,0-49.69-2.78A214.35,214.35,0,0,1,189.91,33.92ZM83.49,94.81c11-12.14,30.4-22.84,54.68-27.13a117.13,117.13,0,0,0-16.63,21.4A215.3,215.3,0,0,0,75.8,105.6,55.65,55.65,0,0,1,83.49,94.81Zm-17,20.07a37.78,37.78,0,0,0-.41,17.7,179.52,179.52,0,0,0-28.85,16.36q-4,2.85-7.71,5.85C35,140.71,47.21,126.94,66.51,114.88ZM28,236c-15.78-8.81-23-21.7-22.58-34.66.33-11,5.95-22.29,15.46-32.9-1.1,15.07,5.1,29.8,17.3,42.63a107.55,107.55,0,0,0,23.39,18.43,94.82,94.82,0,0,0,28.06,11.86,121.87,121.87,0,0,1-26.89,3.17C48.69,244.38,36.8,240.89,28,236Zm84.08,5a82.05,82.05,0,0,1-9.14-.38c1.74-.48,3.46-1,5.15-1.5,12-3.59,23.74-7.74,35.07-12.12.25.58.5,1.16.77,1.74a53.53,53.53,0,0,0-5.8,8.23A100.3,100.3,0,0,1,112.08,241Zm30.47-2.91q2.77-.85,5.48-1.81a85.16,85.16,0,0,0,8.89,11.87,158.56,158.56,0,0,0-17.46,9.33C138.17,251.31,139,244.83,142.55,238.07Zm-6.67,26.11c.1.24.2.49.31.73a40.88,40.88,0,0,0,5,8.18,269.38,269.38,0,0,0-23.39,15.07C119.9,279.82,126.34,271.6,135.88,264.18Zm-24.16,33.37c.08.74.19,1.48.33,2.21q-4.38,2.39-8.5,4.9Q107.45,301.06,111.72,297.55Zm15.49,156.79c-41.4-17-73.62-40.53-75-70.82-.77-17.31,7.59-35.44,23.38-52a70.19,70.19,0,0,0-9.06,23.36c-6,34.64,25.92,63.64,63.49,87.2a323.29,323.29,0,0,0,70.59,33.24A344.41,344.41,0,0,1,127.21,454.34Zm401.31-48.91c-29.94,27.47-72.2,53.66-125,69.64-51.3,15.57-107.3,18.06-156.42,8.94-2.72-.51-5.4-1.06-8.07-1.62,5.54.24,11.14.36,16.8.33,36.9-.18,74-6.45,108.25-16.42A381.28,381.28,0,0,0,420,452.6c52.79-17.49,92-44.92,119.4-73.48,17.08-17.8,30.83-36.59,40.48-55.5C576.31,351.43,556.39,379.79,528.52,405.43Zm55.45-104a61.11,61.11,0,0,0-2.24-8.11c-7.13-20.23-25.49-38.85-53.53-52a131.28,131.28,0,0,0-30.48-22.7c-2.89-1.61-5.93-3.17-9.07-4.67,12.82-12.91,22-26.59,26.6-40.31,36.3,10.39,57.7,32.91,67.68,54C594,250.89,592.73,276.26,584,301.41Z"/></g></g></svg>