<svg xmlns="http://www.w3.org/2000/svg" viewBox="0 0 610.32 581.45"><g id="Camada_2" data-name="Camada 2"><g id="Camada_1-2" data-name="Camada 1"><path d="M602.5,343.77c0-.47,0-.93,0-1.4-1.8-31.38-20.36-64-40.93-93.29a456.43,456.43,0,0,0-37.08-45.65,155.89,155.89,0,0,0,7.36-17.77,118.62,118.62,0,0,0,6.64-42.93,27.47,27.47,0,0,0,.23-22.8,32,32,0,0,0-6.37-9.37A114.88,114.88,0,0,0,524.37,93,124.55,124.55,0,0,0,488.52,53.1c-14-10.31-32.37-18.83-51.17-14.7-14.8,3.16-24.46,12.6-30.14,22.27-6.26,10.75-7.34,22.43-5,34.56q-8.76-6.76-17.58-13.44c-17.13-13.08-34.39-26.2-52-38.77S296.16,18.36,274.65,9.86C254.79,2,232.66-2.31,212,1.29,196.47,4,184,11,175.29,19.86c-11,.91-20.06,5.4-24.57,12.75-6.19,9.78-4.09,21.56,2.54,32.26A94.59,94.59,0,0,0,163.18,78c3.68,13,10.28,26,17.93,38.36q7.44,12,15.67,23.89c-21.57,1.94-41.32,8-56.38,18.57-3.33-.58-6.67-1.15-10-1.68-30.25-4.78-66.61-9.6-92.09,2-10.4,4.7-16.52,12.77-15.93,22.12.64,8.43,7,16.39,15.72,22.65C58.25,218.42,85.7,225,111.76,230c-10.4,9-18.28,19.5-22.77,31.25a57.47,57.47,0,0,0-3.92,17.38A197.63,197.63,0,0,0,38.5,306.07a136.32,136.32,0,0,0-25.11,26.12C7,340.86,1,350.28.1,360.53c-.93,10,4.9,20.32,19.79,24.63,8.7,2.53,18.1,2.59,26.84,2.33,10-.29,19.94-.74,29.86-1.19,37.58-2,74.49-5.93,110.68-11.49,8.09,4.57,16.32,9,24.69,13.27-18,30.36-26.49,64.25-24.56,98.86,1.28,23.79,7.21,48.92,19.68,72.23,5.69,10.7,15.75,21.06,32.89,22.17,16.25,1,31.5-4.83,44.3-10,35-14,61.57-35.6,79.27-61,38.91-18.89,66.49-48.2,78-81.77A116.08,116.08,0,0,0,445.21,415c14.89-3.51,29.55-7.43,44-11.48,4.82-1.34,9.6-2.82,14.14-4.5a3.38,3.38,0,0,0,1.94.12,26.41,26.41,0,0,0,2.69-.7,122.74,122.74,0,0,0,35,3.9A81.16,81.16,0,0,0,569.68,397a81.29,81.29,0,0,0,20.7-4.19,2.46,2.46,0,0,0,2.1.21c8.44-2.2,13-7.07,14.76-12.87C613.74,369.13,608.9,355.9,602.5,343.77Zm-10.86,45.1-.52.22-3.67-3.1c.95-.89,1.86-1.79,2.71-2.74a48.89,48.89,0,0,0,11.11-22.77c.09.22.19.44.27.66,2,5,3.19,10.63,2.41,15.68C602,381.56,598.17,385.73,591.64,388.87ZM441.38,412.8c-9.53,2.25-19.15,4.32-28.94,6.07-7.33,1.31-14.79,2.44-22.34,3.33a166.56,166.56,0,0,0-15.61-66.63q15.64,5.83,31.59,11.17c11.95,3.94,24.07,7.65,36.3,11A104.8,104.8,0,0,1,441.38,412.8Zm-80.61,94.78a207.55,207.55,0,0,1-30.43,11.78c-13.77-32-17.65-64.19-15.1-95.68a262.91,262.91,0,0,0,39.58,3.23,308.09,308.09,0,0,0,31.5-1.61A146,146,0,0,1,360.77,507.58ZM187,371.72c-15.57-8.85-30.67-18.12-45.53-27.29-17.2-10.58-34.9-22.23-45-36.73a43.55,43.55,0,0,1-7.92-27,254,254,0,0,1,31.2-10.84,286.16,286.16,0,0,1,51-8.88c5.44,3.28,11,6.42,16.67,9.46,21.28,11.35,43.42,21.76,65.5,32.29q14.85,7.11,29.84,14.05a233.45,233.45,0,0,0-44.79,36.83q-5,5.31-9.45,10.84c-12.93,2.52-26,4.78-39.09,6.89Zm-57.6-150a153.92,153.92,0,0,1,38.57-16.47,200.84,200.84,0,0,1,76.52-5.81q5,5.33,10.12,10.57c8.72,8.87,17.95,17.55,27.7,25.94-46,7-96.94,3.22-145.23-4.47A76.6,76.6,0,0,1,129.35,221.7Zm2.88,9-2-.34q-5.34-.9-10.76-1.86,3.45-2.62,7.19-5A80.75,80.75,0,0,0,132.23,230.68Zm98.3-46.82q5.17,6,10.6,11.95c-42-3.93-83.84,4.85-113.65,22.86C123,211,120.61,203,121,195.09c.8-13.1,9.15-24.63,21.26-33.31A666,666,0,0,1,230.53,183.86ZM178.05,22.55c14.14-.56,29.08,5.06,41.27,10.92C235,40.93,249.88,49.78,264.15,58.7A551.09,551.09,0,0,1,346.79,121c22.52,20.63,46.77,45.89,31.56,69.68a48.7,48.7,0,0,1-3.43,4.68C336.29,172,291.86,150.19,243.6,142.15q-6.14-1-12.27-1.63-29.62-28-57.69-56.7c-2.38-2.44-4.77-4.94-7-7.5C161.66,57,163.5,37.83,178.05,22.55Zm248.3,110.72a79.33,79.33,0,0,1-17.56-28.42q11.79,9.23,23.34,18.6A86.41,86.41,0,0,0,426.35,133.27Zm8.67-7.46c13.22,10.81,26.14,21.79,38.6,33C455,154.9,440.18,146.56,429.13,136A90.38,90.38,0,0,1,435,125.81Zm93.83-13a104.19,104.19,0,0,1,5.33,29,28.56,28.56,0,0,1-6.24,8.24c-10.49,9.68-29.51,12.34-47.46,9.9-13.92-12.65-28.46-25-43.36-37.14v0c9.71-13,25.35-23.25,47.56-24.93,15.94-1.28,33.41,3.22,43.51,13C528.42,111.57,528.64,112.2,528.85,112.82ZM477.8,162.56q4.77,4.33,9.45,8.72c11.27,10.57,22.1,21.39,32.32,32.46-.31.64-.63,1.27-1,1.91a239.4,239.4,0,0,1-15,25.2c-11-8.56-22.61-16.79-34.71-24.58-15.66-10.13-34.77-22.19-55.85-23.64-.81-.06-1.6-.09-2.38-.1,1.54-3.61,3-7.23,4.5-10.86,4.3-10.8,7.65-22,12.57-32.71C440.37,150.39,457.25,159.17,477.8,162.56ZM429,189.38c20.16,6.77,37.76,19.46,53.78,30.62q9.6,6.78,18.73,13.92c-4.88,7-10.08,14-15.47,20.82-1.73,2.22-3.5,4.44-5.27,6.66-7.83-2.82-15.8-4.85-23.24-5.28A514.71,514.71,0,0,0,398.12,210c3.85-8,7.58-16.05,11.1-24.15A63,63,0,0,1,429,189.38Zm169.18,155c0,1.17.05,2.35,0,3.52-2.35-3.4-5-6.74-7.72-10-19.2-23-45.16-43.69-75.2-60.12-8.25-4.5-19-10.29-30.36-14.75q9.87-12.47,18.9-25.29l.86-1.24c8.54,6.78,16.75,13.78,24.54,21C557.9,284.05,582.15,313.66,598.16,344.36ZM527,377.45a27.67,27.67,0,0,1-6.32,8.16c.06-.48.11-.95.13-1.44.12-1.83-4.11-2.25-4.09-.38a10.94,10.94,0,0,1-2.29,6.43l-.72.42q-9.56-1.45-19-3.26c-18.47-16.46-34.14-34.31-46.28-53.21-5.75-8.84-11.47-18.26-15.19-27.75a55.07,55.07,0,0,0,17.69-7.82c16.73,8.61,33.35,17.35,49.31,26.78,7.87,4.65,15.43,9.5,22.77,14.5C529.37,352.42,532.83,365.92,527,377.45ZM392.14,299.93c-8.49-13.18-15.17-26.74-19-40.46.37-.71.74-1.42,1.1-2.13q9.93,6,20.19,11.69c10,5.55,20.22,10.91,30.5,16.22q0,1.65,0,3.27a54.6,54.6,0,0,0,3.42,15.9c-11.07,1.86-23.14-.19-34.27-3.82C393.45,300.39,392.79,300.15,392.14,299.93Zm-49.09,12.42c-2.79,6.22-5.49,12.47-8,18.76-2,1.15-4,2.28-6,3.36q-20.1-8.57-39.82-17.68,7.14-4.38,14.77-8.41a131.64,131.64,0,0,1,24.26-10.24A133.11,133.11,0,0,1,343.05,312.35Zm-11.63-15.09a80.45,80.45,0,0,1,18.6-2.52c.41,0,.82,0,1.24,0q-3.54,7.37-6.93,14.8A137.37,137.37,0,0,0,331.42,297.26Zm6.79,36A107.14,107.14,0,0,0,352,323.41a182.13,182.13,0,0,1,16.3,27q-16.09-6.15-31.87-12.76Q337.33,335.42,338.21,333.23Zm2.29-5.58.36-.84c1.59-3.79,3.24-7.56,4.92-11.32,1.41,1.66,2.77,3.35,4.09,5.05A96.77,96.77,0,0,1,340.5,327.65Zm6.57-15q4-8.91,8.32-17.75a82.69,82.69,0,0,1,12.26,1.66,53.67,53.67,0,0,1-4,8A65.19,65.19,0,0,1,352,318.59Q349.66,315.56,347.07,312.61Zm9.58-20.34,2.13-4.36c3.25,1.71,6.63,3.45,10.1,5.17-.1.31-.2.62-.31.93A90.59,90.59,0,0,0,356.65,292.27Zm-2.3-47.42a61.93,61.93,0,0,1,12.87,17.86q-5.4,10.55-10.66,21.15c-7.62-4.17-15-8.57-22-12.89a396.33,396.33,0,0,1-45.47-33.05c5.35-.91,10.64-2,15.83-3.21a230.85,230.85,0,0,0,24.21-7.13Q341.47,236.43,354.35,244.85Zm13.72,9.49c.35,1.49.73,3,1.14,4.46l-.11.21a61.6,61.6,0,0,0-5.31-8.11c1.36.86,2.73,1.7,4.09,2.55C368,253.75,368,254,368.07,254.34Zm1,13.12c.41,1.27.77,2.54,1.05,3.83a41.88,41.88,0,0,1-.5,19.3q-4.92-2.38-9.71-4.93Q364.42,276.54,369.06,267.46Zm3.32,27.32.58.27-.62-.15S372.37,294.82,372.38,294.78Zm.76-2.52a43.81,43.81,0,0,0,.91-19.32,169.23,169.23,0,0,0,13,25.16C382.32,296.33,377.69,294.36,373.14,292.26Zm77.13,2.53q-10.57-5.44-21.15-10.9a33.86,33.86,0,0,1,2-9.28c2.87-7.82,9.78-14.73,22-15.72.56,0,1.13-.07,1.7-.09q8.16,7.43,15.83,15.08l-3,3.6c-4.87,5.77-9.93,11.62-16.34,16.55Zm-16.62-31.42c-5.48,5.09-7.83,11.75-8.51,18.45q-7.38-3.84-14.7-7.75-17.85-9.52-34.61-19.83c5.26-10.23,10.53-20.47,15.67-30.76q2.56-5.11,5.05-10.24a515.31,515.31,0,0,1,55.24,42.89C444.91,256.59,438.67,258.75,433.65,263.37Zm-4.63,24,18.35,9.41a52.73,52.73,0,0,1-15.18,6.83A52.71,52.71,0,0,1,429,287.36Zm80.34,39.87c-17.81-10.9-36.63-20.85-55.59-30.64a90.69,90.69,0,0,0,12.49-11.52c2.46-2.72,4.86-5.48,7.24-8.25,2.62,2.67,5.22,5.36,7.75,8.07,13.12,14,25.61,28.84,35.42,44.06,1,1.58,2,3.19,3,4.83Q514.6,330.45,509.36,327.23Zm-36.29-56.36q-6.06-6-12.43-11.87A73.4,73.4,0,0,1,479,263.59Q476,267.24,473.07,270.87ZM395,207.6l-.14.27q-6.24-4.11-12.67-8.08c4-5.21,9.34-10.06,16.83-12.45a31.94,31.94,0,0,1,5.72-1.21Q400.08,196.9,395,207.6Zm-10-2c2.81,1.79,5.58,3.62,8.34,5.45-6.68,13.76-13.7,27.45-20.73,41.16l-1.35-.83c-.12-.66-.25-1.32-.37-2-2.57-15.25-.77-30.43,7.34-43.78.62-1,1.28-2,2-3.07Q382.58,204.1,385,205.62Zm-12.68,2.58c-6.38,12.58-7.58,26.55-5.31,40.52q-6.75-4.28-13.34-8.66c-.68-.61-1.38-1.22-2.09-1.82A145.18,145.18,0,0,0,334,225.75c16.59-6.47,31.52-15,41.72-25.93l1.09.67A66.75,66.75,0,0,0,372.29,208.2ZM260,148.63c41,9.87,79,28.67,112.71,49.29-10.08,10.87-25.49,19.41-42.15,25.71-.87-.51-1.74-1-2.62-1.52a921.3,921.3,0,0,1-84.15-69.93q-4.41-4.11-8.79-8.23A234.35,234.35,0,0,1,260,148.63Zm42.56,58.9q2.72,2.15,5.46,4.26a589,589,0,0,0-55.12-23q-9.78-3.56-19.73-6.81c-8.94-10.55-17.31-21.31-25.3-32.18q-2.61-3.6-5.21-7.21a174.63,174.63,0,0,1,26.69.75C252.51,165.3,276.59,186.92,302.52,207.53Zm-51.33-16.61c18.89,6.81,37.12,14.48,54.87,23,4.71,2.25,9.4,4.59,14,7,2,1.46,4,2.92,6,4.36-5.61,2-11.3,3.69-17,5.16-7.49,2-15.17,3.58-23,4.88A457.32,457.32,0,0,1,249.25,200a193.07,193.07,0,0,1,28.94,6.3c3.15.38,4.26-2.36,1.74-3.09a202.15,202.15,0,0,0-34.13-6.94c-1-1.1-2-2.19-3-3.29q-3.21-3.58-6.33-7.2Q243.85,188.29,251.19,190.92Zm-35.73,51.37c23.8.75,47.46-.23,69.88-3.76a399.66,399.66,0,0,0,70.1,47.6c-1,2-1.94,3.95-2.89,5.93-1.21,0-2.42-.05-3.63,0a84.16,84.16,0,0,0-20.38,2.9,133.15,133.15,0,0,0-22.79-14.49c-31.65-16-70.62-22.47-106.33-23.1-9.59-.15-19.09.15-28.44.88-11.34-7-21.78-14.67-30.55-23.25A614.31,614.31,0,0,0,215.46,242.29Zm-8.41,17.92c35.69,1.43,74.55,9,104.63,26.48a125.89,125.89,0,0,1,13.62,9.16,131.89,131.89,0,0,0-21.85,9.07q-9.37,4.79-18.05,10.15-22.48-10.4-44.68-21.15c-21.61-10.42-45-20.9-65.69-33.25A294,294,0,0,1,207.05,260.21Zm79.33,58.3q19.58,9,39.48,17.55a224.9,224.9,0,0,1-34.74,13.32c-18.19,5.47-37.2,10-56.57,13.88A223.27,223.27,0,0,1,286.38,318.51Zm12.48,31.91A206.15,206.15,0,0,0,330,337.8l2,.86c-10.24,26.45-17.87,53.58-20.55,81.94a278.68,278.68,0,0,1-38.15-9.47,403.45,403.45,0,0,1-56.38-23.35,192.4,192.4,0,0,1,14.37-20.55C254.59,362.73,277.45,357.37,298.86,350.42ZM347,424.24a248.63,248.63,0,0,1-31.51-3c2.54-27.77,10-55,20.05-81.14q17.1,7.14,34.53,13.77a167.43,167.43,0,0,1,16,60.51q.27,4.11.31,8.22A291.2,291.2,0,0,1,347,424.24Zm36.89-68.07q-5.52-2-11-4.07-1.68-3.48-3.52-6.93a189.27,189.27,0,0,0-15.08-23.7,67.71,67.71,0,0,0,14.16-17.54,56.17,56.17,0,0,0,3-6.5,89,89,0,0,1,20.46,8.17c10.73,15.86,23.93,31.15,38,45.43,2.5,2.52,5.11,5,7.83,7.5a84.86,84.86,0,0,1,2.71,9c.6,2.48,1.09,5,1.5,7.42C422.22,369.42,402.8,363.07,383.85,356.17Zm15-46.32a100.48,100.48,0,0,1,36.11,42c-3.26-3.18-6.38-6.4-9.35-9.61A342.08,342.08,0,0,1,398.9,309.85Zm44.57,53.71A191.41,191.41,0,0,0,469.13,382q-11.46-2.7-22.82-5.81A100.53,100.53,0,0,0,443.47,363.56Zm-1.76-5.45c-7.2-19.82-23.1-40.8-46.91-54.14l-.18-.27a84,84,0,0,0,28.25,4.18,56.49,56.49,0,0,0,6.57-.7,133.06,133.06,0,0,0,6.38,13.23c12.66,23.34,30.51,45.55,52.55,65.74q-5.21-1-10.39-2.18A182.17,182.17,0,0,1,441.71,358.11Zm50.35,31.38c.71.63,1.44,1.26,2.16,1.88q-3.44-1.31-6.76-2.78Zm6.44,1.23q5.64,1.06,11.33,2c-1.57.78-3.2,1.5-4.87,2.2-.77-.22-1.53-.46-2.3-.69Q500.56,392.51,498.5,390.72Zm34.73-16.52c2.9-9.43,1-19.51-3.1-29.38,18.31,13,35.25,26.86,52,41a52.56,52.56,0,0,1-14.8,8.75,180.64,180.64,0,0,1-31.57-1c-5.57-.6-11.13-1.32-16.68-2.12C525.82,387,531,381.48,533.23,374.2Zm-5.8-35.2a133.58,133.58,0,0,0-7.76-13.17c-10.87-16.46-24.76-32.46-39.32-47.59q-2.13-2.21-4.31-4.39c2.41-2.86,4.76-5.74,7.08-8.63,6.35,2.63,12.41,5.67,17.83,8.35,28.53,14,53.81,31.7,73.85,51.88,8.64,8.67,17.41,18.23,23.09,28.15-1,10.43-4.49,20.55-12.27,28.86-.35.37-.72.72-1.08,1.07C566.31,368.17,547.8,353,527.43,339Zm74.78,15.3c0-.35.08-.69.11-1,.48,1.24.92,2.48,1.31,3.73C603.18,356.09,602.71,355.19,602.21,354.3ZM560,253.69c17.56,25.49,33.47,53.4,37.35,80.8-18.89-32.14-45.06-62.6-76.94-90q-6.61-5.64-13.56-11.11a244.16,244.16,0,0,0,15.83-26.3A444.15,444.15,0,0,1,560,253.69Zm-38.61-53.61c-11.66-12.5-24.09-24.7-37.08-36.65,17.85,1.85,36.11-1.41,46.7-10.75a31.06,31.06,0,0,0,3.26-3.34C533.69,166.87,528.9,183.91,521.34,200.08ZM405.28,89.64a44.34,44.34,0,0,1,10.65-34.56,42.31,42.31,0,0,1,36.61-14.67C474.13,42.55,492.48,58.78,504,71.3a116.63,116.63,0,0,1,22,33.89,57.92,57.92,0,0,0-24.72-9.41c-19.84-3-40,2.11-52.92,11.13a62.56,62.56,0,0,0-14.08,13.6Q420.79,109.6,407,98.94A67.34,67.34,0,0,1,405.28,89.64ZM235.36,3.39c22.53,1.75,43.8,10.84,62.08,21.06,18.66,10.47,35.14,22.83,51.52,35q24.23,18,48.16,36.31l6.36,4.92c3.41,12.48,10.69,25,21.4,35.56-2.38,5.08-4.38,10.27-6.26,15.38q-5.85,15.6-12.4,31c-12.65,1-21.3,7.43-27.34,15.08l-.83-.51.55-.65c8.17-10,10.63-21.8,6.09-34.16-4.54-12-14.22-22.88-24.61-33.21-24.46-24-52.88-46.33-83.82-66.34-15.65-10.12-32.07-19.94-49.2-28.76-13-6.69-27.93-13.16-43.32-14.29-.93-.07-1.84-.12-2.74-.14.55-.5,1.09-1,1.68-1.5C195.17,7.58,214.19,1.78,235.36,3.39Zm-84,45C150.47,37.27,157,26,172.29,23.18c-.41.49-.82,1-1.21,1.49C160.42,38.53,158.35,54.09,161.3,70,156,63.09,152,55.84,151.36,48.36Zm25.84,54.45A128.36,128.36,0,0,1,169,84.17c5.12,5.29,10.57,10.46,15.76,15.63,12.52,12.41,25,24.83,37.81,37,1.12,1.08,2.26,2.14,3.38,3.22a180.86,180.86,0,0,0-25.16-.15C192.07,127.74,183.8,115.41,177.2,102.81Zm14.31,40.74c2.34-.31,4.71-.55,7.09-.74q13.31,18.93,28.68,37.23a666.79,666.79,0,0,0-81.91-20.37C158,151.5,174.06,145.87,191.51,143.55ZM49.38,207.05C39.16,201.3,30,193.84,27.49,184.87c-2.6-9.8,3.34-18.58,14.12-23.44,25.24-11.44,62.25-5.9,92-1.13l3.83.65c-1.58,1.22-3.1,2.48-4.55,3.8-11,10-17.22,22.95-15.42,36.64a50.12,50.12,0,0,0,7.18,19,112.11,112.11,0,0,0-10.05,7.2C91.82,223.41,68.74,217.86,49.38,207.05ZM94,259c4.83-10.55,12.56-20,22.41-28.09h0q9.47,1.74,19,3.28c1.57,1.64,3.2,3.26,4.91,4.83a180.81,180.81,0,0,0,26.4,19.59,274.66,274.66,0,0,0-77.94,18.49A59.56,59.56,0,0,1,94,259ZM81.1,383c-9.31.5-18.62,1-28,1.32s-19.7.94-29.44-1.35C5,378.58,2.48,365.08,5.72,354.45c3.19-10.12,10-19.46,17.24-28A143.91,143.91,0,0,1,49,302.61a201.27,201.27,0,0,1,36-20.37,47.07,47.07,0,0,0,8.74,26.67c10.34,14.71,28,26.36,45.47,37.13,14.26,8.81,28.78,17.73,43.73,26.29Q133.06,380,81.1,383Zm110.23-8.76,1.49-.23c10.85-1.74,21.73-3.59,32.53-5.6a195.25,195.25,0,0,0-12.09,17.57Q202.13,380.26,191.33,374.19Zm151.91,154.6c-15.52,15.73-35.48,29.23-59.06,38.89-12.61,5.13-28,11.59-44,10.52-20.47-1.41-27.93-16.61-33.18-28.37C186.8,504.2,186.62,456.52,203.81,414a179.84,179.84,0,0,1,11.83-24.06,393.79,393.79,0,0,0,64.28,25.77A277.2,277.2,0,0,0,311.24,423c-2.69,32.51.36,66,14.78,98.79.41.91,2.91,1.64,4.19,1.21a214.46,214.46,0,0,0,26.28-9.5A154.54,154.54,0,0,1,343.24,528.79Zm52.16-43.15a169.31,169.31,0,0,1-27.77,18.44,146.1,146.1,0,0,0,13.71-28.23,150.36,150.36,0,0,0,8.78-51c11.55-1.3,22.87-3.14,34-5.31q8.36-1.68,16.61-3.57C434.66,442.18,418.78,466.38,395.4,485.64Zm80.82-81.81c-10.05,2.73-20.15,5.41-30.37,7.9a106.47,106.47,0,0,0,.89-32.74c10.08,2.73,20.24,5.24,30.47,7.46a148.13,148.13,0,0,0,22.36,9.48l.89.75C492.69,399.48,484.23,401.66,476.22,403.83Zm58.56-4.17a123.59,123.59,0,0,1-22.7-2.92,18.8,18.8,0,0,0,4.21-2.95,273,273,0,0,0,41.83,3.64A86.1,86.1,0,0,1,534.78,399.66Zm50.14-11.46,2.73,2.32a61.5,61.5,0,0,1-10.24,2.76A53.1,53.1,0,0,0,584.92,388.2Z"/></g></g></svg>