<svg width="80" height="30" viewBox="0 0 80 30" fill="none" xmlns="http://www.w3.org/2000/svg">
<g clip-path="url(#clip0_18_266)">
<path d="M9.20949 16.8011C9.28322 18.587 8.32713 19.9663 8.37628 21.7357L8.33204 21.7757L8.24848 21.6746C8.1772 19.9381 7.36611 18.4154 7.45705 16.6883C8.04322 16.6748 8.62951 16.7094 9.20949 16.7917" fill="white"/>
<path d="M7.02932 18.3731C7.37587 19.4822 7.20628 20.7958 7.58479 21.8979C8.46223 23.4464 7.58479 25.2839 7.52088 26.9241L6.94329 29.9295C4.59852 29.6945 2.17018 27.9674 1.38613 25.7609C0.870936 24.4355 0.799753 22.9897 1.18245 21.6239C1.56514 20.2581 2.38277 19.0399 3.52199 18.1382C4.41125 17.4844 5.44132 17.0277 6.53775 16.8011C6.74821 17.3108 6.91267 17.8367 7.02932 18.3731Z" fill="white"/>
<path d="M12.9504 18.681C12.4269 19.6209 11.6773 20.448 11.112 21.3574C10.5024 22.4289 9.50453 23.35 8.99576 24.4638C8.80405 24.6777 8.5853 24.9902 8.29036 25.056C8.20434 24.4638 8.53615 23.921 8.53615 23.3383C8.74998 22.0412 8.84829 20.7018 9.42343 19.5574L10.0207 17.0032C11.08 17.3674 12.1172 17.8327 12.9504 18.681Z" fill="white"/>
<path d="M14.3831 25.9348C13.3459 28.3669 10.7111 29.9295 8.01242 30C7.82071 29.53 7.8674 28.9778 7.79858 28.4679C7.65357 26.5223 9.50432 25.2651 10.2564 23.625C10.7873 22.5276 11.8393 21.5407 12.8003 20.7018C13.0967 20.2848 13.3479 19.84 13.5499 19.3742C15.0123 21.1224 15.3392 23.8388 14.3831 25.9348Z" fill="white"/>
<path fill-rule="evenodd" clip-rule="evenodd" d="M20.3164 6.68991C20.46 6.7712 20.6135 6.83514 20.7736 6.88025C20.9653 6.93742 21.1651 6.96595 21.3659 6.96484C21.9264 6.96884 22.471 6.78698 22.907 6.45023C23.3658 6.10559 23.5952 5.53694 23.5952 4.74427C23.5952 3.89834 23.3936 3.27721 22.9905 2.88087C22.5874 2.48454 21.9697 2.28637 21.1373 2.28637H20.3164V6.68991ZM18.9253 2.28637H17.5759V2.07724H21.4618C22.5563 2.07724 23.4313 2.27776 24.0867 2.67879C24.7421 3.07982 25.0699 3.72916 25.0699 4.62678C25.0931 5.0043 25.0101 5.38088 24.8294 5.7173C24.6487 6.05371 24.377 6.33765 24.0425 6.53953C23.3127 6.9737 22.466 7.19424 21.6068 7.17397C21.168 7.1937 20.7302 7.11818 20.3262 6.95309V11.0582H21.7174V11.2791H17.5759V11.07H18.9253V2.28637Z" fill="white"/>
<path fill-rule="evenodd" clip-rule="evenodd" d="M30.5951 11.2532C30.9223 11.2698 31.249 11.2117 31.5481 11.0839C31.8472 10.956 32.1103 10.7619 32.3156 10.5177C32.7345 10.0091 33.018 9.41077 33.1414 8.77419C33.2848 8.07767 33.3556 7.36925 33.3528 6.65936C33.3566 5.94998 33.29 5.24186 33.1537 4.54453C33.0376 3.91405 32.7589 3.32121 32.3426 2.81978C32.1332 2.57387 31.866 2.37882 31.5627 2.25058C31.2594 2.12234 30.9287 2.06455 30.5975 2.08194C30.2701 2.06584 29.9434 2.12435 29.6443 2.25263C29.3452 2.38091 29.0822 2.5753 28.877 2.81978C28.4581 3.32839 28.1746 3.92675 28.0512 4.56333C27.9087 5.25523 27.8379 5.95888 27.8398 6.66406C27.8365 7.37332 27.9023 8.08132 28.0365 8.77889C28.1547 9.40874 28.4332 10.0011 28.8476 10.5036C29.0571 10.7491 29.3245 10.9437 29.6278 11.0715C29.9311 11.1994 30.2617 11.2568 30.5926 11.2391M30.5926 1.8681C31.7396 1.8681 32.7465 2.33806 33.6133 3.27799C34.4726 4.2145 34.9324 5.42565 34.9012 6.67111C34.9333 7.91464 34.4784 9.1248 33.6256 10.0642C32.7784 10.9948 31.7675 11.4647 30.5926 11.4741C29.4178 11.4835 28.4117 11.0136 27.5744 10.0642C26.7189 9.12633 26.2635 7.91512 26.2988 6.67111C26.2658 5.43307 26.7162 4.22765 27.5621 3.28974C28.4125 2.34981 29.4235 1.87985 30.5951 1.87985L30.5926 1.8681Z" fill="white"/>
<path fill-rule="evenodd" clip-rule="evenodd" d="M38.6272 6.44318H39.3105C40.156 6.44318 40.7852 6.28574 41.2178 5.97322C41.6504 5.66069 41.8593 5.12964 41.8593 4.39885C41.8859 3.85204 41.7121 3.3135 41.3677 2.87617C41.0408 2.4861 40.4362 2.29342 39.5538 2.29342H38.6272V6.44318ZM37.2361 2.28637H35.8843V2.07724H40.0626C40.8809 2.04471 41.6944 2.21127 42.427 2.5613C43.0317 2.88244 43.334 3.4926 43.334 4.3918C43.3543 4.70256 43.2802 5.01231 43.1206 5.28373C42.961 5.55515 42.7227 5.77664 42.4344 5.92152C41.8078 6.24276 41.123 6.44692 40.4165 6.52307C41.2784 6.60923 41.9035 6.7933 42.2918 7.07528C42.6777 7.3596 42.9211 7.90711 43.0292 8.72014L43.2209 10.311C43.229 10.5527 43.3226 10.7846 43.4864 10.9689C43.6088 11.0733 43.7671 11.131 43.9312 11.131C44.1239 11.1211 44.313 11.0772 44.4891 11.0018L44.5703 11.171C44.4106 11.2265 44.2461 11.2682 44.0787 11.2955C43.8691 11.3281 43.6569 11.343 43.4446 11.3402C42.69 11.3402 42.2157 11.1733 41.9945 10.8397C41.7732 10.506 41.6135 9.89975 41.5029 8.99507L41.3947 8.22433C41.377 7.79617 41.2168 7.38459 40.9376 7.04943C40.6918 6.7792 40.2125 6.64526 39.5145 6.64526H38.6272V11.0582H40.0184V11.2791H35.8843V11.07H37.2459L37.2361 2.28637Z" fill="white"/>
<path d="M48.503 2.28637H48.2154C46.9799 2.28637 46.1754 2.43598 45.8018 2.73519C45.4282 3.0344 45.2423 3.71427 45.2439 4.77482H45.0251V2.07724H53.3695V4.77482H53.1507C53.1507 3.72446 52.9639 3.04536 52.5928 2.74224C52.2217 2.43911 51.4204 2.28637 50.194 2.28637H49.8941V11.0582H51.3V11.2791H47.0971V11.07H48.503V2.28637Z" fill="white"/>
<path fill-rule="evenodd" clip-rule="evenodd" d="M58.6758 11.2532C59.003 11.2694 59.3295 11.2112 59.6286 11.0833C59.9277 10.9555 60.1908 10.7617 60.3963 10.5177C60.8139 10.0083 61.0971 9.41029 61.2222 8.77419C61.3648 8.07758 61.4348 7.36917 61.4311 6.65936C61.4357 5.95006 61.3699 5.24194 61.2345 4.54453C61.1163 3.91469 60.8377 3.32234 60.4234 2.81978C60.214 2.57387 59.9468 2.37882 59.6435 2.25058C59.3402 2.12234 59.0094 2.06455 58.6783 2.08194C58.351 2.06623 58.0244 2.1249 57.7253 2.25316C57.4262 2.38141 57.1632 2.57559 56.9578 2.81978C56.5397 3.32863 56.2571 3.92697 56.1344 4.56333C55.9907 5.25506 55.9199 5.95882 55.9231 6.66406C55.9185 7.37336 55.9843 8.08148 56.1197 8.77889C56.2379 9.40874 56.5165 10.0011 56.9308 10.5036C57.1403 10.7493 57.4076 10.944 57.7109 11.0718C58.0142 11.1996 58.3449 11.257 58.6758 11.2391M58.6758 1.8681C59.831 1.8681 60.8379 2.33806 61.6965 3.27799C62.5536 4.21209 63.0131 5.41947 62.9844 6.66171C63.0166 7.90524 62.5616 9.1154 61.7088 10.0548C60.8617 10.9854 59.8507 11.4553 58.6758 11.4647C57.501 11.4741 56.4941 11.0042 55.6552 10.0548C54.7978 9.12001 54.3382 7.91177 54.3673 6.66876C54.3383 5.42998 54.7931 4.22532 55.6429 3.28974C56.4933 2.34981 57.5043 1.87985 58.6758 1.87985V1.8681Z" fill="white"/>
<path d="M0 0V13.3446H16.234V0H0ZM11.4732 2.30046H11.1192C11.0126 2.29301 10.906 2.31387 10.811 2.36072C10.716 2.40758 10.6364 2.47861 10.581 2.56599C10.4479 2.82222 10.3885 3.1077 10.4089 3.39312V8.25957C10.4089 9.25119 10.1115 10.0282 9.51673 10.5906C8.92193 11.153 8.02073 11.4349 6.81311 11.4365C5.69398 11.4365 4.80097 11.1483 4.13408 10.5718C3.46718 9.9953 3.1321 9.20341 3.12882 8.19613V2.30046H2.06704V2.06548H6.36087V2.30046H5.2573V8.02694C5.2573 8.98097 5.42116 9.70941 5.74887 10.2123C6.08068 10.7151 6.7148 11.0488 7.63649 10.9666C8.37384 10.9031 8.7843 10.7316 9.24883 10.2922C9.71336 9.85274 9.94193 9.18775 9.94193 8.33947V3.39312C9.96852 3.1008 9.89983 2.80777 9.74531 2.55424C9.68491 2.46259 9.59787 2.38977 9.49485 2.34469C9.39182 2.29962 9.27728 2.28425 9.16526 2.30046H8.77446V2.06548H11.4781L11.4732 2.30046ZM13.6361 11.0981C13.4525 11.269 13.2065 11.3645 12.9503 11.3645C12.6942 11.3645 12.4481 11.269 12.2646 11.0981C12.1736 11.0124 12.1019 10.9098 12.0537 10.7967C12.0055 10.6836 11.982 10.5623 11.9844 10.4402C11.9844 10.1953 12.0862 9.96039 12.2673 9.7872C12.4485 9.61402 12.6941 9.51672 12.9503 9.51672C13.2065 9.51672 13.4522 9.61402 13.6333 9.7872C13.8145 9.96039 13.9163 10.1953 13.9163 10.4402C13.9187 10.5623 13.8951 10.6836 13.8469 10.7967C13.7988 10.9098 13.727 11.0124 13.6361 11.0981Z" fill="white"/>
<path d="M26.5938 16.9445L26.3677 17.3886C26.1578 17.246 25.905 17.1726 25.6476 17.1794C25.5114 17.1754 25.3758 17.1978 25.249 17.2455C25.1223 17.2932 25.007 17.365 24.9102 17.4567C24.8126 17.548 24.7363 17.658 24.6863 17.7795C24.6364 17.901 24.6138 18.0313 24.6202 18.1617C24.6114 18.3048 24.6347 18.448 24.6885 18.5818C24.7423 18.7156 24.8254 18.8368 24.9322 18.9374C25.0391 19.038 25.1671 19.1156 25.3079 19.165C25.4487 19.2144 25.5988 19.2344 25.7483 19.2238C25.9841 19.2198 26.2168 19.1727 26.4341 19.0851L26.5422 19.5551C26.4081 19.6177 26.2672 19.6657 26.1219 19.6984C26.0408 19.7125 25.9597 19.7266 25.8762 19.736C25.7894 19.7409 25.7024 19.7409 25.6156 19.736C25.2034 19.755 24.7991 19.6231 24.485 19.3671C24.3115 19.2169 24.1745 19.0323 24.0836 18.826C23.9927 18.6198 23.9502 18.397 23.959 18.1734C23.9533 17.9656 23.9928 17.7589 24.0748 17.5664C24.1569 17.3739 24.2798 17.1997 24.4359 17.0549C24.594 16.9144 24.7797 16.8054 24.9822 16.734C25.1847 16.6626 25.4 16.6303 25.6156 16.639C25.9682 16.634 26.3124 16.7415 26.5938 16.9445ZM29.6686 18.5329C29.6774 18.7458 29.6458 18.9583 29.5752 19.1603C29.5091 19.3159 29.3951 19.4487 29.2483 19.541C28.9851 19.6976 28.6779 19.7731 28.3684 19.7572C28.0573 19.7727 27.7487 19.6973 27.4836 19.541C27.3345 19.4507 27.2172 19.3197 27.1469 19.165C27.0776 18.9612 27.0476 18.747 27.0584 18.5329V16.7142H27.6483V18.5635C27.6483 19.0076 27.894 19.2285 28.3856 19.2285C28.4793 19.2399 28.5746 19.2304 28.6639 19.2008C28.7532 19.1713 28.8342 19.1225 28.9005 19.0581C28.9668 18.9938 29.0168 18.9157 29.0464 18.8299C29.076 18.7441 29.0846 18.6529 29.0713 18.5635V16.7142H29.6686V18.5329ZM65.6242 16.9186L65.3784 17.4285C65.1251 17.3103 64.8508 17.2386 64.5698 17.217C64.4526 17.2107 64.336 17.2359 64.2331 17.2899C64.1959 17.3104 64.1651 17.3398 64.1435 17.3753C64.1219 17.4107 64.1105 17.451 64.1102 17.492C64.1102 17.6024 64.2085 17.7058 64.4076 17.8092C64.7431 17.9617 65.0569 18.1543 65.3416 18.3826C65.4149 18.4523 65.4721 18.5361 65.5094 18.6284C65.5466 18.7207 65.5632 18.8195 65.5579 18.9183C65.5638 19.0352 65.5413 19.1518 65.4923 19.259C65.4433 19.3662 65.369 19.4611 65.2752 19.5363C65.04 19.7028 64.7515 19.7859 64.4592 19.7713H64.3191L64.1815 19.7572C63.9547 19.716 63.7348 19.6456 63.5277 19.5481L63.454 19.5128L63.3261 19.4588L63.5719 18.9348L63.8349 19.064C63.8935 19.094 63.9543 19.1199 64.0168 19.1415C64.1589 19.197 64.3106 19.2265 64.4641 19.2285C64.5825 19.2345 64.7 19.2058 64.8008 19.1462C64.8382 19.1229 64.8687 19.0907 64.8894 19.0529C64.9101 19.015 64.9202 18.9727 64.9188 18.9301C64.9188 18.8149 64.8303 18.7068 64.646 18.6081L64.1544 18.345C63.944 18.2407 63.7524 18.1051 63.5867 17.9431C63.4842 17.8233 63.4293 17.6726 63.4318 17.5178C63.4302 17.3708 63.4729 17.2264 63.5547 17.1019C63.58 17.0575 63.6133 17.0177 63.653 16.9844C63.6935 16.9457 63.738 16.9111 63.7858 16.881C64.0209 16.7402 64.295 16.6706 64.5723 16.6813C64.7702 16.6795 64.9673 16.7057 65.1572 16.7588C65.2266 16.7777 65.2947 16.8005 65.3612 16.827L65.6242 16.9186ZM80.0099 16.9186L79.7641 17.4285C79.5107 17.3106 79.2365 17.2388 78.9555 17.217C78.8383 17.2107 78.7217 17.2359 78.6188 17.2899C78.5816 17.3104 78.5507 17.3398 78.5292 17.3753C78.5076 17.4107 78.4962 17.451 78.4959 17.492C78.4959 17.6024 78.5942 17.7058 78.7933 17.8092C79.1278 17.9621 79.4408 18.1548 79.7248 18.3826C79.7986 18.4521 79.8562 18.5358 79.8939 18.6281C79.9316 18.7204 79.9485 18.8193 79.9436 18.9183C79.9497 19.0354 79.9272 19.1523 79.8777 19.2596C79.8282 19.3669 79.7531 19.4617 79.6584 19.5363C79.4242 19.7028 79.1364 19.7859 78.8449 19.7713H78.7023L78.5672 19.7572C78.3403 19.7163 78.1203 19.646 77.9134 19.5481L77.8372 19.5128L77.7094 19.4588L77.9552 18.9348L78.2206 19.064C78.2786 19.0935 78.3386 19.1194 78.4 19.1415C78.5429 19.1973 78.6955 19.2268 78.8498 19.2285C78.9682 19.2345 79.0857 19.2058 79.1865 19.1462C79.2236 19.1226 79.2538 19.0904 79.2745 19.0526C79.2951 19.0148 79.3054 18.9727 79.3045 18.9301C79.3045 18.8149 79.2136 18.7068 79.0292 18.6081L78.5377 18.345C78.3269 18.2413 78.1351 18.1056 77.9699 17.9431C77.8667 17.8235 77.811 17.6729 77.8126 17.5178C77.8118 17.3706 77.8554 17.2262 77.938 17.1019C77.9633 17.0575 77.9965 17.0177 78.0363 16.9844C78.0762 16.9451 78.1207 16.9104 78.169 16.881C78.4032 16.7401 78.6766 16.6704 78.9531 16.6813C79.1518 16.6794 79.3497 16.7055 79.5405 16.7588C79.6098 16.7777 79.6779 16.8005 79.7445 16.827L80.0099 16.9186ZM20.9162 17.1982H19.5792V17.9666H20.6754V18.4366H19.5792V19.689H18.9819V16.7142H20.9162V17.1982ZM23.8411 19.6984H23.2069L22.9612 18.963H21.9166L21.6708 19.6984H21.0367L22.1673 16.7142H22.7006L23.8411 19.6984ZM32.323 19.6984H30.4502V16.7142H31.045V19.2167H32.323V19.6984ZM35.6092 18.1969C35.6138 18.3945 35.5773 18.591 35.5018 18.7749C35.4263 18.9589 35.3132 19.1266 35.1692 19.2684C35.0035 19.4194 34.8066 19.5357 34.5912 19.6097C34.3758 19.6838 34.1465 19.714 33.9182 19.6984H32.7655V16.7142H33.9182C34.148 16.6997 34.3785 16.7312 34.5948 16.8069C34.8111 16.8826 35.0084 17.0007 35.1741 17.1536C35.4544 17.434 35.6073 17.8091 35.5993 18.1969H35.6092ZM38.534 19.6984H37.8999L37.6541 18.963H36.6071L36.3613 19.6984H35.737L36.8676 16.7142H37.4034L38.534 19.6984ZM41.7832 18.1969C41.7879 18.3941 41.7519 18.5902 41.6772 18.774C41.6026 18.9579 41.4908 19.1259 41.3482 19.2684C41.1814 19.4218 40.9828 19.54 40.7651 19.6153C40.5475 19.6906 40.3157 19.7213 40.0849 19.7055H38.9297V16.7142H40.0898C40.3208 16.6988 40.5526 16.73 40.7703 16.8057C40.9879 16.8814 41.1865 16.9999 41.3531 17.1536C41.6343 17.4338 41.7888 17.8086 41.7832 18.1969ZM44.2902 19.6984H42.324V16.7142H44.2263V17.1982H42.9212V17.9361H43.9953V18.4201H42.9261V19.2167H44.2927L44.2902 19.6984ZM48.879 18.1969C48.8837 18.3941 48.8476 18.5902 48.773 18.774C48.6983 18.9579 48.5865 19.1259 48.444 19.2684C48.2777 19.4194 48.0804 19.5355 47.8646 19.6096C47.6488 19.6836 47.4192 19.7139 47.1905 19.6984H46.0353V16.7142H47.1905C47.4207 16.6995 47.6516 16.731 47.8683 16.8066C48.085 16.8823 48.2828 17.0005 48.4489 17.1536C48.7283 17.4346 48.881 17.8093 48.8741 18.1969H48.879ZM51.386 19.6984H49.4197V16.7142H51.3221V17.1982H50.017V17.9361H51.0861V18.4201H50.017V19.2167H51.3835L51.386 19.6984ZM55.3652 18.9042C55.3652 19.4337 55.0433 19.6984 54.3993 19.6984H53.1261V16.7142H54.2567C54.5338 16.6906 54.8106 16.7614 55.0383 16.9139C55.1181 16.9798 55.1816 17.0619 55.2241 17.1541C55.2666 17.2464 55.2871 17.3465 55.2841 17.4473C55.2844 17.5352 55.2695 17.6226 55.2399 17.7058C55.211 17.7847 55.1649 17.8567 55.1047 17.9173C55.0431 17.981 54.9687 18.0321 54.886 18.0677C54.7944 18.1094 54.6948 18.1326 54.5935 18.1358C54.6974 18.1325 54.801 18.1495 54.8978 18.1859C54.9946 18.2223 55.0826 18.2772 55.1563 18.3473C55.227 18.4227 55.2815 18.5107 55.3165 18.6063C55.3515 18.7019 55.3664 18.8031 55.3603 18.9042H55.3652ZM57.914 19.6984H55.9477V16.7142H57.8501V17.1982H56.545V17.9361H57.6141V18.4201H56.545V19.2167H57.9115L57.914 19.6984ZM60.3718 19.6984H58.4965V16.7142H59.0913V19.2167H60.3694L60.3718 19.6984ZM63.218 19.6984H62.5937L62.3479 18.963H61.3034L61.0576 19.6984H60.4333L61.5639 16.7142H62.0972L63.218 19.6984ZM69.7411 19.6984H69.1143L68.8686 18.963H67.8363L67.5905 19.6984H66.9662L68.0968 16.7142H68.6302L69.7411 19.6984ZM72.4447 19.6984H71.7934L71.0782 18.5047H70.7808V19.6984H70.1835V16.7142H71.2256C71.3387 16.7142 71.437 16.7142 71.523 16.7142C71.609 16.7142 71.6852 16.7377 71.7491 16.7494C71.8716 16.7782 71.9832 16.8393 72.0711 16.9257C72.1581 17.0108 72.225 17.1127 72.2674 17.2245C72.3098 17.3364 72.3267 17.4556 72.3169 17.5742C72.3281 17.7736 72.2683 17.9707 72.1473 18.1335C72.0199 18.2751 71.8471 18.3726 71.6557 18.4107L72.4447 19.6984ZM75.0279 17.1982H74.0915V19.6984H73.4893V17.1982H72.5529V16.7142H75.0107L75.0279 17.1982ZM77.4587 19.6984H75.4924V16.7142H77.3923V17.1982H76.0872V17.9361H77.1564V18.4201H76.0872V19.2167H77.4538L77.4587 19.6984ZM54.7164 18.8408C54.7164 18.5588 54.5271 18.4201 54.1437 18.4201H53.7554V19.2426H54.1437C54.2659 19.2482 54.388 19.2298 54.5025 19.1885C54.5691 19.1568 54.6241 19.1066 54.6605 19.0446C54.6968 18.9826 54.7129 18.9116 54.7065 18.8408H54.7164ZM34.9677 18.2016C34.9806 18.0474 34.9535 17.8924 34.8887 17.7506C34.824 17.6088 34.7236 17.4844 34.5965 17.3886C34.3759 17.258 34.1182 17.1964 33.8592 17.2123H33.3775V19.1979H33.8494C34.1469 19.2162 34.4402 19.1236 34.6678 18.9395C34.7685 18.8434 34.8465 18.7279 34.8965 18.6006C34.9465 18.4733 34.9674 18.3373 34.9578 18.2016H34.9677ZM41.1442 18.2016C41.1574 18.0476 41.1307 17.8928 41.0664 17.751C41.0021 17.6091 40.9022 17.4847 40.7755 17.3886C40.5549 17.258 40.2972 17.1964 40.0382 17.2123H39.5638V19.1979H40.0382C40.3356 19.2157 40.6288 19.1231 40.8566 18.9395C40.9558 18.8428 41.0319 18.7269 41.0798 18.5995C41.1278 18.4722 41.1464 18.3365 41.1344 18.2016H41.1442ZM48.24 18.2016C48.2532 18.0476 48.2264 17.8928 48.1621 17.751C48.0978 17.6091 47.9979 17.4847 47.8713 17.3886C47.6505 17.2583 47.3929 17.1967 47.1339 17.2123H46.6498V19.1979H47.1241C47.4216 19.2157 47.7147 19.1231 47.9426 18.9395C48.0435 18.8437 48.1214 18.7281 48.1711 18.6007C48.2207 18.4733 48.2409 18.3372 48.2301 18.2016H48.24ZM22.8014 18.4789L22.4352 17.3886L22.0763 18.4695L22.8014 18.4789ZM37.4919 18.4789L37.1281 17.3886L36.7693 18.4695L37.4919 18.4789ZM62.1857 18.4789L61.822 17.3886L61.4607 18.4695L62.1857 18.4789ZM68.7088 18.4789L68.345 17.3886L67.9837 18.4695L68.7088 18.4789ZM71.7024 17.5977C71.7087 17.5408 71.7008 17.4832 71.6795 17.4298C71.6581 17.3763 71.6239 17.3284 71.5796 17.2899C71.4527 17.2186 71.3059 17.1866 71.1593 17.1982H70.7709V18.0207H71.1593C71.523 18.0207 71.7024 17.882 71.7024 17.5977ZM54.6156 17.546C54.6156 17.2946 54.4558 17.1677 54.124 17.1677H53.7357V17.9361H54.0921C54.446 17.9361 54.6156 17.8045 54.6156 17.546Z" fill="white"/>
<path d="M21.4324 23.8787C21.4446 24.0346 21.4186 24.1909 21.3563 24.3354C21.2939 24.4798 21.1971 24.6083 21.0736 24.7106C20.8324 24.8976 20.5287 24.9953 20.2182 24.9855C19.9038 24.992 19.5968 24.8931 19.3506 24.7059C19.2275 24.6043 19.1308 24.4767 19.0685 24.333C19.0062 24.1894 18.9799 24.0338 18.9918 23.8787V21.9143H19.3801V23.766C19.3745 23.8991 19.3852 24.0323 19.4121 24.1631C19.44 24.2519 19.4907 24.3327 19.5595 24.3981C19.6452 24.4801 19.7469 24.5452 19.8588 24.5896C19.9708 24.6341 20.0909 24.6569 20.2121 24.6569C20.3333 24.6569 20.4534 24.6341 20.5653 24.5896C20.6773 24.5452 20.779 24.4801 20.8647 24.3981C20.9335 24.3327 20.9842 24.2519 21.0121 24.1631C21.0402 24.0325 21.0509 23.8991 21.0441 23.766V21.9143H21.4324V23.8787ZM29.5924 21.9143L28.3807 24.9691H28.1349L26.906 21.9143H27.3214L28.2455 24.2453C28.2617 24.2918 28.2724 24.3399 28.2775 24.3887C28.2782 24.3396 28.2882 24.291 28.307 24.2453L29.1942 21.9143H29.5924ZM37.2117 22.114L37.0323 22.4219C36.961 22.3819 36.8996 22.349 36.8455 22.3232C36.8003 22.3017 36.7535 22.2837 36.7054 22.2691C36.5662 22.2273 36.4212 22.2059 36.2753 22.2057C36.1221 22.1976 35.9704 22.2372 35.8427 22.3185C35.791 22.353 35.749 22.3991 35.7203 22.4528C35.6916 22.5065 35.6771 22.566 35.678 22.6263C35.6778 22.6821 35.691 22.7371 35.7166 22.7872C35.7421 22.8373 35.7794 22.8812 35.8255 22.9153C36.0211 23.0559 36.2301 23.1786 36.4498 23.2819C36.6249 23.3651 36.7898 23.4668 36.9413 23.585C37.0225 23.6519 37.0867 23.7355 37.1293 23.8295C37.1719 23.9235 37.1916 24.0255 37.1871 24.1278C37.1931 24.2423 37.1714 24.3566 37.1237 24.4617C37.0759 24.5669 37.0034 24.6601 36.9118 24.7341C36.6988 24.8963 36.4318 24.9797 36.1597 24.9691C35.9629 24.9724 35.7673 24.9381 35.5846 24.868C35.4415 24.81 35.3062 24.7359 35.1815 24.6471L35.3806 24.3534C35.4447 24.3998 35.513 24.4407 35.5846 24.4756C35.6341 24.5037 35.6859 24.5281 35.7395 24.5484C35.8836 24.599 36.0357 24.6252 36.1892 24.626C36.3454 24.6338 36.4999 24.5926 36.6292 24.5085C36.6797 24.4673 36.7197 24.4156 36.7462 24.3574C36.7726 24.2991 36.7847 24.2359 36.7816 24.1725C36.7865 24.0989 36.7695 24.0256 36.7324 23.961C36.6699 23.8604 36.5787 23.7788 36.4694 23.726L36.2851 23.625C36.1942 23.585 36.086 23.5263 35.9484 23.4581C35.5035 23.2231 35.2823 22.9694 35.2823 22.6756C35.2773 22.5631 35.3005 22.451 35.3501 22.3488C35.3997 22.2466 35.4742 22.1572 35.5674 22.0882C35.7798 21.9368 36.0401 21.8597 36.3048 21.8697C36.4831 21.8663 36.6607 21.8909 36.8307 21.9425C36.9662 21.9862 37.0964 22.0438 37.2191 22.114H37.2117ZM58.8947 23.4088C58.9017 23.613 58.866 23.8166 58.7896 24.0074C58.7132 24.1983 58.5977 24.3726 58.4498 24.5202C58.3062 24.6652 58.132 24.7793 57.9388 24.855C57.7456 24.9308 57.5378 24.9665 57.3291 24.9597C57.1197 24.9658 56.9113 24.9298 56.7174 24.8542C56.5235 24.7785 56.3484 24.6647 56.2034 24.5202C55.9168 24.2153 55.7583 23.8199 55.7583 23.41C55.7583 23 55.9168 22.6046 56.2034 22.2997C56.3486 22.153 56.5246 22.0374 56.7199 21.9605C56.9152 21.8835 57.1253 21.847 57.3364 21.8532C57.5451 21.8464 57.753 21.8821 57.9462 21.9578C58.1394 22.0336 58.3136 22.1477 58.4572 22.2926C58.6073 22.4397 58.7242 22.6146 58.8007 22.8066C58.8772 22.9986 58.9117 23.2035 58.9021 23.4088H58.8947ZM66.3174 23.4088C66.3244 23.613 66.2886 23.8166 66.2122 24.0074C66.1358 24.1983 66.0203 24.3726 65.8725 24.5202C65.7289 24.6652 65.5547 24.7793 65.3615 24.855C65.1683 24.9308 64.9604 24.9665 64.7517 24.9597C64.5424 24.9658 64.334 24.9298 64.1401 24.8542C63.9462 24.7785 63.7711 24.6647 63.626 24.5202C63.3395 24.2153 63.181 23.8199 63.181 23.41C63.181 23 63.3395 22.6046 63.626 22.2997C63.7712 22.153 63.9473 22.0374 64.1426 21.9605C64.3379 21.8835 64.548 21.847 64.7591 21.8532C64.9667 21.8486 65.173 21.8861 65.3644 21.963C65.5559 22.0399 65.7282 22.1547 65.87 22.2997C66.0209 22.4451 66.1391 22.6185 66.2173 22.8093C66.2955 23 66.3321 23.204 66.3247 23.4088H66.3174ZM75.2393 23.4088C75.2463 23.613 75.2105 23.8166 75.1341 24.0074C75.0578 24.1983 74.9422 24.3726 74.7944 24.5202C74.6508 24.6652 74.4766 24.7793 74.2834 24.855C74.0902 24.9308 73.8824 24.9665 73.6736 24.9597C73.464 24.9655 73.2553 24.9295 73.061 24.8538C72.8668 24.7781 72.6912 24.6645 72.5455 24.5202C72.2605 24.2146 72.103 23.8194 72.103 23.41C72.103 23.0005 72.2605 22.6053 72.5455 22.2997C72.6914 22.1532 72.8679 22.0378 73.0635 21.9608C73.2592 21.8839 73.4696 21.8472 73.681 21.8532C73.8897 21.8464 74.0976 21.8821 74.2908 21.9578C74.484 22.0336 74.6582 22.1477 74.8018 22.2926C74.9519 22.4397 75.0688 22.6146 75.1453 22.8066C75.2218 22.9986 75.2563 23.2035 75.2467 23.4088H75.2393ZM24.9348 24.9268H24.4949L22.9194 22.5981C22.9121 22.5828 22.9039 22.5679 22.8948 22.5535C22.8796 22.5357 22.8672 22.5159 22.858 22.4947C22.8225 22.4376 22.7936 22.3769 22.7719 22.3138V24.8986H22.3836V21.9143H22.8899L24.4359 24.203L24.4605 24.2383C24.4676 24.2481 24.4741 24.2583 24.4801 24.2688C24.4801 24.2829 24.4949 24.3017 24.5022 24.3252C24.5119 24.3541 24.5234 24.3823 24.5367 24.4098C24.5367 24.4098 24.5367 24.4239 24.5367 24.4286C24.5357 24.4372 24.5357 24.4459 24.5367 24.4544V21.9143H24.9225L24.9348 24.9268ZM26.3554 24.9009H25.9671V21.9143H26.3554V24.9009ZM31.9519 24.908H30.1528V21.9143H31.9077V22.2268H30.5411V23.2231H31.6717V23.5357H30.5411V24.5884H31.9519V24.908ZM34.8128 24.908H34.368L33.5077 23.6273H33.0899V24.908H32.704V21.9143H33.6552C33.7486 21.9143 33.8346 21.9143 33.901 21.9143C33.9647 21.9236 34.0279 21.9362 34.0902 21.9519C34.1448 21.9679 34.1969 21.9908 34.2451 22.02C34.295 22.0532 34.3426 22.0893 34.3876 22.1281C34.4688 22.2036 34.5325 22.2944 34.5748 22.3947C34.6172 22.4951 34.6371 22.6028 34.6334 22.7109C34.6364 22.8271 34.6134 22.9425 34.566 23.0495C34.5185 23.1565 34.4476 23.2526 34.3581 23.3312C34.2283 23.4521 34.0642 23.5338 33.8862 23.5662L34.8128 24.908ZM38.3792 24.908H37.9908V21.9143H38.3792V24.908ZM42.029 23.3947C42.0307 23.789 41.8812 24.1702 41.6088 24.4662C41.48 24.6129 41.3166 24.7281 41.1319 24.8022C40.9138 24.8736 40.684 24.907 40.4536 24.9009H39.4188V21.9143H40.4585C40.6636 21.9083 40.8678 21.9413 41.0594 22.0115C41.251 22.0817 41.426 22.1876 41.5743 22.3232C41.7251 22.4609 41.8435 22.6276 41.9219 22.8123C42.0003 22.997 42.0368 23.1955 42.029 23.3947ZM45.0325 24.908H44.6171L44.2952 24.0268H43.0318L42.7099 24.908H42.2945L43.457 21.8368H43.8749L45.0325 24.908ZM48.1982 23.4017C48.2001 23.7965 48.0496 24.178 47.7755 24.4732C47.6476 24.6207 47.4839 24.7361 47.2986 24.8093C47.0814 24.8808 46.8524 24.9143 46.6227 24.908H45.5855V21.9143H46.6277C46.8343 21.9073 47.0404 21.9398 47.2337 22.01C47.427 22.0802 47.6037 22.1867 47.7533 22.3232C47.9023 22.4617 48.0189 22.6288 48.0956 22.8135C48.1722 22.9981 48.2072 23.1962 48.1982 23.3947V23.4017ZM50.747 24.908H48.9503V21.9143H50.7052V22.2268H49.3386V23.2231H50.4668V23.5357H49.3386V24.5884H50.747V24.908ZM55.3013 23.3947C55.3033 23.7894 55.1527 24.171 54.8786 24.4662C54.7507 24.6137 54.587 24.7291 54.4018 24.8022C54.1845 24.8736 53.9555 24.907 53.7259 24.9009H52.6887V21.9143H53.7308C53.9362 21.9082 54.1409 21.9412 54.3329 22.0114C54.5249 22.0816 54.7003 22.1876 54.8491 22.3232C54.9994 22.4611 55.1174 22.6279 55.1953 22.8126C55.2733 22.9973 55.3094 23.1957 55.3013 23.3947ZM62.8199 22.7931C62.8225 22.9352 62.7966 23.0763 62.7437 23.209C62.695 23.3309 62.6186 23.4409 62.52 23.531C62.4233 23.6196 62.3087 23.6883 62.1833 23.7331C62.0343 23.7839 61.8769 23.8085 61.7187 23.8059H61.5393L61.237 23.7801V24.908H60.8487V21.9143H61.8318C61.9688 21.9025 62.1069 21.9172 62.2378 21.9575C62.3687 21.9979 62.4898 22.0631 62.5937 22.1493C62.674 22.237 62.7353 22.3391 62.7741 22.4496C62.8129 22.5601 62.8284 22.6769 62.8199 22.7931ZM69.1856 24.908H68.7408L67.8805 23.6273H67.4652V24.908H67.0768V21.9143H68.028C68.1214 21.9143 68.2074 21.9143 68.2738 21.9143C68.3376 21.9232 68.4008 21.9357 68.463 21.9519C68.5176 21.9679 68.5697 21.9908 68.6179 22.02C68.6677 22.0532 68.7154 22.0893 68.7604 22.1281C68.8415 22.2036 68.9053 22.2944 68.9476 22.3947C68.9899 22.4951 69.0099 22.6028 69.0062 22.7109C69.0092 22.8271 68.9862 22.9425 68.9387 23.0495C68.8913 23.1565 68.8204 23.2526 68.7309 23.3312C68.6011 23.4521 68.437 23.5338 68.259 23.5662L69.1856 24.908ZM71.8303 22.2339H70.7857V24.908H70.3974V22.2268H69.3601V21.9143H71.8303V22.2339ZM58.4769 23.4088C58.4801 23.0949 58.3599 22.7913 58.1401 22.5582C58.0419 22.4452 57.9188 22.3544 57.7797 22.292C57.6406 22.2296 57.4888 22.1973 57.3352 22.1973C57.1816 22.1973 57.0298 22.2296 56.8907 22.292C56.7516 22.3544 56.6285 22.4452 56.5303 22.5582C56.3129 22.7979 56.1932 23.1045 56.1932 23.4217C56.1932 23.739 56.3129 24.0456 56.5303 24.2853C56.6295 24.3972 56.753 24.487 56.8922 24.5487C57.0314 24.6104 57.183 24.6423 57.3364 24.6423C57.4899 24.6423 57.6414 24.6104 57.7807 24.5487C57.9199 24.487 58.0434 24.3972 58.1426 24.2853C58.3675 24.0449 58.4872 23.7311 58.4769 23.4088ZM65.8995 23.4088C65.9015 23.0951 65.7815 22.7919 65.5628 22.5582C65.4645 22.4448 65.3414 22.3536 65.202 22.291C65.0627 22.2283 64.9106 22.1959 64.7566 22.1959C64.6027 22.1959 64.4506 22.2283 64.3112 22.291C64.1719 22.3536 64.0487 22.4448 63.9505 22.5582C63.7331 22.7979 63.6134 23.1045 63.6134 23.4217C63.6134 23.739 63.7331 24.0456 63.9505 24.2853C64.0497 24.3972 64.1732 24.487 64.3124 24.5487C64.4516 24.6104 64.6032 24.6423 64.7566 24.6423C64.9101 24.6423 65.0616 24.6104 65.2009 24.5487C65.3401 24.487 65.4636 24.3972 65.5628 24.2853C65.7875 24.0446 65.9079 23.7312 65.8995 23.4088ZM74.819 23.4088C74.8219 23.0954 74.7028 22.7922 74.4847 22.5582C74.3865 22.4448 74.2633 22.3536 74.1239 22.291C73.9846 22.2283 73.8325 22.1959 73.6786 22.1959C73.5246 22.1959 73.3725 22.2283 73.2332 22.291C73.0938 22.3536 72.9706 22.4448 72.8724 22.5582C72.655 22.7979 72.5353 23.1045 72.5353 23.4217C72.5353 23.739 72.655 24.0456 72.8724 24.2853C72.9716 24.3972 73.0951 24.487 73.2343 24.5487C73.3735 24.6104 73.5251 24.6423 73.6786 24.6423C73.832 24.6423 73.9836 24.6104 74.1228 24.5487C74.262 24.487 74.3855 24.3972 74.4847 24.2853C74.7087 24.0444 74.8283 23.731 74.819 23.4088ZM41.6137 23.39C41.6185 23.2356 41.5897 23.082 41.5292 22.9388C41.4687 22.7956 41.3778 22.666 41.2622 22.5582C41.1483 22.4477 41.0118 22.3609 40.8613 22.3031C40.7107 22.2453 40.5494 22.2177 40.3872 22.2221H39.7973V24.5719H40.3872C40.5396 24.5848 40.6932 24.5675 40.8382 24.521C40.9833 24.4745 41.1168 24.3998 41.2303 24.3017C41.289 24.2405 41.3409 24.1735 41.3851 24.102C41.4346 24.028 41.4758 23.9492 41.508 23.867C41.5405 23.7861 41.566 23.7028 41.5842 23.6179C41.6019 23.5431 41.6118 23.4667 41.6137 23.39ZM47.7902 23.39C47.7942 23.2355 47.7649 23.0819 47.704 22.9388C47.6431 22.7957 47.5519 22.6661 47.4363 22.5582C47.3221 22.4481 47.1856 22.3615 47.0351 22.3037C46.8846 22.2459 46.7234 22.2182 46.5613 22.2221H45.969V24.5719H46.5613C46.7133 24.5848 46.8665 24.5674 47.0111 24.5209C47.1558 24.4744 47.2888 24.3998 47.4019 24.3017C47.4614 24.2405 47.5141 24.1736 47.5592 24.102C47.6066 24.0269 47.6477 23.9483 47.6821 23.867C47.7134 23.7857 47.7389 23.7025 47.7583 23.6179C47.7758 23.543 47.7865 23.4667 47.7902 23.39ZM54.886 23.39C54.8906 23.2359 54.8621 23.0825 54.802 22.9393C54.742 22.7962 54.6517 22.6665 54.537 22.5582C54.4228 22.4481 54.2862 22.3615 54.1358 22.3037C53.9853 22.2459 53.8241 22.2182 53.662 22.2221H53.0696V24.5719H53.662C53.814 24.5848 53.9672 24.5674 54.1118 24.5209C54.2565 24.4744 54.3895 24.3998 54.5025 24.3017C54.5614 24.2399 54.614 24.1731 54.6599 24.102C54.7073 24.0269 54.7484 23.9483 54.7827 23.867C54.8144 23.786 54.8391 23.7027 54.8565 23.6179C54.8742 23.5431 54.8841 23.4667 54.886 23.39ZM44.1723 23.679L43.666 22.3232L43.1547 23.6884L44.1723 23.679ZM62.4291 22.8213C62.435 22.7358 62.4225 22.6499 62.3925 22.5691C62.3625 22.4883 62.3156 22.4142 62.2546 22.3514C62.1138 22.2503 61.9378 22.2049 61.763 22.2245H61.2247V23.4558C61.3626 23.4717 61.5012 23.4803 61.6401 23.4816C61.7789 23.4894 61.9178 23.4694 62.0481 23.4229C62.1632 23.3758 62.2585 23.293 62.3185 23.1879C62.3899 23.0778 62.4281 22.9509 62.4291 22.8213ZM34.2303 22.725C34.2373 22.6486 34.2256 22.5717 34.1961 22.5003C34.1667 22.429 34.1204 22.3651 34.0608 22.3138C33.9225 22.2399 33.7634 22.2095 33.6061 22.2268H33.0997V23.3077H33.6061C33.6889 23.3186 33.7732 23.311 33.8524 23.2855C33.9316 23.2601 34.0037 23.2175 34.0629 23.1612C34.1221 23.1048 34.1669 23.0361 34.1938 22.9604C34.2207 22.8848 34.229 22.8042 34.2181 22.725H34.2303ZM68.6081 22.725C68.6147 22.6484 68.6026 22.5714 68.5727 22.5C68.5429 22.4286 68.4961 22.3649 68.436 22.3138C68.2986 22.2401 68.1403 22.2096 67.9838 22.2268H67.4774V23.3077H67.9838C68.0665 23.3181 68.1506 23.3101 68.2296 23.2845C68.3086 23.2589 68.3804 23.2164 68.4395 23.1601C68.4986 23.1038 68.5434 23.0353 68.5705 22.9599C68.5976 22.8845 68.6062 22.8041 68.5958 22.725H68.6081Z" fill="white"/>
</g>
<defs>
<clipPath id="clip0_18_266">
<rect width="80" height="30" fill="white"/>
</clipPath>
</defs>
</svg>
