<svg width="80" height="21" viewBox="0 0 80 21" fill="none" xmlns="http://www.w3.org/2000/svg">
<g clip-path="url(#clip0_18_312)">
<path d="M36.3608 6.92801V3.16479H38.7285V3.67067H36.9528V4.76262H38.5654V5.2685H36.9528V6.92185H36.3608V6.92801Z" fill="white"/>
<path d="M41.2169 6.45298H41.1928C41.078 6.74293 40.8545 6.9897 40.4076 6.9897C39.8579 6.9897 39.4895 6.60721 39.4895 5.93476V4.14569H40.0633V5.84839C40.0633 6.29258 40.2566 6.5085 40.625 6.5085C40.921 6.5085 41.2169 6.35427 41.2169 6.0273V4.14569H41.7907V6.92801H41.2169V6.45298Z" fill="white"/>
<path d="M42.6787 6.92799V4.14568H43.2525V4.62071H43.2767C43.3914 4.33075 43.6149 4.08398 44.0619 4.08398C44.6115 4.08398 44.98 4.46648 44.98 5.13892V6.92799H44.4062V5.22529C44.4062 4.78111 44.2129 4.56518 43.8444 4.56518C43.5485 4.56518 43.2525 4.71941 43.2525 5.04638V6.93416H42.6787V6.92799Z" fill="white"/>
<path d="M47.5772 6.45297H47.547C47.3899 6.78611 47.1242 6.9897 46.7255 6.9897C46.0853 6.9897 45.6746 6.48999 45.6746 5.53376C45.6746 4.57753 46.0853 4.07783 46.7255 4.07783C47.1242 4.07783 47.3899 4.28141 47.547 4.61455H47.5772V2.93652H48.151V6.92183H47.5772V6.45297ZM47.5772 5.99645V5.07107C47.5772 4.73176 47.2933 4.55903 46.9611 4.55903C46.5262 4.55903 46.2786 4.85515 46.2786 5.3055V5.75585C46.2786 6.20621 46.5262 6.50233 46.9611 6.50233C47.2872 6.5085 47.5772 6.33576 47.5772 5.99645Z" fill="white"/>
<path d="M51.159 6.928C50.8328 6.928 50.6697 6.73675 50.6395 6.45914H50.6154C50.5127 6.79227 50.2228 6.98969 49.8 6.98969C49.2443 6.98969 48.8879 6.66889 48.8879 6.15068C48.8879 5.61395 49.2745 5.31783 50.0778 5.31783H50.5973V5.10191C50.5973 4.73176 50.404 4.53434 50.0114 4.53434C49.6611 4.53434 49.4557 4.6824 49.3107 4.91683L48.9665 4.63305C49.1175 4.33076 49.4859 4.07782 50.0657 4.07782C50.7543 4.07782 51.1711 4.42946 51.1711 5.06489V6.45914H51.5153V6.92183H51.159V6.928ZM50.5973 6.09515V5.68798H50.0839C49.6611 5.68798 49.4617 5.82371 49.4617 6.07048V6.17535C49.4617 6.42212 49.649 6.55167 49.957 6.55167C50.3255 6.55784 50.5973 6.37277 50.5973 6.09515Z" fill="white"/>
<path d="M54.4689 4.73793L54.0219 4.9847C53.9253 4.72559 53.726 4.56519 53.4119 4.56519C52.977 4.56519 52.7233 4.86131 52.7233 5.3055V5.76819C52.7233 6.2062 52.971 6.50849 53.4179 6.50849C53.7562 6.50849 53.9615 6.33576 54.0884 6.06431L54.5112 6.32959C54.342 6.71208 54.0038 6.97735 53.4602 6.98969L53.4058 7.23646L53.424 7.25497C53.4964 7.23646 53.575 7.21795 53.6535 7.21795C53.8588 7.21795 54.0219 7.33517 54.0219 7.58194C54.0219 7.90891 53.7199 8.04463 53.3877 8.04463C53.0736 8.04463 52.8924 7.92124 52.8139 7.81637L53.0314 7.56343C53.0918 7.64363 53.2065 7.71149 53.3636 7.71149C53.4964 7.71149 53.5931 7.66214 53.5931 7.55726C53.5931 7.47089 53.5327 7.37835 53.2186 7.34134L53.0857 7.32283L53.1582 6.95885C52.4998 6.85397 52.1133 6.31725 52.1133 5.52759C52.1133 4.63922 52.5965 4.07166 53.3998 4.07166C53.9676 4.07782 54.2998 4.34927 54.4689 4.73793Z" fill="white"/>
<path d="M57.4888 6.92803C57.1627 6.92803 56.9996 6.73679 56.9694 6.45917H56.9452C56.8425 6.79231 56.5526 6.98973 56.1298 6.98973C55.5741 6.98973 55.2178 6.66893 55.2178 6.15071C55.2178 5.61399 55.6043 5.31787 56.4077 5.31787H56.9271V5.10195C56.9271 4.73179 56.7338 4.53438 56.3412 4.53438C55.9909 4.53438 55.7855 4.68244 55.6406 4.91687L55.2963 4.63309C55.4473 4.33079 55.8157 4.07786 56.3956 4.07786C57.0841 4.07786 57.5009 4.4295 57.5009 5.06493V6.45917H57.8452V6.92186H57.4888V6.92803ZM56.3895 3.5473C56.2325 3.4671 56.1117 3.42392 55.9969 3.42392C55.8822 3.42392 55.7976 3.47327 55.6889 3.56581L55.4715 3.2882C55.5741 3.12163 55.7553 2.97974 56.0151 2.97974C56.1902 2.97974 56.311 3.04143 56.4258 3.10312C56.5828 3.18332 56.7036 3.2265 56.8184 3.2265C56.9331 3.2265 57.0177 3.17715 57.1264 3.08461L57.3439 3.36223C57.2412 3.5288 57.06 3.67069 56.8003 3.67069C56.6251 3.67069 56.5043 3.609 56.3895 3.5473ZM56.9271 6.09519V5.68802H56.4137C55.9909 5.68802 55.7916 5.82374 55.7916 6.07051V6.17539C55.7916 6.42216 55.9788 6.55171 56.2869 6.55171C56.6553 6.55788 56.9271 6.3728 56.9271 6.09519Z" fill="white"/>
<path d="M58.3525 5.53375C58.3525 4.64539 58.8418 4.07782 59.6451 4.07782C60.4484 4.07782 60.9377 4.64539 60.9377 5.53375C60.9377 6.42212 60.4484 6.98969 59.6451 6.98969C58.8418 6.98969 58.3525 6.42212 58.3525 5.53375ZM60.3337 5.74351V5.324C60.3337 4.80579 60.0619 4.54051 59.6451 4.54051C59.2283 4.54051 58.9565 4.80579 58.9565 5.324V5.74351C58.9565 6.26172 59.2283 6.527 59.6451 6.527C60.0619 6.527 60.3337 6.26172 60.3337 5.74351Z" fill="white"/>
<path d="M36.3247 10.611H36.8985V11.086H36.9287C37.0857 10.7529 37.3515 10.5493 37.7501 10.5493C38.3904 10.5493 38.8011 11.049 38.8011 12.0053C38.8011 12.9615 38.3904 13.4612 37.7501 13.4612C37.3515 13.4612 37.0857 13.2576 36.9287 12.9245H36.8985V14.4791H36.3247V10.611ZM38.1971 12.2273V11.777C38.1971 11.3266 37.9495 11.0305 37.5146 11.0305C37.1824 11.0305 36.8985 11.2033 36.8985 11.5426V12.4679C36.8985 12.8072 37.1824 12.98 37.5146 12.98C37.9495 12.9738 38.1971 12.6777 38.1971 12.2273Z" fill="white"/>
<path d="M41.6639 13.3933C41.3377 13.3933 41.1746 13.2021 41.1444 12.9245H41.1203C41.0176 13.2576 40.7277 13.455 40.3049 13.455C39.7492 13.455 39.3928 13.1342 39.3928 12.616C39.3928 12.0793 39.7794 11.7832 40.5827 11.7832H41.1021V11.5672C41.1021 11.1971 40.9089 10.9997 40.5163 10.9997C40.1659 10.9997 39.9606 11.1477 39.8156 11.3822L39.4713 11.0984C39.6223 10.7961 39.9908 10.5432 40.5706 10.5432C41.2592 10.5432 41.6759 10.8948 41.6759 11.5302V12.9245H42.0202V13.3872H41.6639V13.3933ZM41.1021 12.5605V12.1533H40.5887C40.1659 12.1533 39.9666 12.289 39.9666 12.5358V12.6407C39.9666 12.8875 40.1539 13.017 40.4619 13.017C40.8303 13.0232 41.1021 12.8381 41.1021 12.5605Z" fill="white"/>
<path d="M42.6364 12.9183H43.3612V11.0861H42.6364V10.611H43.935V11.3513H43.9652C44.0679 10.9627 44.3095 10.611 44.8591 10.611H45.1853V11.1724H44.6477C44.1766 11.1724 43.929 11.4932 43.929 11.8757V12.9183H44.9135V13.3933H42.6304V12.9183H42.6364Z" fill="white"/>
<path d="M47.9939 13.3933C47.6678 13.3933 47.5047 13.2021 47.4745 12.9245H47.4503C47.3477 13.2576 47.0577 13.455 46.6349 13.455C46.0793 13.455 45.7229 13.1342 45.7229 12.616C45.7229 12.0793 46.1095 11.7832 46.9128 11.7832H47.4322V11.5672C47.4322 11.1971 47.2389 10.9997 46.8463 10.9997C46.496 10.9997 46.2907 11.1477 46.1457 11.3822L45.8014 11.0984C45.9524 10.7961 46.3209 10.5432 46.9007 10.5432C47.5893 10.5432 48.006 10.8948 48.006 11.5302V12.9245H48.3503V13.3872H47.9939V13.3933ZM47.4322 12.5605V12.1533H46.9188C46.496 12.1533 46.2967 12.289 46.2967 12.5358V12.6407C46.2967 12.8875 46.4839 13.017 46.792 13.017C47.1604 13.0232 47.4322 12.8381 47.4322 12.5605Z" fill="white"/>
<path d="M54.3238 13.3933C53.9976 13.3933 53.8345 13.2021 53.8043 12.9245H53.7802C53.6775 13.2576 53.3876 13.455 52.9648 13.455C52.4091 13.455 52.0527 13.1342 52.0527 12.616C52.0527 12.0793 52.4393 11.7832 53.2426 11.7832H53.7621V11.5672C53.7621 11.1971 53.5688 10.9997 53.1762 10.9997C52.8259 10.9997 52.6205 11.1477 52.4755 11.3822L52.1313 11.0984C52.2823 10.7961 52.6507 10.5432 53.2305 10.5432C53.9191 10.5432 54.3359 10.8948 54.3359 11.5302V12.9245H54.6801V13.3872H54.3238V13.3933ZM53.7621 12.5605V12.1533H53.2487C52.8259 12.1533 52.6265 12.289 52.6265 12.5358V12.6407C52.6265 12.8875 52.8138 13.017 53.1218 13.017C53.4903 13.0232 53.7621 12.8381 53.7621 12.5605Z" fill="white"/>
<path d="M58.3645 11.5117C58.3645 10.2655 58.8115 9.56842 59.7477 9.56842C60.4604 9.56842 60.7865 9.98793 60.9557 10.5L60.4241 10.685C60.3154 10.3396 60.1584 10.0681 59.7416 10.0681C59.2222 10.0681 58.9927 10.5061 58.9927 11.1971V11.8325C58.9927 12.5235 59.2222 12.9615 59.7416 12.9615C60.1584 12.9615 60.3094 12.69 60.4241 12.3446L60.9557 12.5296C60.7865 13.0417 60.4604 13.4612 59.7477 13.4612C58.8175 13.455 58.3645 12.7579 58.3645 11.5117Z" fill="white"/>
<path d="M61.759 12.9183H62.6892V11.086H61.759V10.611H63.263V12.9183H64.1328V13.3933H61.759V12.9183ZM62.5805 9.78432V9.67328C62.5805 9.49437 62.6832 9.35248 62.9731 9.35248C63.263 9.35248 63.3717 9.49437 63.3717 9.67328V9.78432C63.3717 9.96323 63.269 10.1051 62.9791 10.1051C62.6892 10.1051 62.5805 9.96323 62.5805 9.78432Z" fill="white"/>
<path d="M64.7065 12.0053C64.7065 11.1107 65.2139 10.5432 65.987 10.5432C66.7541 10.5432 67.2373 11.1046 67.2373 11.9251V12.1472H65.2864V12.2397C65.2864 12.6777 65.5703 12.9862 66.0414 12.9862C66.3917 12.9862 66.6454 12.8196 66.7964 12.5605L67.1527 12.8813C66.9655 13.2021 66.591 13.455 66.0293 13.455C65.1958 13.455 64.7065 12.8875 64.7065 12.0053ZM66.2709 9.22296L66.9051 10.0311L66.5971 10.2594L65.9749 9.6363L65.3468 10.2594L65.0569 10.0311L65.6911 9.22296H66.2709ZM65.2864 11.7338V11.7708H66.6514V11.7153C66.6514 11.2773 66.3857 10.9935 65.987 10.9935C65.5763 10.9935 65.2864 11.302 65.2864 11.7338Z" fill="white"/>
<path d="M67.9985 13.3933V10.611H68.5723V11.086H68.5965C68.7113 10.7961 68.9347 10.5493 69.3817 10.5493C69.9313 10.5493 70.2998 10.9318 70.2998 11.6043V13.3933H69.726V11.6906C69.726 11.2464 69.5327 11.0305 69.1643 11.0305C68.8683 11.0305 68.5723 11.1847 68.5723 11.5117V13.3995H67.9985V13.3933Z" fill="white"/>
<path d="M71.1091 11.9991C71.1091 11.1107 71.5923 10.5432 72.3956 10.5432C72.9574 10.5432 73.2896 10.8146 73.4587 11.2033L73.0117 11.45C72.9151 11.1909 72.7158 11.0305 72.4017 11.0305C71.9668 11.0305 71.7131 11.3266 71.7131 11.7708V12.2335C71.7131 12.6715 71.9608 12.9738 72.4077 12.9738C72.746 12.9738 72.9513 12.8011 73.0782 12.5296L73.501 12.7949C73.3258 13.1836 72.9755 13.455 72.4017 13.455C71.5923 13.455 71.1091 12.8875 71.1091 11.9991Z" fill="white"/>
<path d="M74.4189 12.9183H75.3491V11.086H74.4189V10.611H75.9229V12.9183H76.7927V13.3933H74.4189V12.9183ZM75.2404 9.78432V9.67328C75.2404 9.49437 75.3431 9.35248 75.633 9.35248C75.9229 9.35248 76.0316 9.49437 76.0316 9.67328V9.78432C76.0316 9.96323 75.929 10.1051 75.639 10.1051C75.3491 10.1051 75.2404 9.96323 75.2404 9.78432Z" fill="white"/>
<path d="M79.6436 13.3933C79.3174 13.3933 79.1544 13.2021 79.1242 12.9245H79.1C78.9973 13.2576 78.7074 13.455 78.2846 13.455C77.7289 13.455 77.3726 13.1342 77.3726 12.616C77.3726 12.0793 77.7591 11.7832 78.5624 11.7832H79.0819V11.5672C79.0819 11.1971 78.8886 10.9997 78.496 10.9997C78.1457 10.9997 77.9403 11.1477 77.7954 11.3822L77.4511 11.0984C77.6021 10.7961 77.9705 10.5432 78.5504 10.5432C79.2389 10.5432 79.6557 10.8948 79.6557 11.5302V12.9245H80V13.3872H79.6436V13.3933ZM79.0819 12.5605V12.1533H78.5685C78.1457 12.1533 77.9464 12.289 77.9464 12.5358V12.6407C77.9464 12.8875 78.1336 13.017 78.4416 13.017C78.8101 13.0232 79.0819 12.8381 79.0819 12.5605Z" fill="white"/>
<path d="M36.2219 18.4706C36.2219 17.5761 36.7293 17.0085 37.5024 17.0085C38.2695 17.0085 38.7527 17.5699 38.7527 18.3904V18.6125H36.8018V18.705C36.8018 19.143 37.0856 19.4515 37.5568 19.4515C37.9071 19.4515 38.1608 19.2849 38.3118 19.0258L38.6681 19.3466C38.4809 19.6674 38.1064 19.9204 37.5447 19.9204C36.7112 19.9204 36.2219 19.3528 36.2219 18.4706ZM36.8018 18.1991V18.2362H38.1668V18.1806C38.1668 17.7426 37.901 17.4588 37.5024 17.4588C37.0917 17.4588 36.8018 17.7673 36.8018 18.1991Z" fill="white"/>
<path d="M44.8289 19.8587C44.5027 19.8587 44.3397 19.6674 44.3095 19.3898H44.2853C44.1826 19.7229 43.8927 19.9204 43.4699 19.9204C42.9142 19.9204 42.5579 19.5996 42.5579 19.0813C42.5579 18.5446 42.9444 18.2485 43.7477 18.2485H44.2672V18.0326C44.2672 17.6624 44.0739 17.465 43.6813 17.465C43.331 17.465 43.1256 17.6131 42.9807 17.8475L42.6364 17.5637C42.7874 17.2614 43.1558 17.0085 43.7357 17.0085C44.4242 17.0085 44.841 17.3601 44.841 17.9956V19.3898H45.1853V19.8525H44.8289V19.8587ZM44.2672 19.0258V18.6186H43.7538C43.331 18.6186 43.1317 18.7544 43.1317 19.0011V19.106C43.1317 19.3528 43.3189 19.4823 43.6269 19.4823C43.9954 19.4885 44.2672 19.3034 44.2672 19.0258Z" fill="white"/>
<path d="M50.4462 16.6013V19.8587H49.8543V16.6013H48.7007V16.0955H51.5999V16.6013H50.4462Z" fill="white"/>
<path d="M52.0469 18.4706C52.0469 17.5761 52.5542 17.0085 53.3274 17.0085C54.0944 17.0085 54.5776 17.5699 54.5776 18.3904V18.6125H52.6267V18.705C52.6267 19.143 52.9106 19.4515 53.3817 19.4515C53.732 19.4515 53.9857 19.2849 54.1367 19.0258L54.4931 19.3466C54.3058 19.6674 53.9314 19.9204 53.3696 19.9204C52.5361 19.9204 52.0469 19.3528 52.0469 18.4706ZM52.6267 18.1991V18.2362H53.9918V18.1806C53.9918 17.7426 53.726 17.4588 53.3274 17.4588C52.9166 17.4588 52.6267 17.7673 52.6267 18.1991Z" fill="white"/>
<path d="M55.2842 18.4644C55.2842 17.576 55.7674 17.0085 56.5707 17.0085C57.1324 17.0085 57.4646 17.2799 57.6337 17.6686L57.1868 17.9154C57.0901 17.6563 56.8908 17.4959 56.5767 17.4959C56.1419 17.4959 55.8882 17.792 55.8882 18.2362V18.6988C55.8882 19.1369 56.1358 19.4392 56.5828 19.4392C56.921 19.4392 57.1264 19.2664 57.2532 18.995L57.676 19.2602C57.5009 19.6489 57.1505 19.9204 56.5767 19.9204C55.7674 19.9204 55.2842 19.3528 55.2842 18.4644Z" fill="white"/>
<path d="M58.5034 19.8587V17.0763H59.0772V17.5514H59.1014C59.2161 17.2614 59.4396 17.0146 59.8866 17.0146C60.4362 17.0146 60.8047 17.3971 60.8047 18.0696V19.8587H60.2309V18.156C60.2309 17.7118 60.0376 17.4958 59.6691 17.4958C59.3732 17.4958 59.0772 17.6501 59.0772 17.977V19.8648H58.5034V19.8587Z" fill="white"/>
<path d="M61.5176 18.4644C61.5176 17.576 62.0068 17.0085 62.8101 17.0085C63.6135 17.0085 64.1027 17.576 64.1027 18.4644C64.1027 19.3528 63.6135 19.9204 62.8101 19.9204C62.0068 19.9204 61.5176 19.3528 61.5176 18.4644ZM63.4987 18.6742V18.2547C63.4987 17.7364 63.2269 17.4712 62.8101 17.4712C62.3934 17.4712 62.1216 17.7364 62.1216 18.2547V18.6742C62.1216 19.1924 62.3934 19.4577 62.8101 19.4577C63.2269 19.4577 63.4987 19.1924 63.4987 18.6742Z" fill="white"/>
<path d="M64.7852 19.3836H65.6851V16.3422H64.7852V15.8672H66.265V19.3775H67.1649V19.8525H64.7852V19.3836Z" fill="white"/>
<path d="M67.8474 18.4644C67.8474 17.576 68.3366 17.0085 69.14 17.0085C69.9433 17.0085 70.4325 17.576 70.4325 18.4644C70.4325 19.3528 69.9433 19.9204 69.14 19.9204C68.3366 19.9204 67.8474 19.3528 67.8474 18.4644ZM69.8285 18.6742V18.2547C69.8285 17.7364 69.5567 17.4712 69.14 17.4712C68.7232 17.4712 68.4514 17.7364 68.4514 18.2547V18.6742C68.4514 19.1924 68.7232 19.4577 69.14 19.4577C69.5567 19.4577 69.8285 19.1924 69.8285 18.6742Z" fill="white"/>
<path d="M72.2989 21C71.3627 21 71.0305 20.7471 71.0305 20.3337C71.0305 20.0314 71.2057 19.8772 71.5077 19.797V19.7415C71.3204 19.6736 71.2057 19.5502 71.2057 19.3343C71.2057 19.0567 71.411 18.9333 71.6949 18.8655V18.8408C71.3688 18.6865 71.1755 18.3904 71.1755 17.9894C71.1755 17.3972 71.6104 17.0147 72.2808 17.0147C72.468 17.0147 72.6432 17.0455 72.7942 17.1072V17.0147C72.7942 16.7988 72.915 16.6384 73.1566 16.6384H73.6519V17.1011H73.0177V17.2306C73.2532 17.3972 73.3861 17.6563 73.3861 17.9894C73.3861 18.5817 72.9512 18.958 72.2808 18.958C72.16 18.958 72.0513 18.9457 71.9426 18.9271C71.8157 18.958 71.6587 19.0444 71.6587 19.1986C71.6587 19.3713 71.8459 19.3898 72.0815 19.3898H72.6915C73.4224 19.3898 73.7244 19.7045 73.7244 20.161C73.7304 20.7286 73.2593 21 72.2989 21ZM72.6794 19.8895H71.7372C71.6043 19.9512 71.5379 20.0561 71.5379 20.2042C71.5379 20.4139 71.6949 20.5867 72.0996 20.5867H72.5284C72.9633 20.5867 73.1989 20.4509 73.1989 20.198C73.1868 20.0068 73.06 19.8895 72.6794 19.8895ZM72.8244 18.0573V17.9092C72.8244 17.6131 72.6492 17.4157 72.2808 17.4157C71.9124 17.4157 71.7372 17.6131 71.7372 17.9092V18.0573C71.7372 18.3534 71.9124 18.5508 72.2808 18.5508C72.6492 18.5508 72.8244 18.3534 72.8244 18.0573Z" fill="white"/>
<path d="M74.4189 19.3836H75.3491V17.5514H74.4189V17.0763H75.9229V19.3836H76.7927V19.8586H74.4189V19.3836ZM75.2404 16.2497V16.1386C75.2404 15.9597 75.3431 15.8178 75.633 15.8178C75.9229 15.8178 76.0316 15.9597 76.0316 16.1386V16.2497C76.0316 16.4286 75.929 16.5705 75.639 16.5705C75.3491 16.5705 75.2404 16.4286 75.2404 16.2497Z" fill="white"/>
<path d="M79.6436 19.8587C79.3174 19.8587 79.1544 19.6674 79.1242 19.3898H79.1C78.9973 19.7229 78.7074 19.9204 78.2846 19.9204C77.7289 19.9204 77.3726 19.5996 77.3726 19.0813C77.3726 18.5446 77.7591 18.2485 78.5624 18.2485H79.0819V18.0326C79.0819 17.6624 78.8886 17.465 78.496 17.465C78.1457 17.465 77.9403 17.6131 77.7954 17.8475L77.4511 17.5637C77.6021 17.2614 77.9705 17.0085 78.5504 17.0085C79.2389 17.0085 79.6557 17.3601 79.6557 17.9956V19.3898H80V19.8525H79.6436V19.8587ZM79.0819 19.0258V18.6186H78.5685C78.1457 18.6186 77.9464 18.7544 77.9464 19.0011V19.106C77.9464 19.3528 78.1336 19.4823 78.4416 19.4823C78.8101 19.4885 79.0819 19.3034 79.0819 19.0258Z" fill="white"/>
<path d="M5.34541 8.37165H9.42242V10.1607H5.34541V18.1375H9.42242V19.9266H0V18.1375H3.35825V10.1607H0V8.37165H2.63345C3.03209 8.37165 3.35825 8.03851 3.35825 7.63135V6.50238C3.35825 6.04586 3.53341 5.60784 3.85353 5.28088L5.73801 3.36225C6.05209 3.04145 6.48698 2.86871 6.93394 2.86871H9.42242V4.65162H5.34541V8.37165Z" fill="white"/>
<path d="M14.9792 2.86249H19.2374V4.65156H13.3665V13.3872H19.2374V15.1762H14.9792C14.5322 15.1762 14.1034 14.9973 13.7833 14.6704L11.8686 12.7147C11.5545 12.3939 11.3733 11.9497 11.3733 11.4932V6.53934C11.3733 6.08282 11.5485 5.6448 11.8686 5.31783L13.7833 3.36219C14.0973 3.04756 14.5322 2.86249 14.9792 2.86249Z" fill="white"/>
<path d="M24.3835 11.666V4.65776H21.0796V2.86868H23.6587C24.0573 2.86868 24.3835 2.53555 24.3835 2.12838V0H26.3706V2.86251H30.653V4.65159H26.3706V13.3872H30.653V15.1763H27.6028C27.1136 15.1763 26.6545 14.9603 26.3344 14.5902L24.8002 12.8011C24.5284 12.4865 24.3835 12.0793 24.3835 11.666Z" fill="white"/>
<path d="M30.647 18.1375H11.3733V19.9266H30.647V18.1375Z" fill="white"/>
</g>
<defs>
<clipPath id="clip0_18_312">
<rect width="80" height="21" fill="white"/>
</clipPath>
</defs>
</svg>
