<svg width="80" height="22" viewBox="0 0 80 22" fill="none" xmlns="http://www.w3.org/2000/svg">
<g clip-path="url(#clip0_18_8565)">
<path d="M0 12.7408C3.06171 11.1876 7.54667 8.67626 12.8704 5.00501V3.77271C8.18481 6.79343 3.42047 9.21893 0 10.8234V12.7408Z" fill="#179C7D"/>
<path d="M0 9.06094C3.40899 7.69235 8.17364 5.57791 12.8704 2.82516V2.2168C8.45612 4.37463 3.86977 5.72519 0 6.5673V9.06094Z" fill="#179C7D"/>
<path d="M12.8704 12.7468V6.54865C9.94012 8.9827 7.03811 11.0904 4.60059 12.7468H12.8704Z" fill="#179C7D"/>
<path d="M2.95506 12.7469C5.26978 11.3926 8.0794 9.62562 10.8775 7.56037C11.5303 7.0782 12.1969 6.58167 12.8707 6.06834V5.30017C8.72901 8.3597 4.50203 10.9102 1.19971 12.7469H2.95506Z" fill="#179C7D"/>
<path d="M0 5.6656C3.76434 5.01324 8.36992 3.8396 12.8704 1.73188V1.04102C8.33519 3.04729 3.79597 3.89796 0 4.20077V5.6656Z" fill="#179C7D"/>
<path d="M0 0V3.55056C0.28124 3.53344 0.567752 3.51358 0.860465 3.49128C3.99008 3.25417 8.26109 2.70906 12.8704 0.74525V0H0Z" fill="#179C7D"/>
<path d="M0 3.55054V4.20077C3.79597 3.89796 8.33519 3.04729 12.8704 1.04102V0.745239C8.2614 2.70904 3.99008 3.25416 0.860465 3.49127C0.567752 3.51388 0.28124 3.53343 0 3.55054Z" fill="white"/>
<path d="M0 6.56729C3.86977 5.72518 8.45612 4.37462 12.8704 2.21679V1.73218C8.36992 3.83959 3.76434 5.01323 0 5.66559V6.56729Z" fill="white"/>
<path d="M0 10.8234C3.42047 9.21895 8.18481 6.79345 12.8704 3.77272V2.8252C8.17364 5.57795 3.40899 7.69239 0 9.06097V10.8234Z" fill="white"/>
<path d="M2.95508 12.7469H4.60097C7.03849 11.0908 9.9405 8.98275 12.8707 6.54869V6.06836C12.1969 6.58169 11.5306 7.07822 10.8776 7.56039C8.07942 9.62564 5.26981 11.3927 2.95508 12.7469Z" fill="white"/>
<path d="M0 12.7469H1.19969C4.50202 10.9102 8.72899 8.36001 12.8704 5.30017V5.005C7.54667 8.67656 3.06171 11.1876 0 12.7408V12.7469Z" fill="white"/>
<path d="M75.6364 12.7408H77.2915V10.4387C77.2915 9.53825 77.2915 7.88153 78.6373 7.88153C78.934 7.88153 79.2314 7.92981 79.3799 8.01567V6.37239C79.2057 6.3235 79.0329 6.3235 78.8729 6.3235C77.8844 6.3235 77.205 7.31045 77.1312 7.89345H77.1058V6.47017H75.6367L75.6364 12.7408ZM73.9805 11.0608C73.3622 11.4012 72.6711 11.6943 71.8671 11.6943C70.8435 11.6943 70.1266 11.1219 70.0509 10.1099H74.4491C74.4491 7.9185 73.783 6.32381 71.4221 6.32381C69.4466 6.32381 68.4702 7.82103 68.4702 9.63542C68.4702 11.6943 69.6922 12.8868 71.7939 12.8868C72.6841 12.8868 73.374 12.7166 73.9809 12.3873L73.9805 11.0608ZM70.0506 8.99009C70.1263 8.14981 70.5939 7.517 71.521 7.517C72.4481 7.517 72.8196 8.199 72.868 8.99009H70.0506ZM64.7629 12.7408H66.4181V7.66245H67.863V6.46986H66.4181V5.69039C66.4181 5.20364 66.592 4.7282 67.1483 4.7282C67.5061 4.7282 67.7164 4.86264 67.863 4.9482L67.9998 3.59642C67.6795 3.52339 67.2094 3.46228 66.7892 3.46228C65.4791 3.46228 64.7629 4.33892 64.7629 5.59292V6.46986H63.5402V7.66245H64.7629V12.7408ZM58.1781 9.45239C58.1781 8.51495 58.6965 7.58942 59.7722 7.58942C60.8599 7.58942 61.3778 8.49081 61.3778 9.45239C61.3778 10.5001 61.0453 11.6203 59.7722 11.6203C58.5105 11.62 58.1781 10.4873 58.1781 9.45239ZM56.4472 9.64825C56.4472 11.4489 57.6717 12.8865 59.7722 12.8865C61.8844 12.8865 63.1074 11.4489 63.1074 9.64825C63.1074 7.57781 61.6636 6.32381 59.7722 6.32381C57.894 6.3235 56.4472 7.57781 56.4472 9.64825ZM49.5536 12.7408H51.21V9.67147C51.21 8.86847 51.4692 7.58942 52.6683 7.58942C53.7306 7.58942 53.7421 8.62495 53.7421 9.39159V12.7408H55.3967V8.78292C55.3967 7.37064 54.7421 6.3235 53.2357 6.3235C52.3709 6.3235 51.6543 6.71339 51.236 7.32206H51.21V3.60895H49.5536V12.7408ZM42.0057 12.7408H43.6602V9.67147C43.6602 8.86847 43.9207 7.58942 45.1185 7.58942C46.1809 7.58942 46.1929 8.62495 46.1929 9.39159V12.7408H47.85V8.78292C47.85 7.37064 47.1942 6.3235 45.6872 6.3235C44.8224 6.3235 44.1176 6.604 43.5991 7.32206H43.5731V6.46986H42.0057V12.7408ZM40.2996 6.47017H38.6432V9.53856C38.6432 10.3413 38.384 11.62 37.1855 11.62C36.1229 11.62 36.1105 10.5845 36.1105 9.81753V6.47017H34.455V10.4271C34.455 11.8391 35.1098 12.8865 36.6171 12.8865C37.4816 12.8865 38.1988 12.4976 38.7049 11.888H38.73V12.7408H40.2993V6.47017H40.2996ZM29.006 10.9264C29.006 9.96389 30.1055 9.84228 30.8472 9.84228H31.5641C31.5641 10.3299 31.49 10.7794 31.2178 11.1336C30.9585 11.4727 30.5638 11.6939 30.0568 11.6939C29.464 11.6939 29.006 11.4614 29.006 10.9264ZM28.1663 8.199C28.7222 7.78436 29.4261 7.517 30.1309 7.517C31.1064 7.517 31.5638 7.8577 31.5638 8.86878H30.6494C29.9579 8.86878 29.1421 8.92867 28.512 9.23361C27.8816 9.53856 27.4252 10.0861 27.4252 11.0245C27.4252 12.2164 28.5244 12.8865 29.6484 12.8865C30.4022 12.8865 31.2305 12.4976 31.6128 11.8033H31.6379C31.6509 11.9974 31.6509 12.4102 31.712 12.7408H33.1697C33.1328 12.2525 33.1083 11.814 33.0953 11.3395C33.0832 10.8772 33.0708 10.4024 33.0708 9.76895V8.96534C33.0708 7.11459 32.2677 6.3235 30.3281 6.3235C29.6236 6.3235 28.7591 6.50684 28.1164 6.79864L28.1663 8.199ZM23.1874 12.7408H24.8429V10.4387C24.8429 9.53825 24.8429 7.88153 26.1892 7.88153C26.486 7.88153 26.7824 7.92981 26.9312 8.01567V6.37239C26.7582 6.3235 26.5855 6.3235 26.4246 6.3235C25.4364 6.3235 24.7567 7.31045 24.6826 7.89345H24.6578V6.47017H23.1874V12.7408ZM17.2075 12.7408H18.9374V9.01392H21.8534V7.67467H18.9374V5.581H22.0016V4.24206H17.2075V12.7408Z" fill="white"/>
<path d="M47.6406 17.0705H48.6977C49.1678 17.0668 49.5715 17.1524 49.9101 17.3268C50.2527 17.5096 50.4279 17.853 50.4363 18.3566C50.4316 18.8436 50.2785 19.1907 49.9758 19.3982C49.6732 19.6093 49.2912 19.7126 48.8291 19.7083H48.4763V21.3232H47.6406V17.0705ZM48.4763 19.0383H48.7696C48.9885 19.0435 49.1758 18.9982 49.3309 18.9044C49.4822 18.8109 49.56 18.6441 49.564 18.4052C49.564 18.279 49.5442 18.1732 49.5042 18.0883C49.4602 18.0033 49.4025 17.9361 49.3309 17.8872C49.1798 17.7898 48.9926 17.7409 48.7696 17.7409H48.4763V19.0383Z" fill="white"/>
<path d="M51.0696 19.1846C51.0696 18.5225 51.2445 17.9948 51.5945 17.6006C51.9412 17.2028 52.4473 17.002 53.1127 16.9974C53.7735 17.0057 54.2792 17.2092 54.6299 17.6067C54.98 18.0006 55.1548 18.5267 55.1548 19.1843C55.1517 19.8388 54.9781 20.3662 54.6358 20.7683C54.2848 21.1787 53.7772 21.3877 53.1127 21.3962C52.4435 21.388 51.9378 21.1811 51.5945 20.7747C51.2448 20.3769 51.0696 19.8464 51.0696 19.1846ZM51.9415 19.1846C51.9378 19.5827 52.0271 19.9341 52.2107 20.2391C52.3933 20.5553 52.6947 20.7176 53.1127 20.7261C53.3273 20.7261 53.5102 20.6812 53.6618 20.5917C53.8131 20.5031 53.9328 20.3848 54.0203 20.2394C54.1952 19.9344 54.2829 19.583 54.2829 19.1849C54.2829 18.791 54.1936 18.4442 54.0147 18.1439C53.8268 17.835 53.5263 17.6767 53.1127 17.6681C52.7021 17.6764 52.4054 17.835 52.2228 18.1439C52.0355 18.4439 51.9415 18.7907 51.9415 19.1846Z" fill="white"/>
<path d="M56.0273 17.0704H56.93C57.1604 17.0704 57.3914 17.0732 57.6224 17.0769C57.8531 17.0888 58.0642 17.1294 58.2556 17.1985C58.4503 17.2635 58.6063 17.3772 58.7219 17.5401C58.8326 17.698 58.8906 17.9257 58.8952 18.2215C58.8952 18.4739 58.8193 18.6908 58.6683 18.8735C58.517 19.0562 58.3058 19.1684 58.0345 19.209V19.2209C58.1461 19.2332 58.2376 19.2845 58.3098 19.3731C58.3811 19.4626 58.4373 19.5583 58.4763 19.6597L59.1455 21.3225H58.2137L57.7126 19.9943C57.6605 19.8354 57.5948 19.722 57.5151 19.653C57.4314 19.5885 57.3039 19.5555 57.1331 19.5555H56.8639V21.3225H56.0277L56.0273 17.0704ZM56.8639 18.886H57.139C57.2466 18.886 57.3535 18.8787 57.4611 18.8619C57.5647 18.85 57.659 18.8234 57.7424 18.7828C57.8258 18.7421 57.8956 18.6832 57.9514 18.6059C57.9991 18.5252 58.0227 18.4213 58.0227 18.2957C58.0227 18.1655 57.9991 18.0623 57.9514 17.9847C57.8956 17.9113 57.8261 17.8566 57.7424 17.8206C57.6587 17.7839 57.5647 17.7592 57.4611 17.7472C57.3535 17.7433 57.2466 17.7408 57.139 17.7408H56.8639V18.886Z" fill="white"/>
<path d="M60.6391 17.7408H59.4441V17.0707H62.6698V17.7408H61.4748V21.3235H60.6388V17.7408H60.6391Z" fill="white"/>
<path d="M63.4106 17.0704H64.2469V19.5262C64.2429 19.8907 64.3086 20.1801 64.4444 20.3912C64.5799 20.6143 64.8023 20.7261 65.1136 20.7261C65.432 20.7261 65.6568 20.6146 65.788 20.3912C65.9155 20.1801 65.9793 19.8907 65.9793 19.5262V17.0704H66.8156V19.7884C66.7995 20.8764 66.232 21.4121 65.1136 21.3965C63.9942 21.4124 63.4268 20.8764 63.4106 19.7884V17.0704Z" fill="white"/>
<path d="M70.0238 17.6678C69.5382 17.6724 69.1652 17.8182 68.9066 18.1066C68.6433 18.3944 68.5121 18.7629 68.5121 19.2094C68.5121 19.6518 68.6377 20.0114 68.888 20.287C69.1351 20.5755 69.4814 20.7222 69.928 20.7261C70.1552 20.7261 70.3379 20.706 70.4774 20.6653V19.5562H69.5931V18.8861H71.278V21.1771C70.8321 21.3152 70.3816 21.388 69.928 21.3965C69.2427 21.3965 68.6957 21.2196 68.2852 20.8664C67.8588 20.5214 67.6445 19.9888 67.6399 19.2705C67.6675 17.7714 68.4303 17.0142 69.928 16.9977C70.398 17.0023 70.8064 17.061 71.1524 17.1747L71.0985 17.893C70.7484 17.7433 70.39 17.6678 70.0238 17.6678Z" fill="white"/>
<path d="M73.5296 17.0704H74.4735L76.1104 21.3232H75.1845L74.8263 20.3487H73.1358L72.7718 21.3232H71.9048L73.5296 17.0704ZM73.9894 17.9232H73.978L73.3745 19.6784H74.5932L73.9894 17.9232Z" fill="white"/>
<path d="M76.8872 17.0704H77.7229V20.6531H79.3421V21.3232H76.8872V17.0704Z" fill="white"/>
</g>
<defs>
<clipPath id="clip0_18_8565">
<rect width="80" height="22" fill="white"/>
</clipPath>
</defs>
</svg>
