<svg width="80" height="24" viewBox="0 0 80 24" fill="none" xmlns="http://www.w3.org/2000/svg">
<g clip-path="url(#clip0_18_522)">
<path d="M67.5357 10.5127C63.522 9.48663 62.5731 9.08532 62.5731 7.61661C62.5731 6.58644 63.522 5.73003 65.4669 5.73003C67.6495 5.91737 69.735 6.68956 71.4895 7.95999L73.9089 4.35648C71.5247 2.48805 68.5339 1.49722 65.4669 1.55972C61.7481 1.55972 58.9142 3.21461 57.8499 5.9038C56.6717 4.7306 55.2563 3.80511 53.692 3.1851C52.1277 2.56509 50.4481 2.26388 48.7582 2.30028H40.7992V15.7876L34.7766 2.17203H30.2884L22.556 19.7138H14.2295L17.9525 16.9129C21.9619 13.8845 23.911 11.9979 23.911 8.27442C23.911 4.04619 20.9189 1.35699 16.0589 1.35699C12.0452 1.35699 9.80116 2.90018 7.51007 5.90793L11.1134 8.74193C12.8232 6.74365 14.1055 5.71349 15.8366 5.71349H16.3111C17.0589 5.75931 17.7577 6.0895 18.2549 6.63203C18.7522 7.17457 19.0076 7.88542 18.9655 8.60954C18.9655 10.4961 17.9012 11.7538 15.0672 13.9879L7.38184 19.9993V23.9958H25.8601L27.5699 19.7676H42.5688L44.3983 23.7683H48.7667C55.6742 23.7683 60.3974 19.3084 60.6368 13.3673C62.0176 14.0367 63.4878 14.517 65.0053 14.7947C68.8522 15.709 69.6088 16.3379 69.6088 17.5956C69.6088 18.8533 68.4291 19.7097 66.3645 19.7097C64.7411 19.7051 63.1492 19.2763 61.7567 18.4685L59.2177 22.341C61.3841 23.4506 63.8024 24.0194 66.2534 23.9958C71.2117 23.9958 74.6954 21.5383 74.6954 17.0784V16.9626C74.8022 13.3136 72.1478 11.6545 67.5357 10.5127ZM29.3438 15.5435L32.5924 7.8276L35.9563 15.5435H29.3438ZM55.6742 14.0003C55.644 14.8111 55.4459 15.6078 55.0917 16.3432C54.7375 17.0785 54.2343 17.7375 53.6121 18.2812C52.9898 18.8248 52.2611 19.242 51.4692 19.508C50.6773 19.774 49.8382 19.8834 49.0018 19.8297H46.0097V6.74365H49.5832C50.4261 6.7712 51.2549 6.96074 52.0214 7.30123C52.788 7.64173 53.4769 8.12638 54.0481 8.72699C54.6193 9.32759 55.0614 10.0322 55.3486 10.7997C55.6359 11.5672 55.7625 12.3824 55.7212 13.1977C55.6714 13.4623 55.6556 13.7319 55.6742 14.0003Z" fill="white"/>
<path d="M80.0001 19.6021H75.512V23.8304H80.0001V19.6021Z" fill="white"/>
<path d="M5.3131 23.9462H0V10.0576L5.3131 7.31461V23.9462Z" fill="white"/>
<path d="M5.43273 0H0.119629V5.02672H5.43273V0Z" fill="white"/>
</g>
<defs>
<clipPath id="clip0_18_522">
<rect width="80" height="24" fill="white"/>
</clipPath>
</defs>
</svg>
