<svg width="80" height="38" viewBox="0 0 80 38" fill="none" xmlns="http://www.w3.org/2000/svg">
<g clip-path="url(#clip0_18_466)">
<path d="M43.2007 9.31296H44.0916V12.7668H43.2007V9.31296Z" fill="white"/>
<path d="M44.6985 9.31296H46.1816C46.9732 9.31296 47.63 9.7244 47.63 10.5287V11.5023C47.63 12.3597 46.9331 12.7668 46.187 12.7668H44.6994V9.31296H44.6985ZM46.1315 12.0591C46.4549 12.0591 46.7382 11.8605 46.7382 11.5067V10.557C46.7382 10.2227 46.4594 10.0197 46.106 10.0197H45.5885V12.0591H46.1306H46.1315Z" fill="white"/>
<path d="M49.4511 11.5165H48.3169V10.9552H49.4511V9.85562H50.0332V10.9552H51.1628V11.5165H50.0332V12.616H49.4511V11.5165Z" fill="white"/>
<path d="M54.0078 9.31296H55.5601C56.3664 9.31296 56.8291 9.76341 56.8291 10.4027C56.8291 10.8239 56.6205 11.2354 56.1623 11.4198L56.9731 12.7668H56.0029L55.3014 11.5457H54.8988V12.7668H54.0078V9.31296ZM55.4453 10.9064C55.7687 10.9064 55.9628 10.7273 55.9628 10.4462C55.9628 10.1509 55.7642 9.99042 55.4453 9.99042H54.8978V10.9055H55.4453V10.9064Z" fill="white"/>
<path d="M57.3757 9.31296H59.9884V10.0152H58.2667V10.6741H59.7151V11.3719H58.2667V12.0591H59.9985V12.7668H57.3757V9.31296Z" fill="white"/>
<path d="M60.2607 12.2002L60.8228 11.7107C61.0068 11.9625 61.3502 12.147 61.7237 12.147C61.9925 12.147 62.2812 12.0645 62.2812 11.8224C62.2812 11.6096 62.1018 11.5316 61.8831 11.4739L61.271 11.3187C60.7881 11.1928 60.4301 10.9215 60.4301 10.3646C60.4301 9.71998 60.9822 9.25534 61.7684 9.25534C62.3951 9.25534 62.8233 9.4247 63.102 9.7927L62.5245 10.2573C62.3605 10.0392 62.0617 9.9328 61.7829 9.9328C61.5242 9.9328 61.3001 10.0197 61.3001 10.2573C61.3001 10.456 61.5142 10.5234 61.7829 10.5916L62.3405 10.7371C62.8479 10.863 63.1913 11.1583 63.1913 11.6965C63.1913 12.4476 62.4944 12.8253 61.7629 12.8253C61.1407 12.8253 60.5987 12.6604 60.2598 12.2002H60.2607Z" fill="white"/>
<path d="M63.644 9.31296H66.2567V10.0152H64.535V10.6741H65.9835V11.3719H64.535V12.0591H66.2668V12.7668H63.644V9.31296Z" fill="white"/>
<path d="M67.8193 9.30856H68.7694L70.0139 12.7668H69.1083L68.8942 12.1221H67.6252L67.4066 12.7668H66.5603L67.8193 9.30856ZM68.6756 11.4447L68.2675 10.1953H68.2529L67.8402 11.4447H68.6765H68.6756Z" fill="white"/>
<path d="M70.3572 9.31296H71.9095C72.7157 9.31296 73.1785 9.76341 73.1785 10.4027C73.1785 10.8239 72.9699 11.2354 72.5117 11.4198L73.3224 12.7668H72.3522L71.6508 11.5457H71.2481V12.7668H70.3572V9.31296ZM71.7947 10.9064C72.1181 10.9064 72.3122 10.7273 72.3122 10.4462C72.3122 10.1509 72.1136 9.99042 71.7947 9.99042H71.2472V10.9055H71.7947V10.9064Z" fill="white"/>
<path d="M73.6357 11.5794V10.5234C73.6357 9.67565 74.3427 9.25446 75.1288 9.25446C75.8157 9.25446 76.5673 9.59319 76.5673 10.393V10.5526H75.731V10.4755C75.731 10.1119 75.4176 9.96206 75.1434 9.96206C74.83 9.96206 74.5267 10.1217 74.5267 10.5145V11.5608C74.5267 11.9146 74.7909 12.1177 75.1534 12.1177C75.4267 12.1177 75.731 11.9625 75.731 11.6043V11.5218H76.5673V11.6912C76.5673 12.4857 75.8358 12.8244 75.1489 12.8244C74.3682 12.8244 73.6367 12.4422 73.6367 11.5794H73.6357Z" fill="white"/>
<path d="M77.0647 9.31296H77.9547V10.6404H79.1099V9.31296H79.9999V12.7668H79.1099V11.3906H77.9547V12.7668H77.0647V9.31296Z" fill="white"/>
<path d="M43.2007 15.1255H44.0916V18.5784H43.2007V15.1255Z" fill="white"/>
<path d="M44.7129 15.1255H45.5738L46.9275 17.0771H46.9375V15.1255H47.7583V18.5784H46.932L45.5437 16.5495H45.5346V18.5784H44.7129V15.1255Z" fill="white"/>
<path d="M48.1464 18.0117L48.7085 17.5222C48.8925 17.7741 49.236 17.9585 49.6095 17.9585C49.8782 17.9585 50.167 17.876 50.167 17.634C50.167 17.4212 49.9875 17.3431 49.7689 17.2855L49.1567 17.1303C48.6739 17.0044 48.3159 16.7331 48.3159 16.1762C48.3159 15.5324 48.8679 15.0669 49.6541 15.0669C50.2809 15.0669 50.709 15.2363 50.9878 15.6042L50.4102 16.0689C50.2462 15.8508 49.9474 15.7444 49.6687 15.7444C49.41 15.7444 49.1859 15.8313 49.1859 16.0689C49.1859 16.2675 49.3999 16.3349 49.6687 16.4032L50.2262 16.5486C50.7336 16.6745 51.0771 16.9698 51.0771 17.508C51.0771 18.2591 50.3802 18.6369 49.6486 18.6369C49.0264 18.6369 48.4844 18.4719 48.1455 18.0117H48.1464Z" fill="white"/>
<path d="M52.3097 15.818H51.304V15.1255H54.2054V15.818H53.1997V18.5784H52.3097V15.818Z" fill="white"/>
<path d="M54.6428 15.1255H55.5338V18.5784H54.6428V15.1255Z" fill="white"/>
<path d="M56.9811 15.818H55.9763V15.1255H58.8778V15.818H57.8721V18.5784H56.9811V15.818Z" fill="white"/>
<path d="M59.3005 17.3538V15.1255H60.186V17.2953C60.186 17.6828 60.3946 17.9248 60.7927 17.9248C61.1662 17.9248 61.3803 17.7067 61.3803 17.2953V15.1255H62.2512V17.3192C62.2512 18.1811 61.5944 18.6369 60.7636 18.6369C59.8626 18.6369 59.3005 18.2201 59.3005 17.3529V17.3538Z" fill="white"/>
<path d="M63.6843 15.818H62.6794V15.1255H65.58V15.818H64.5752V18.5784H63.6843V15.818Z" fill="white"/>
<path d="M66.0183 15.1255H68.6301V15.8277H66.9083V16.4866H68.3568V17.1835H66.9083V17.8716H68.6401V18.5784H66.0183V15.1255Z" fill="white"/>
<path d="M70.5593 15.1255H73.1319V15.8277H71.4503V16.5247H72.8386V17.227H71.4503V18.5784H70.5593V15.1255Z" fill="white"/>
<path d="M73.4472 17.3724V16.3748C73.4472 15.4978 74.1833 15.0669 74.9449 15.0669C75.7064 15.0669 76.4671 15.4783 76.4671 16.3695V17.3289C76.4671 18.2298 75.7055 18.6369 74.964 18.6369C74.1678 18.6369 73.4463 18.2635 73.4463 17.3724H73.4472ZM75.5771 17.3582V16.3358C75.5771 15.9722 75.2837 15.7736 74.9503 15.7736C74.6169 15.7736 74.3381 15.9385 74.3381 16.3402V17.3529C74.3381 17.7209 74.6023 17.9248 74.9649 17.9248C75.2783 17.9248 75.5771 17.7501 75.5771 17.3582Z" fill="white"/>
<path d="M77 15.1255H78.5523C79.3585 15.1255 79.8213 15.5759 79.8213 16.2152C79.8213 16.6364 79.6127 17.0479 79.1545 17.2323L79.9653 18.5793H78.9951L78.2936 17.3582H77.8909V18.5793H77V15.1255ZM78.4384 16.7189C78.7618 16.7189 78.9559 16.5398 78.9559 16.2587C78.9559 15.9634 78.7564 15.8029 78.4384 15.8029H77.8909V16.718H78.4384V16.7189Z" fill="white"/>
<path d="M43.2007 20.9379H44.6838C45.4754 20.9379 46.1322 21.3494 46.1322 22.1536V23.1273C46.1322 23.9847 45.4353 24.3917 44.6892 24.3917H43.2016V20.9379H43.2007ZM44.6337 23.6841C44.9571 23.6841 45.2404 23.4855 45.2404 23.1317V22.182C45.2404 21.8477 44.9616 21.6446 44.6082 21.6446H44.0907V23.6841H44.6327H44.6337Z" fill="white"/>
<path d="M46.6633 20.9379H49.276V21.6402H47.5543V22.2991H49.0027V22.996H47.5543V23.6841H49.2861V24.3908H46.6633V20.9379Z" fill="white"/>
<path d="M49.5639 23.8242L50.126 23.3347C50.31 23.5866 50.6534 23.771 51.0269 23.771C51.2957 23.771 51.5845 23.6885 51.5845 23.4465C51.5845 23.2337 51.405 23.1556 51.1864 23.098L50.5742 22.9428C50.0914 22.8169 49.7333 22.5456 49.7333 21.9887C49.7333 21.344 50.2854 20.8794 51.0716 20.8794C51.6983 20.8794 52.1265 21.0488 52.4053 21.4168L51.8277 21.8814C51.6637 21.6633 51.3649 21.5569 51.0862 21.5569C50.8274 21.5569 50.6033 21.6438 50.6033 21.8814C50.6033 22.08 50.8174 22.1474 51.0862 22.2157L51.6437 22.3611C52.1511 22.487 52.4945 22.7823 52.4945 23.3205C52.4945 24.0716 51.7976 24.4494 51.0661 24.4494C50.4439 24.4494 49.9019 24.2844 49.563 23.8242H49.5639Z" fill="white"/>
<path d="M52.9619 20.9379H53.8529V24.3908H52.9619V20.9379Z" fill="white"/>
<path d="M54.385 23.2044V22.1483C54.385 21.3006 55.0919 20.8794 55.8781 20.8794C56.565 20.8794 57.3311 21.1942 57.3311 21.9984V22.1244H56.4949V22.057C56.4949 21.6987 56.176 21.5675 55.9027 21.5675C55.5939 21.5675 55.276 21.7271 55.276 22.1199V23.1858C55.276 23.5396 55.5392 23.7577 55.9027 23.7577C56.2061 23.7577 56.4803 23.6123 56.4803 23.2487V23.1618H55.7633V22.5225H57.3311V23.317C57.3311 24.1115 56.585 24.4502 55.8982 24.4502C55.112 24.4502 54.385 24.0681 54.385 23.2053V23.2044Z" fill="white"/>
<path d="M57.8384 20.9379H58.6993L60.053 22.8896H60.063V20.9379H60.8838V24.3908H60.0575L58.6692 22.362H58.6592V24.3908H57.8384V20.9379Z" fill="white"/>
<path d="M61.775 24.3864H61.4907V23.5626H62.327V24.3429L62.0036 25.0692H61.611L61.775 24.3864Z" fill="white"/>
<path d="M64.2827 20.9379H65.3877L66.1092 22.7202H66.1193L66.8262 20.9379H67.9157V24.3908H67.0949V22.1918H67.0849L66.408 23.9262H65.7959L65.1144 22.1971H65.1044V24.3908H64.2827V20.9379Z" fill="white"/>
<path d="M68.5381 20.9379H71.1499V21.6402H69.4281V22.2991H70.8766V22.996H69.4281V23.6841H71.1599V24.3908H68.5381V20.9379Z" fill="white"/>
<path d="M71.7273 20.9379H73.2104C74.0011 20.9379 74.6588 21.3494 74.6588 22.1536V23.1273C74.6588 23.9847 73.9619 24.3917 73.2158 24.3917H71.7282V20.9379H71.7273ZM73.1603 23.6841C73.4837 23.6841 73.767 23.4855 73.767 23.1317V22.182C73.767 21.8477 73.4882 21.6446 73.1348 21.6446H72.6173V23.6841H73.1594H73.1603Z" fill="white"/>
<path d="M75.1899 20.9379H76.0809V24.3908H75.1899V20.9379Z" fill="white"/>
<path d="M77.7033 20.9326H78.6535L79.8979 24.3908H78.9924L78.7783 23.7471H77.5093L77.2906 24.3908H76.4443L77.7033 20.9326ZM78.5587 23.0687L78.1506 21.8193H78.136L77.7234 23.0687H78.5596H78.5587Z" fill="white"/>
<path d="M44.406 26.6724H45.3561L46.6005 30.1307H45.695L45.4809 29.4869H44.2119L43.9933 30.1307H43.147L44.406 26.6724ZM45.2614 28.8085L44.8533 27.5591H44.8387L44.426 28.8085H45.2623H45.2614Z" fill="white"/>
<path d="M47.1572 26.6777H48.0181L49.3718 28.6294H49.3819V26.6777H50.2026V30.1306H49.3764L47.988 28.1018H47.9789V30.1306H47.1572V26.6777Z" fill="white"/>
<path d="M51.0234 26.6777H52.5065C53.2973 26.6777 53.955 27.0892 53.955 27.8934V28.8671C53.955 29.7245 53.2581 30.1315 52.512 30.1315H51.0243V26.6777H51.0234ZM52.4573 29.4239C52.7807 29.4239 53.064 29.2253 53.064 28.8715V27.9218C53.064 27.5875 52.7853 27.3845 52.4318 27.3845H51.9144V29.4239H52.4564H52.4573Z" fill="white"/>
<path d="M56.4583 28.9424V27.8863C56.4583 27.0386 57.1652 26.6174 57.9514 26.6174C58.6382 26.6174 59.3898 26.9562 59.3898 27.756V27.9156H58.5535V27.8385C58.5535 27.4749 58.2401 27.325 57.9659 27.325C57.6526 27.325 57.3492 27.4846 57.3492 27.8775V28.9238C57.3492 29.2776 57.6125 29.4807 57.976 29.4807C58.2493 29.4807 58.5535 29.3255 58.5535 28.9673V28.8848H59.3898V29.0542C59.3898 29.8487 58.6583 30.1874 57.9714 30.1874C57.1898 30.1874 56.4583 29.8052 56.4583 28.9424Z" fill="white"/>
<path d="M60.0859 28.9034V26.675H60.9714V28.8449C60.9714 29.2324 61.18 29.4744 61.5781 29.4744C61.9516 29.4744 62.1657 29.2563 62.1657 28.8449V26.675H63.0366V28.8688C63.0366 29.7307 62.3798 30.1865 61.549 30.1865C60.648 30.1865 60.0859 29.7697 60.0859 28.9025V28.9034Z" fill="white"/>
<path d="M63.8428 26.675H64.7337V29.4212H66.42V30.1288H63.8428V26.675Z" fill="white"/>
<path d="M67.4831 27.3676H66.4783V26.675H69.3789V27.3676H68.374V30.1288H67.4831V27.3676Z" fill="white"/>
<path d="M70.001 28.9034V26.675H70.8865V28.8449C70.8865 29.2324 71.0951 29.4744 71.4932 29.4744C71.8667 29.4744 72.0808 29.2563 72.0808 28.8449V26.675H72.9517V28.8688C72.9517 29.7307 72.2948 30.1865 71.464 30.1865C70.5631 30.1865 70.001 29.7697 70.001 28.9025V28.9034Z" fill="white"/>
<path d="M73.7578 26.675H75.3101C76.1164 26.675 76.5791 27.1255 76.5791 27.7648C76.5791 28.186 76.3705 28.5975 75.9123 28.7819L76.7231 30.1288H75.7529L75.0514 28.9078H74.6488V30.1288H73.7578V26.675ZM75.1963 28.2685C75.5197 28.2685 75.7137 28.0894 75.7137 27.8083C75.7137 27.513 75.5142 27.3525 75.1963 27.3525H74.6488V28.2676H75.1963V28.2685Z" fill="white"/>
<path d="M77.3408 26.675H79.9526V27.3773H78.2318V28.0362H79.6793V28.734H78.2318V29.4212H79.9626V30.1288H77.3408V26.675Z" fill="white"/>
<path d="M67.3036 32.1373H68.0816C68.4624 32.1373 68.6811 32.3652 68.6811 32.6746C68.6811 32.9486 68.508 33.2306 68.088 33.2306H67.7336V33.8096H67.3027V32.1373H67.3036ZM68.0115 32.9087C68.1654 32.9087 68.262 32.82 68.262 32.6862C68.262 32.5434 68.1636 32.4654 68.0087 32.4654H67.7345V32.9087H68.0115Z" fill="white"/>
<path d="M68.8549 33.2253V32.742C68.8549 32.3173 69.2111 32.1089 69.5801 32.1089C69.949 32.1089 70.317 32.3084 70.317 32.7393V33.204C70.317 33.6403 69.9481 33.8371 69.5892 33.8371C69.2038 33.8371 68.854 33.6562 68.854 33.2253H68.8549ZM69.8862 33.2182V32.7234C69.8862 32.5478 69.744 32.4512 69.5828 32.4512C69.4215 32.4512 69.2867 32.531 69.2867 32.7252V33.2155C69.2867 33.3938 69.4143 33.4922 69.5901 33.4922C69.7422 33.4922 69.8862 33.4079 69.8862 33.2182Z" fill="white"/>
<path d="M70.5676 32.1373H71.3192C71.7091 32.1373 71.9332 32.3554 71.9332 32.6649C71.9332 32.8688 71.8321 33.0684 71.6107 33.157L72.0033 33.8088H71.5333L71.1935 33.2182H70.9985V33.8088H70.5676V32.1364V32.1373ZM71.2636 32.9088C71.4203 32.9088 71.5141 32.8219 71.5141 32.6862C71.5141 32.5434 71.4176 32.4654 71.2636 32.4654H70.9985V32.9088H71.2636Z" fill="white"/>
<path d="M72.5983 32.4725H72.1118V32.1373H73.5166V32.4725H73.0301V33.8096H72.5983V32.4725Z" fill="white"/>
<path d="M73.7141 33.2164V32.1382H74.1432V33.189C74.1432 33.3769 74.2443 33.494 74.4374 33.494C74.6178 33.494 74.7217 33.3885 74.7217 33.189V32.1382H75.1434V33.2005C75.1434 33.6181 74.8255 33.838 74.4229 33.838C73.9865 33.838 73.715 33.6367 73.715 33.2164H73.7141Z" fill="white"/>
<path d="M75.3859 33.235V32.7234C75.3859 32.3128 75.7275 32.1089 76.1083 32.1089C76.4408 32.1089 76.8116 32.2614 76.8116 32.6507V32.7119H76.4071V32.6791C76.4071 32.5053 76.2532 32.4423 76.1202 32.4423C75.9708 32.4423 75.8168 32.5194 75.8168 32.7101V33.2262C75.8168 33.3973 75.9444 33.5028 76.1202 33.5028C76.2668 33.5028 76.3998 33.4328 76.3998 33.2563V33.2137H76.0528V32.9043H76.8116V33.2891C76.8116 33.674 76.45 33.838 76.1174 33.838C75.7367 33.838 75.385 33.6527 75.385 33.235H75.3859Z" fill="white"/>
<path d="M77.4793 32.1355H77.9394L78.5415 33.8096H78.1034L77.9995 33.4975H77.3855L77.2798 33.8096H76.8699L77.4793 32.1355ZM77.8938 33.1694L77.6961 32.5647H77.6889L77.4893 33.1694H77.8938Z" fill="white"/>
<path d="M78.7083 32.1373H79.1392V33.4674H79.9563V33.8096H78.7083V32.1373Z" fill="white"/>
<path d="M10.6367 28.6817H20.3323V23.0138H27.632V15.1042H20.3323V9.34312H10.6367V28.6817ZM20.5664 37.8912H0V9.344H10.6367V0.096344H20.4571C29.3337 0.096344 36.8484 3.80729 36.8484 12.9769V24.1621C36.8484 34.0216 29.2244 37.8912 20.5655 37.8912H20.5664Z" fill="white"/>
</g>
<defs>
<clipPath id="clip0_18_466">
<rect width="80" height="38" fill="white"/>
</clipPath>
</defs>
</svg>
