<svg width="80" height="19" viewBox="0 0 80 19" fill="none" xmlns="http://www.w3.org/2000/svg">
<g clip-path="url(#clip0_18_1545)">
<path d="M26.1398 18.8999C25.5838 18.9068 25.1377 18.9126 24.8025 18.9195C24.7824 18.8945 24.7675 18.8657 24.7587 18.8349C24.75 18.8041 24.7476 18.7718 24.7517 18.74C24.7453 18.672 24.7633 18.6039 24.8025 18.5479C25.1878 18.5349 25.4313 18.4785 25.533 18.3788C25.6347 18.2791 25.6871 18.026 25.6902 17.6196V13.5417C25.6902 13.1345 25.6378 12.8818 25.533 12.7836C25.4282 12.6854 25.1847 12.6302 24.8025 12.618C24.7824 12.5927 24.7675 12.5638 24.7588 12.5328C24.7501 12.5018 24.7476 12.4693 24.7517 12.4374C24.7449 12.3697 24.763 12.3019 24.8025 12.2464C25.4891 12.2602 25.9317 12.2683 26.1294 12.2683C26.3524 12.2683 26.8008 12.2602 27.4746 12.2464C27.5009 12.3053 27.512 12.3697 27.507 12.4339C27.5131 12.498 27.499 12.5623 27.4666 12.618C27.0813 12.6302 26.8378 12.6862 26.7361 12.7859C26.6344 12.8856 26.5832 13.141 26.5824 13.552V18.0153C26.575 18.1521 26.621 18.2864 26.7107 18.3903C26.7566 18.4371 26.812 18.4736 26.8732 18.4974C26.9343 18.5212 26.9999 18.5318 27.0655 18.5284H27.8214C28.3241 18.5284 28.7021 18.4133 28.9517 18.174C29.224 17.9006 29.4149 17.5574 29.503 17.1825C29.6183 17.1617 29.7372 17.1791 29.8416 17.2319C29.7746 17.8186 29.6844 18.3823 29.5735 18.9195C28.9378 18.9072 28.5275 18.9007 28.3426 18.8999H26.1398Z" fill="white"/>
<path d="M32.4558 13.5463V16.1449C32.4558 16.4317 32.4623 16.6675 32.4754 16.8523C32.4964 17.0691 32.5458 17.2821 32.6222 17.4862C32.6943 17.7065 32.8188 17.9062 32.9851 18.0682C33.1452 18.2302 33.3358 18.3591 33.546 18.4475C33.7563 18.5359 33.982 18.5822 34.2102 18.5836C34.5072 18.5907 34.8023 18.5362 35.077 18.4237C35.2902 18.3366 35.4813 18.2034 35.6364 18.0337C35.7778 17.8579 35.8823 17.6557 35.9438 17.439C36.0135 17.2229 36.06 17 36.0825 16.7741C36.0987 16.5751 36.1068 16.3381 36.1068 16.0655V13.5463C36.1108 13.3801 36.1007 13.2139 36.0767 13.0494C36.0687 12.9972 36.05 12.9472 36.0217 12.9024C35.9935 12.8577 35.9564 12.8193 35.9126 12.7894C35.8318 12.7329 35.7401 12.6938 35.6433 12.6743C35.552 12.6582 35.3914 12.6398 35.1591 12.6203C35.1253 12.5664 35.111 12.5027 35.1186 12.4397C35.1127 12.3729 35.1272 12.306 35.1602 12.2476C35.8491 12.2621 36.247 12.2694 36.3541 12.2694L37.4093 12.2476C37.4411 12.3051 37.4552 12.3708 37.4498 12.4362C37.4559 12.5003 37.4418 12.5646 37.4093 12.6203C37.2398 12.6322 37.0718 12.6604 36.9077 12.7043C36.8586 12.7261 36.8146 12.7578 36.7784 12.7974C36.7422 12.837 36.7146 12.8836 36.6974 12.9343C36.6339 13.1306 36.6068 13.3369 36.6176 13.5428V15.8769C36.6231 16.3015 36.5844 16.7255 36.5021 17.1422C36.4319 17.4885 36.297 17.8186 36.1045 18.1154C35.9075 18.4111 35.6256 18.6408 35.2955 18.7745C34.8814 18.9381 34.4383 19.0163 33.9929 19.0046C33.7284 19.0054 33.465 18.9694 33.2105 18.8976C32.9366 18.8149 32.6764 18.6924 32.4384 18.5341C32.1552 18.3407 31.9354 18.0687 31.8062 17.7519C31.6375 17.3517 31.5564 16.9204 31.5682 16.4865V13.5463C31.5682 13.1437 31.5188 12.8914 31.4202 12.7894C31.322 12.6881 31.1093 12.6306 30.7799 12.618C30.7472 12.5637 30.7334 12.5002 30.7406 12.4374C30.7345 12.3708 30.7486 12.3038 30.7811 12.2453C31.4676 12.2598 31.876 12.2671 32.0062 12.2671C32.2628 12.2671 32.7301 12.2598 33.4081 12.2453C33.4332 12.3049 33.4439 12.3695 33.4393 12.4339C33.4457 12.4978 33.432 12.5622 33.4 12.618C32.9897 12.6306 32.7308 12.687 32.621 12.7848C32.5113 12.8826 32.4558 13.1368 32.4558 13.5463Z" fill="white"/>
<path d="M42.2683 12.4236C42.3583 12.8606 42.4208 13.3028 42.4555 13.7476C42.3496 13.7959 42.233 13.8165 42.1169 13.8074C42.0834 13.7016 42.051 13.605 42.0186 13.5198C41.9849 13.4289 41.9463 13.3398 41.9031 13.253C41.8608 13.1661 41.8092 13.0839 41.7494 13.0079C41.6894 12.9332 41.6225 12.8642 41.5494 12.802C41.473 12.7365 41.3883 12.6812 41.2975 12.6375C41.1964 12.5909 41.0901 12.5566 40.9808 12.5352C40.8523 12.5089 40.7213 12.4962 40.5901 12.4972C40.441 12.4977 40.2936 12.5296 40.1578 12.5909C40.0219 12.6522 39.9006 12.7414 39.8019 12.8526C39.6958 12.9557 39.6112 13.0785 39.5529 13.2141C39.4946 13.3497 39.4638 13.4954 39.4621 13.6429C39.4629 13.8008 39.5026 13.956 39.5777 14.095C39.6438 14.2274 39.7321 14.3476 39.8389 14.4505C39.9589 14.56 40.0916 14.655 40.2342 14.7334C40.3663 14.8113 40.5033 14.8804 40.6445 14.9405C40.7554 14.9857 40.8929 15.0398 41.0571 15.1027L41.3691 15.2177C41.5563 15.2961 41.7372 15.3888 41.91 15.4949C42.0743 15.5974 42.2263 15.7182 42.3631 15.855C42.5052 15.9985 42.6162 16.1696 42.689 16.3577C42.767 16.5619 42.8062 16.7788 42.8046 16.9973C42.8031 17.3322 42.7087 17.6602 42.5318 17.9452C42.3576 18.2404 42.1131 18.4885 41.8199 18.6676C41.4313 18.8976 40.9855 19.0141 40.5335 19.0035C40.1748 19.0026 39.8173 18.964 39.4667 18.8884C39.1838 18.8222 38.895 18.7836 38.6046 18.7734C38.4934 18.2609 38.4269 17.7397 38.4058 17.2158C38.4571 17.188 38.5137 17.171 38.572 17.1659C38.6302 17.1607 38.6889 17.1675 38.7444 17.1859C38.9678 18.156 39.5927 18.6411 40.619 18.6411C41.0312 18.6411 41.3491 18.5337 41.5725 18.319C41.796 18.1043 41.9077 17.7914 41.9077 17.3803C41.9099 17.2058 41.8802 17.0323 41.8199 16.8684C41.7724 16.734 41.7045 16.6075 41.6188 16.4934C41.5273 16.3847 41.4183 16.2918 41.2963 16.2185C41.1856 16.1457 41.0698 16.0811 40.9496 16.0253C40.8571 15.985 40.7265 15.9332 40.5566 15.8677C40.3867 15.8021 40.2711 15.7526 40.2099 15.7308C39.9349 15.6207 39.6713 15.4843 39.4228 15.3236C39.2028 15.1713 39.0167 14.9755 38.8762 14.7484C38.7221 14.5059 38.6419 14.2243 38.645 13.9374C38.638 13.6898 38.6885 13.4439 38.7925 13.2188C38.8965 12.9938 39.0513 12.7956 39.2448 12.6398C39.6464 12.3024 40.1572 12.1214 40.6826 12.1302C41.0271 12.1232 41.3707 12.1698 41.7008 12.2683C41.8869 12.333 42.0768 12.3864 42.2694 12.4282" fill="white"/>
<path d="M50.6278 15.5133C50.6278 16.3699 50.4143 17.0985 49.9875 17.699C49.7049 18.1053 49.3241 18.4345 48.8803 18.656C48.4091 18.8875 47.8893 19.0038 47.3639 18.9954C46.9395 19.0053 46.5173 18.9304 46.1225 18.7751C45.7276 18.6198 45.3681 18.3873 45.0651 18.0912C44.4418 17.4877 44.1301 16.6917 44.1301 15.7031C44.1301 14.7967 44.3655 14.0221 44.8363 13.3795C45.1164 12.9938 45.4833 12.6786 45.9077 12.4592C46.3386 12.2372 46.8175 12.1235 47.3027 12.1279C48.2619 12.1279 49.0559 12.4347 49.6847 13.0482C50.3134 13.6617 50.6278 14.4842 50.6278 15.5156M47.1674 12.5041C46.9149 12.5048 46.6662 12.5663 46.4428 12.6835C46.194 12.8156 45.9731 12.994 45.7921 13.2092C45.5656 13.4908 45.4 13.8158 45.3055 14.164C45.1757 14.6075 45.1126 15.0676 45.1183 15.5294C45.1183 16.4704 45.3598 17.2216 45.843 17.7829C46.3261 18.3443 46.9039 18.625 47.5766 18.625C48.1822 18.625 48.6776 18.3608 49.0629 17.8324C49.4481 17.304 49.6408 16.5946 49.6408 15.7043C49.6408 14.7035 49.4069 13.919 48.9392 13.3507C48.7321 13.0816 48.4647 12.8644 48.1583 12.7164C47.8519 12.5684 47.5149 12.4937 47.1744 12.4983M47.7523 10.4645C48.0149 10.5735 48.2382 10.7592 48.3925 10.9971L46.9039 11.5942C46.7692 11.6634 46.6217 11.7045 46.4705 11.7149C46.3665 11.7149 46.3133 11.6655 46.3133 11.5643C46.3133 11.4872 46.3665 11.4159 46.4705 11.3491L47.7523 10.4645Z" fill="white"/>
<path d="M54.4647 15.5755H53.5112V17.6196C53.5112 18.0268 53.5644 18.2799 53.6684 18.3765C53.7724 18.4731 54.0151 18.5318 54.4 18.5479C54.4389 18.6041 54.4565 18.6721 54.4497 18.74C54.457 18.8028 54.4423 18.8662 54.4081 18.9195C53.7146 18.9049 53.2697 18.8976 53.0732 18.8976C52.8513 18.8976 52.4036 18.9049 51.7302 18.9195C51.6974 18.8657 51.6836 18.8025 51.6909 18.74C51.6851 18.6735 51.6987 18.6068 51.7302 18.5479C52.1154 18.5349 52.3601 18.4785 52.4641 18.3788C52.5681 18.2791 52.6213 18.026 52.6236 17.6196V13.5417C52.6236 13.1345 52.5697 12.8818 52.4618 12.7836C52.3539 12.6854 52.107 12.6302 51.7209 12.618C51.6871 12.5637 51.6728 12.4996 51.6805 12.4362C51.6737 12.3703 51.6879 12.3039 51.7209 12.2464L53.057 12.266H55.6967C55.8591 12.2674 56.0212 12.2539 56.181 12.2257C56.1903 12.2244 56.1998 12.2268 56.2074 12.2324C56.215 12.238 56.22 12.2463 56.2214 12.2556C56.2985 12.6513 56.3725 13.1498 56.4433 13.751C56.3411 13.7859 56.2336 13.8026 56.1255 13.8005C56.0643 13.5765 55.9738 13.3614 55.8562 13.1609C55.7406 12.9959 55.5803 12.8671 55.3939 12.7894C55.1274 12.6803 54.8405 12.6297 54.5525 12.641H53.8787C53.6306 12.641 53.5081 12.7606 53.5112 12.9999V15.2074H54.4682C54.8866 15.2074 55.1443 15.1648 55.2402 15.082C55.3361 14.9991 55.3916 14.8001 55.409 14.4895C55.431 14.4698 55.4571 14.455 55.4854 14.4463C55.5138 14.4375 55.5437 14.435 55.5731 14.4389C55.6039 14.4353 55.6351 14.438 55.6649 14.4467C55.6947 14.4554 55.7224 14.47 55.7464 14.4895C55.7333 14.9044 55.7268 15.2031 55.7268 15.3857C55.7268 15.5076 55.7333 15.8036 55.7464 16.2737C55.726 16.2995 55.6995 16.3197 55.6692 16.3326C55.6389 16.3454 55.6058 16.3505 55.5731 16.3473C55.5436 16.3514 55.5135 16.3489 55.4851 16.3399C55.4567 16.331 55.4307 16.3158 55.409 16.2956C55.4034 16.1587 55.3824 16.0229 55.3465 15.8906C55.2954 15.7883 55.2057 15.7101 55.0969 15.6732C54.8959 15.5996 54.682 15.5676 54.4682 15.5789" fill="white"/>
<path d="M64.0426 15.5133C64.0426 16.3699 63.8291 17.0985 63.4023 17.699C63.1192 18.1054 62.7381 18.4345 62.2939 18.656C61.8231 18.8874 61.3037 19.0038 60.7787 18.9954C60.3547 19.0058 59.9329 18.9315 59.5382 18.7768C59.1435 18.622 58.7841 18.3901 58.4811 18.0947C57.857 17.4919 57.5449 16.6963 57.5449 15.7077C57.5449 14.8013 57.7803 14.0267 58.2511 13.3841C58.5319 12.9986 58.8992 12.6835 59.3236 12.4638C59.7545 12.2417 60.2334 12.128 60.7186 12.1325C61.6779 12.1325 62.4719 12.4393 63.1006 13.0528C63.7293 13.6663 64.0437 14.4888 64.0437 15.5202M60.5765 12.5087C60.3243 12.5096 60.0761 12.5711 59.853 12.6881C59.604 12.8198 59.383 12.9984 59.2023 13.2138C58.9754 13.4953 58.8094 13.8203 58.7145 14.1686C58.5877 14.611 58.5266 15.0694 58.5331 15.5294C58.5331 16.4689 58.7743 17.22 59.2566 17.7829C59.7389 18.3458 60.3168 18.6265 60.9902 18.625C61.5951 18.625 62.0901 18.3608 62.4754 17.8324C62.8606 17.304 63.0532 16.5946 63.0532 15.7043C63.0532 14.7035 62.8194 13.919 62.3517 13.3507C62.1444 13.0816 61.8767 12.8643 61.5701 12.7164C61.2635 12.5684 60.9264 12.4937 60.5857 12.4983" fill="white"/>
<path d="M70.7771 13.651C70.781 13.469 70.7702 13.2871 70.7447 13.1068C70.7289 12.9939 70.6737 12.8901 70.5887 12.8135C70.5153 12.7476 70.4268 12.7006 70.331 12.6766C70.1815 12.6489 70.0307 12.6293 69.8791 12.618C69.8384 12.567 69.8197 12.502 69.8271 12.4374C69.8224 12.4037 69.8246 12.3694 69.8336 12.3366C69.8425 12.3038 69.858 12.2731 69.8791 12.2464C70.5725 12.2602 70.9505 12.2683 71.0244 12.2683C71.1227 12.2683 71.5075 12.2602 72.1802 12.2464C72.2122 12.3035 72.2262 12.3688 72.2206 12.4339C72.2268 12.498 72.2126 12.5623 72.1802 12.618C71.7949 12.6571 71.5484 12.7307 71.4405 12.8388C71.3353 12.9458 71.2822 13.2173 71.2822 13.651V18.6595C71.2822 18.8896 71.2036 19.0046 71.051 19.0046C70.8985 19.0046 70.7609 18.9172 70.6373 18.7412L67.0302 14.2365C66.8514 14.011 66.7358 13.8994 66.6834 13.9017C66.628 13.9017 66.6002 14.0697 66.6002 14.3998V17.5149C66.5966 17.6969 66.6078 17.8788 66.6337 18.059C66.6487 18.1719 66.7041 18.2757 66.7898 18.3512C66.8621 18.4179 66.9505 18.465 67.0463 18.4881C67.1365 18.5076 67.2867 18.5295 67.4982 18.5525C67.5309 18.6111 67.5458 18.6778 67.541 18.7446C67.551 18.8077 67.5357 18.8722 67.4982 18.9241C66.8048 18.9091 66.4269 18.9022 66.3529 18.9022C66.2558 18.9022 65.8705 18.9095 65.1971 18.9241C65.1768 18.8991 65.1616 18.8704 65.1525 18.8396C65.1434 18.8088 65.1405 18.7765 65.144 18.7446C65.1396 18.7107 65.142 18.6762 65.1511 18.6432C65.1603 18.6103 65.1759 18.5794 65.1971 18.5525C65.5824 18.5134 65.8286 18.439 65.9357 18.3293C66.0428 18.2197 66.0959 17.9482 66.0952 17.5149V13.2679C66.0492 13.1003 65.9518 12.9511 65.8166 12.8411C65.6685 12.7061 65.4775 12.6271 65.2769 12.618C65.257 12.5926 65.2424 12.5636 65.2338 12.5326C65.2253 12.5016 65.223 12.4692 65.2272 12.4374C65.2201 12.3698 65.2377 12.302 65.2769 12.2464L66.6753 12.266L70.2073 16.7948C70.2547 16.8546 70.3056 16.9236 70.361 16.9996C70.4165 17.0755 70.4593 17.1319 70.487 17.1641L70.576 17.2664C70.5982 17.2933 70.6234 17.3177 70.6511 17.3389C70.6661 17.3498 70.6836 17.3565 70.702 17.3585C70.7494 17.3585 70.7748 17.2561 70.7771 17.0502V13.651Z" fill="white"/>
<path d="M74.4696 18.0602C74.4648 18.1192 74.4548 18.1777 74.4396 18.235C74.4335 18.2598 74.4358 18.286 74.4463 18.3093C74.4568 18.3326 74.4747 18.3518 74.4974 18.3639L74.621 18.4455C74.6749 18.4732 74.7332 18.4915 74.7932 18.4996C74.858 18.5137 74.9237 18.5237 74.9897 18.5295C75.0371 18.5295 75.1053 18.5399 75.1862 18.5491C75.2181 18.6079 75.2321 18.6746 75.2267 18.7412C75.2337 18.8038 75.2195 18.867 75.1862 18.9206C74.6754 18.9061 74.2346 18.8988 73.864 18.8988C73.76 18.8988 73.4518 18.9061 72.9394 18.9206C72.9188 18.8959 72.9037 18.8672 72.8949 18.8363C72.8862 18.8054 72.884 18.773 72.8886 18.7412C72.8814 18.6731 72.8995 18.6048 72.9394 18.5491C73.1556 18.5421 73.3676 18.4875 73.5601 18.3892C73.7103 18.3029 73.849 18.1131 73.9727 17.8198L76.3188 12.3373C76.5239 12.3192 76.7207 12.2482 76.8898 12.1314L79.0187 17.9854C79.0508 18.0922 79.1012 18.1926 79.1678 18.2822C79.2305 18.3597 79.3144 18.4176 79.4093 18.449C79.4841 18.4782 79.5615 18.5001 79.6405 18.5146L79.9456 18.5491C79.9849 18.6051 80.003 18.6732 79.9964 18.7412C80.0005 18.773 79.9981 18.8052 79.9894 18.8361C79.9807 18.8669 79.9658 18.8957 79.9456 18.9206C79.4347 18.9057 79.0406 18.8988 78.7656 18.8988C78.3711 18.8988 77.9203 18.9061 77.4133 18.9206C77.3796 18.8672 77.3653 18.8038 77.3729 18.7412C77.3667 18.6746 77.3808 18.6076 77.4133 18.5491C77.4538 18.5491 77.507 18.5491 77.5717 18.5422L77.7231 18.5295L77.8595 18.5146C77.901 18.5103 77.9423 18.5038 77.9831 18.495C78.0156 18.4867 78.0476 18.4767 78.0791 18.4651C78.1093 18.4561 78.1365 18.439 78.1576 18.4156C78.1738 18.394 78.1863 18.3699 78.1946 18.3443C78.2051 18.3152 78.2087 18.2841 78.205 18.2534C78.1999 18.2144 78.1914 18.1759 78.1796 18.1384L77.5798 16.4244H75.4035C75.3167 16.4183 75.2296 16.4309 75.1481 16.4612C75.0973 16.493 75.0593 16.5414 75.0406 16.5981L74.4696 18.0602ZM75.5861 15.9896H77.4133L76.4448 13.192H76.3789L75.3237 15.8538C75.3147 15.8708 75.3115 15.8901 75.3145 15.9091C75.3167 15.9242 75.3236 15.9383 75.3341 15.9493C75.3487 15.9618 75.3662 15.9705 75.385 15.9746C75.4122 15.9818 75.4401 15.986 75.4682 15.9873H75.5838" fill="white"/>
<path d="M25.4808 6.59368V7.65428C25.4808 7.76932 25.4808 7.86824 25.4889 7.94302C25.498 8.03182 25.5182 8.11915 25.549 8.20299C25.5791 8.29233 25.6298 8.37346 25.6969 8.43996C25.7623 8.50609 25.8402 8.55873 25.926 8.59486C26.0119 8.63098 26.1041 8.64988 26.1973 8.65047C26.3185 8.6536 26.4391 8.63126 26.551 8.5849C26.6393 8.55044 26.7184 8.49611 26.7821 8.42615C26.8404 8.35451 26.8836 8.27198 26.9093 8.18343C26.9375 8.09512 26.9565 8.00415 26.9659 7.91196C26.9659 7.83028 26.9752 7.73365 26.9752 7.62207V6.59368C26.9767 6.52561 26.9729 6.45753 26.9636 6.39007C26.9601 6.36887 26.9523 6.34859 26.9408 6.33041C26.9293 6.31224 26.9143 6.29654 26.8966 6.28424C26.862 6.25998 26.8226 6.24349 26.781 6.23592C26.744 6.22902 26.6781 6.22212 26.5834 6.21407C26.5703 6.19184 26.5646 6.16607 26.5672 6.14045C26.5646 6.11321 26.5707 6.08586 26.5845 6.06223L27.0722 6.07143L27.5068 6.06223C27.5195 6.08583 27.5252 6.11259 27.523 6.1393C27.5247 6.1645 27.5191 6.18967 27.5068 6.21177C27.4372 6.21627 27.3683 6.22783 27.3011 6.24628C27.2809 6.25542 27.2629 6.26863 27.2482 6.28506C27.2335 6.3015 27.2224 6.32081 27.2156 6.34176C27.1895 6.42229 27.1785 6.5069 27.1832 6.59138V7.54615C27.1851 7.71942 27.1696 7.89244 27.137 8.06265C27.1078 8.20383 27.0525 8.3384 26.974 8.45951C26.893 8.58029 26.7775 8.67406 26.6423 8.72869C26.4727 8.79458 26.2915 8.82587 26.1095 8.82072C26.0017 8.82079 25.8943 8.80609 25.7905 8.777C25.6779 8.74366 25.571 8.69322 25.4738 8.62746C25.3583 8.54827 25.2687 8.43708 25.2161 8.30767C25.1476 8.14463 25.1145 7.969 25.119 7.79232V6.59368C25.1323 6.4868 25.1112 6.3785 25.0589 6.28424C24.9823 6.23127 24.8895 6.20647 24.7966 6.21407C24.7835 6.19184 24.7778 6.16607 24.7804 6.14045C24.7781 6.11337 24.7837 6.08621 24.7966 6.06223L25.2982 6.07143C25.4022 6.07143 25.5929 6.07143 25.876 6.06223C25.8861 6.08661 25.8905 6.11298 25.8887 6.1393C25.8916 6.1653 25.8859 6.19152 25.8726 6.21407C25.7622 6.20438 25.6514 6.22803 25.5547 6.28194C25.5097 6.3222 25.4865 6.42573 25.4865 6.59368" fill="white"/>
<path d="M32.2848 6.63624C32.2861 6.56164 32.2818 6.48706 32.2721 6.41308C32.264 6.36865 32.2412 6.32818 32.2074 6.29804C32.1778 6.27137 32.1421 6.2524 32.1034 6.24283C32.0422 6.23146 31.9805 6.22339 31.9185 6.21867C31.9019 6.19784 31.8941 6.17148 31.8965 6.14505C31.8933 6.11713 31.9012 6.08907 31.9185 6.06683L32.3865 6.07603L32.8581 6.06683C32.8708 6.09043 32.8764 6.11719 32.8743 6.1439C32.8764 6.16987 32.8708 6.1959 32.8581 6.21867C32.7507 6.21765 32.6456 6.24893 32.5564 6.3084C32.5125 6.35211 32.4917 6.46369 32.4917 6.64084V8.68153C32.4917 8.7747 32.4593 8.82072 32.3946 8.82072C32.3597 8.81811 32.3259 8.807 32.2963 8.78834C32.2666 8.76968 32.2421 8.74406 32.2247 8.71374L30.7511 6.87321C30.6783 6.78118 30.6356 6.73517 30.609 6.73632C30.5824 6.73747 30.5743 6.80534 30.5743 6.93993V8.21219C30.5727 8.28645 30.5773 8.36072 30.5882 8.43421C30.5957 8.4786 30.6181 8.51915 30.6517 8.54924C30.6812 8.57687 30.7175 8.59631 30.7569 8.6056C30.7927 8.61366 30.8552 8.62171 30.9418 8.63206C30.9546 8.6561 30.9606 8.68313 30.9592 8.71028C30.9619 8.73607 30.9558 8.76201 30.9418 8.78391C30.6598 8.777 30.5038 8.7747 30.4738 8.7747C30.4437 8.7747 30.2761 8.7747 30.0022 8.78391C29.9878 8.76116 29.9802 8.73485 29.9802 8.70798C29.9802 8.68112 29.9878 8.6548 30.0022 8.63206C30.1098 8.63277 30.2151 8.60065 30.3039 8.54004C30.3466 8.49632 30.3686 8.38474 30.3686 8.20759V6.4798C30.3492 6.41101 30.3088 6.34992 30.253 6.30495C30.1926 6.24958 30.1143 6.21738 30.0323 6.21407C30.0241 6.20379 30.018 6.19198 30.0144 6.17934C30.0109 6.1667 30.0098 6.15348 30.0115 6.14045C30.0086 6.11273 30.016 6.08493 30.0323 6.06223L30.6032 6.07028L32.0502 7.91886C32.0687 7.94416 32.0907 7.97177 32.1126 8.00283C32.1346 8.03389 32.1531 8.0569 32.1646 8.0707L32.2005 8.11211C32.2092 8.12329 32.2198 8.133 32.2317 8.14087C32.2373 8.14541 32.2441 8.14821 32.2513 8.14892C32.271 8.14892 32.2814 8.10751 32.2825 8.02354L32.2848 6.63624Z" fill="white"/>
<path d="M36.0942 8.25707C36.0942 8.42271 36.1161 8.52624 36.16 8.56651C36.2509 8.61935 36.3556 8.6438 36.4605 8.63668C36.4744 8.66031 36.4804 8.68766 36.4779 8.7149C36.482 8.74075 36.4758 8.76718 36.4605 8.78852C36.1785 8.78162 35.9982 8.77932 35.915 8.77932C35.8318 8.77932 35.6423 8.77932 35.3683 8.78852C35.3601 8.77824 35.3541 8.76643 35.3505 8.75379C35.3469 8.74115 35.3459 8.72793 35.3475 8.7149C35.3447 8.68718 35.3521 8.65938 35.3683 8.63668C35.4725 8.64493 35.5767 8.62081 35.6665 8.56766C35.7104 8.52624 35.7313 8.42271 35.7313 8.25707V6.59139C35.7313 6.42459 35.7104 6.32221 35.6665 6.28195C35.5764 6.22748 35.4711 6.20291 35.366 6.21178C35.3578 6.2015 35.3518 6.18969 35.3482 6.17705C35.3446 6.16441 35.3436 6.15119 35.3452 6.13816C35.3424 6.11044 35.3498 6.08264 35.366 6.05994C35.6469 6.05994 35.8283 6.06914 35.9081 6.06914C35.9878 6.06914 36.1832 6.06914 36.4582 6.05994C36.472 6.08319 36.478 6.11014 36.4756 6.13701C36.4793 6.16321 36.4731 6.18985 36.4582 6.21178C36.353 6.20269 36.2476 6.22641 36.1566 6.27965C36.1138 6.31991 36.0918 6.42229 36.0918 6.58909L36.0942 8.25707Z" fill="white"/>
<path d="M40.827 6.21177C40.8126 6.19002 40.8061 6.16407 40.8085 6.13815C40.8056 6.11075 40.8121 6.08317 40.827 6.05993L41.2893 6.06913L41.6603 6.05993C41.6762 6.08232 41.6836 6.10966 41.6811 6.137C41.6839 6.16365 41.6765 6.19037 41.6603 6.21177C41.6109 6.2177 41.5627 6.23048 41.5169 6.24973C41.4822 6.2634 41.4492 6.28117 41.4187 6.30265C41.3883 6.32643 41.3631 6.35619 41.3447 6.39007C41.3261 6.42 41.3095 6.45113 41.295 6.48325C41.2858 6.50395 41.2696 6.54192 41.2465 6.59828L40.3728 8.72984C40.3473 8.79311 40.3138 8.82647 40.271 8.82762C40.2283 8.82877 40.1994 8.79541 40.174 8.72984L39.3418 6.59023C39.3055 6.4819 39.2545 6.37897 39.1904 6.28424C39.1245 6.23333 39.0426 6.20726 38.9593 6.21062C38.9436 6.18853 38.9362 6.16165 38.9385 6.1347C38.9362 6.10821 38.9422 6.08167 38.9558 6.05878L39.3938 6.06798C39.4701 6.06798 39.64 6.06798 39.9047 6.05878C39.9184 6.08203 39.9245 6.10899 39.922 6.13585C39.9246 6.16199 39.9185 6.18824 39.9047 6.21062C39.7637 6.22558 39.6805 6.25318 39.6539 6.29459C39.6273 6.33601 39.64 6.41883 39.6909 6.54307L40.3624 8.24555H40.3832L41.0489 6.56952C41.0731 6.53167 41.089 6.48915 41.0956 6.44474C41.1022 6.40034 41.0992 6.35505 41.087 6.31185C41.0593 6.25548 40.9714 6.22097 40.827 6.21062" fill="white"/>
<path d="M45.2384 7.2701C45.3463 7.28253 45.4555 7.26501 45.5539 7.21948C45.6048 7.14919 45.6286 7.06305 45.621 6.97676C45.6301 6.96857 45.641 6.96247 45.6528 6.95889C45.6646 6.95531 45.677 6.95435 45.6892 6.95606C45.7148 6.95356 45.7405 6.96097 45.7608 6.97676C45.7551 7.14701 45.7527 7.26895 45.7527 7.34257C45.7527 7.39318 45.7527 7.51627 45.7608 7.71182C45.7407 7.72703 45.7162 7.73527 45.6909 7.73527C45.6657 7.73527 45.6411 7.72703 45.621 7.71182C45.6189 7.65583 45.6103 7.60025 45.5956 7.54618C45.5859 7.52527 45.572 7.5066 45.5547 7.49135C45.5373 7.4761 45.517 7.46461 45.495 7.4576C45.4131 7.42694 45.3258 7.41362 45.2384 7.41849H44.8559V8.44228C44.8559 8.56422 44.9067 8.62519 45.0061 8.62519H45.584C45.8514 8.62519 46.0347 8.43998 46.1341 8.06958C46.1843 8.0579 46.2371 8.06528 46.2821 8.09028C46.2448 8.32341 46.1927 8.55395 46.126 8.78048C45.9007 8.77473 45.7215 8.77128 45.5875 8.77128H44.6814L44.1335 8.78048C44.1196 8.75859 44.1135 8.73264 44.1162 8.70686C44.1136 8.67962 44.1197 8.65227 44.1335 8.62864C44.2381 8.63668 44.3425 8.61259 44.4329 8.55962C44.4768 8.51821 44.4976 8.41468 44.4976 8.24903V6.5914C44.4976 6.42461 44.4756 6.32223 44.4317 6.28196C44.3402 6.22877 44.2345 6.20506 44.1289 6.2141C44.1157 6.19151 44.11 6.16533 44.1127 6.13932C44.1104 6.11261 44.116 6.08581 44.1289 6.06225L44.6756 6.0703H45.7516C45.8205 6.07041 45.8893 6.06502 45.9573 6.0542C45.9677 6.0542 45.9735 6.0542 45.9735 6.0657C45.9904 6.1631 46.0205 6.36517 46.0636 6.67193C46.0207 6.69438 45.9716 6.70206 45.9238 6.69378C45.891 6.56205 45.8338 6.43759 45.7551 6.32683C45.7149 6.28802 45.6666 6.25851 45.6137 6.24041C45.5607 6.22232 45.5044 6.21608 45.4488 6.22215H45.0061C44.9839 6.22009 44.9615 6.22389 44.9412 6.23318C44.9209 6.24247 44.9034 6.25692 44.8905 6.27506C44.863 6.31488 44.8492 6.36251 44.8513 6.4108V7.2701H45.2384Z" fill="white"/>
<path d="M49.5991 8.26051C49.5991 8.42501 49.6199 8.52739 49.6638 8.5665C49.7537 8.61943 49.8577 8.6439 49.962 8.63667C49.9742 8.66211 49.9797 8.6902 49.9781 8.71834C49.9811 8.74261 49.9763 8.76719 49.9643 8.78852C49.6823 8.78276 49.502 8.77931 49.4188 8.77931C49.3355 8.77931 49.1472 8.77931 48.8732 8.78852C48.865 8.77893 48.8589 8.76773 48.8553 8.75564C48.8517 8.74355 48.8508 8.73084 48.8524 8.71834C48.8503 8.6896 48.8576 8.66095 48.8732 8.63667C48.9774 8.64492 49.0816 8.62081 49.1714 8.56765C49.2142 8.52624 49.2361 8.42271 49.2361 8.25706V6.58908C49.2361 6.42229 49.2142 6.31991 49.1714 6.27965C49.0814 6.22703 48.9773 6.20333 48.8732 6.21178C48.8649 6.20202 48.8588 6.19062 48.8552 6.17833C48.8516 6.16604 48.8507 6.15313 48.8524 6.14046C48.8496 6.11273 48.857 6.08494 48.8732 6.06223C49.1541 6.06223 49.3355 6.07029 49.4153 6.07029C49.4738 6.07029 49.5686 6.06568 49.6996 6.05648C49.8314 6.04613 49.9123 6.04153 49.9435 6.04153C50.0812 6.03921 50.2188 6.05194 50.3538 6.07949C50.4667 6.10543 50.57 6.16242 50.6519 6.24399C50.7235 6.3121 50.7799 6.39438 50.8175 6.48552C50.8551 6.57666 50.8731 6.67464 50.8704 6.77314C50.8742 6.85969 50.8607 6.94614 50.8308 7.02749C50.8008 7.10884 50.755 7.18347 50.6959 7.24707C50.5968 7.3568 50.4728 7.44122 50.3341 7.49324L50.8658 8.3721C50.9163 8.4608 50.9789 8.5421 51.0518 8.61366C51.1111 8.6683 51.1895 8.69762 51.2703 8.69534C51.2788 8.71066 51.2832 8.72788 51.2832 8.74538C51.2832 8.76288 51.2788 8.7801 51.2703 8.79542C51.2141 8.81771 51.1538 8.82752 51.0934 8.82418C50.8762 8.82418 50.6905 8.69649 50.5364 8.44112L50.0891 7.72561C50.0531 7.67184 50.0003 7.63141 49.9388 7.61058C49.8259 7.5802 49.7089 7.56777 49.5921 7.57377L49.5991 8.26051ZM49.9458 6.18992C49.7146 6.18992 49.5991 6.2785 49.5991 6.4568V7.41042H49.8002C49.9853 7.422 50.1692 7.37401 50.3249 7.27353C50.4462 7.1815 50.5075 7.01471 50.5075 6.77314C50.5075 6.38433 50.321 6.18992 49.9481 6.18992" fill="white"/>
<path d="M55.3673 6.13587C55.4046 6.31463 55.4301 6.49561 55.4436 6.67768C55.4006 6.69737 55.3533 6.70569 55.3061 6.70184C55.2922 6.65812 55.2784 6.61901 55.2656 6.5868C55.252 6.54746 55.2358 6.50903 55.2171 6.47177C55.1993 6.4364 55.178 6.40287 55.1535 6.37169C55.1293 6.34119 55.1022 6.31307 55.0726 6.28772C55.0415 6.26062 55.0069 6.23779 54.9698 6.21985C54.9282 6.20144 54.8848 6.18755 54.8403 6.17844C54.7878 6.16789 54.7344 6.16288 54.6808 6.16348C54.6199 6.16364 54.5596 6.17663 54.504 6.20161C54.4484 6.22659 54.3988 6.26299 54.3584 6.30842C54.2713 6.39338 54.2214 6.50915 54.2197 6.63052C54.2194 6.69498 54.2348 6.75854 54.2648 6.81572C54.2922 6.86969 54.3285 6.91868 54.3722 6.96066C54.4213 7.00491 54.4752 7.0435 54.5329 7.07569C54.587 7.10711 54.6429 7.13516 54.7005 7.15967L54.8692 7.22639L54.9975 7.27585C55.074 7.30832 55.1478 7.34679 55.2183 7.39088C55.2853 7.43286 55.3473 7.48226 55.4032 7.53813C55.4611 7.59657 55.5064 7.66627 55.5361 7.74288C55.5751 7.84782 55.5897 7.96016 55.5789 8.07152C55.5681 8.18287 55.5321 8.29035 55.4737 8.38592C55.4027 8.50657 55.3031 8.60807 55.1836 8.68155C55.0245 8.7751 54.8424 8.82252 54.6577 8.81844C54.5112 8.81755 54.3651 8.80135 54.222 8.77013C54.1084 8.74214 53.9922 8.72557 53.8753 8.72066C53.8296 8.51136 53.8022 8.29853 53.7932 8.08453C53.8142 8.07312 53.8374 8.06612 53.8612 8.06394C53.8851 8.06177 53.9091 8.06447 53.9319 8.07188C54.0228 8.46913 54.2779 8.66737 54.697 8.6666C54.8395 8.6758 54.9799 8.62868 55.0877 8.53546C55.1353 8.48415 55.1719 8.42373 55.1954 8.35788C55.2188 8.29203 55.2286 8.22212 55.224 8.1524C55.2253 8.08101 55.2131 8.01001 55.1882 7.94304C55.1683 7.88806 55.1407 7.83616 55.1061 7.7889C55.0687 7.74375 55.0242 7.70491 54.9744 7.67386C54.9289 7.64411 54.8814 7.61759 54.8322 7.59449C54.7941 7.57839 54.7409 7.55653 54.6716 7.53007L54.5248 7.47716C54.4133 7.43254 54.3061 7.37786 54.2047 7.31381C54.1158 7.25252 54.04 7.17433 53.9816 7.08375C53.9191 6.98455 53.8866 6.86954 53.888 6.75245C53.8853 6.65128 53.9059 6.55084 53.9484 6.45889C53.9909 6.36694 54.0541 6.28594 54.133 6.22215C54.2983 6.08561 54.5077 6.01328 54.7224 6.01854C54.8629 6.01547 55.0029 6.03449 55.1374 6.07491C55.213 6.10093 55.2902 6.12244 55.3685 6.13932" fill="white"/>
<path d="M58.9249 8.25705C58.9249 8.4227 58.9469 8.52623 58.9908 8.56649C59.082 8.6195 59.1871 8.64395 59.2924 8.63666C59.3052 8.6607 59.3112 8.68773 59.3098 8.71489C59.3125 8.74067 59.3064 8.76661 59.2924 8.78851C59.0104 8.78161 58.8301 8.7793 58.7458 8.7793C58.6614 8.7793 58.473 8.7793 58.2003 8.78851C58.1921 8.77822 58.186 8.76642 58.1824 8.75378C58.1788 8.74114 58.1778 8.72792 58.1795 8.71489C58.1768 8.68734 58.1837 8.65973 58.1991 8.63666C58.3037 8.645 58.4082 8.62089 58.4984 8.56764C58.5412 8.52623 58.562 8.4227 58.562 8.25705V6.59138C58.562 6.42458 58.5412 6.3222 58.4984 6.28194C58.4083 6.22866 58.3036 6.20492 58.1991 6.21407C58.1835 6.19286 58.1765 6.16657 58.1795 6.14045C58.1766 6.11273 58.184 6.08493 58.2003 6.06223C58.48 6.06223 58.6626 6.07143 58.7423 6.07143C58.8221 6.07143 59.0174 6.07143 59.2924 6.06223C59.3051 6.08589 59.3111 6.11252 59.3098 6.1393C59.3111 6.16492 59.3043 6.1903 59.2901 6.21177C59.1846 6.20274 59.0788 6.22645 58.9873 6.27964C58.9446 6.3199 58.9226 6.42228 58.9226 6.58908L58.9249 8.25705Z" fill="white"/>
<path d="M62.3922 6.07028H62.7008C62.8614 6.07028 62.9909 6.07028 63.0903 6.07028C63.2817 6.06672 63.4719 6.1019 63.6494 6.17368C63.8268 6.24546 63.9877 6.35234 64.1224 6.48785C64.2588 6.61735 64.3669 6.77349 64.4398 6.94649C64.5128 7.11949 64.5491 7.30562 64.5465 7.49324C64.5518 7.71262 64.5075 7.93039 64.4171 8.13052C64.3418 8.29538 64.2217 8.43602 64.0703 8.53658C63.9354 8.62547 63.7872 8.69263 63.6312 8.73559C63.4777 8.77643 63.3196 8.79693 63.1608 8.79656C62.9909 8.79656 62.8279 8.79656 62.6707 8.79656H62.391C62.2997 8.79656 62.1183 8.79656 61.8444 8.80576C61.8361 8.79597 61.83 8.78456 61.8264 8.77228C61.8228 8.76 61.8219 8.74712 61.8236 8.73444C61.821 8.70781 61.8284 8.68117 61.8444 8.65967C61.9485 8.66792 62.0527 8.64381 62.1426 8.59065C62.1865 8.54924 62.2073 8.44571 62.2073 8.27891V6.58908C62.2073 6.42113 62.1865 6.3176 62.1426 6.27849C62.0527 6.22533 61.9485 6.20122 61.8444 6.20947C61.8361 6.19967 61.83 6.18827 61.8264 6.17599C61.8228 6.16371 61.8219 6.15082 61.8236 6.13815C61.8206 6.11113 61.828 6.08398 61.8444 6.06223C62.1252 6.06223 62.3067 6.07028 62.3864 6.07028M62.5702 8.42385C62.568 8.45625 62.5749 8.48862 62.5902 8.51729C62.6055 8.54596 62.6286 8.56978 62.6569 8.58605C62.7757 8.62979 62.9027 8.64707 63.029 8.63666C63.1723 8.63872 63.3152 8.62248 63.4543 8.58835C63.5786 8.55607 63.696 8.50192 63.8011 8.42845C63.9137 8.34628 63.9996 8.23312 64.0484 8.10291C64.1094 7.93726 64.1384 7.76163 64.1339 7.58526C64.1346 7.42067 64.1136 7.25669 64.0715 7.09752C64.0302 6.94143 63.9631 6.79329 63.8727 6.65925C63.778 6.51887 63.647 6.40643 63.4936 6.3337C63.3151 6.25239 63.1201 6.21303 62.9238 6.21867C62.6881 6.21867 62.5702 6.28654 62.5702 6.42228V8.42385Z" fill="white"/>
<path d="M67.7733 8.43653C67.7711 8.46053 67.7672 8.48436 67.7618 8.50785C67.759 8.51797 67.7598 8.52874 67.764 8.53836C67.7682 8.54799 67.7756 8.55589 67.7849 8.56077L67.8358 8.59413C67.8579 8.60513 67.8817 8.61251 67.9063 8.61598C67.9398 8.62289 67.9664 8.62634 67.986 8.62864L68.0669 8.63669C68.0797 8.66068 68.0854 8.68783 68.0831 8.71491C68.0856 8.74054 68.08 8.76631 68.0669 8.78853C67.8577 8.78163 67.6774 8.77933 67.526 8.77933C67.4832 8.77933 67.3584 8.77933 67.1492 8.78853C67.141 8.77825 67.135 8.76644 67.1314 8.7538C67.1278 8.74116 67.1268 8.72794 67.1284 8.71491C67.1256 8.68719 67.133 8.6594 67.1492 8.63669C67.2375 8.63386 67.3239 8.61146 67.4023 8.57112C67.4817 8.51391 67.5411 8.43348 67.5722 8.34105L68.5361 6.09676C68.6192 6.08925 68.6989 6.06031 68.7673 6.01279L69.6376 8.40317C69.6503 8.44701 69.6706 8.48829 69.6977 8.52511C69.7239 8.55643 69.7583 8.57991 69.7971 8.59298C69.8276 8.60505 69.8594 8.61391 69.8918 8.61943L70.0167 8.63439C70.0329 8.65709 70.0403 8.68489 70.0375 8.71261C70.0391 8.72564 70.0381 8.73886 70.0345 8.7515C70.0309 8.76414 70.0249 8.77595 70.0167 8.78623C69.8075 8.77933 69.6468 8.77703 69.5347 8.77703C69.3729 8.77703 69.188 8.77703 68.9823 8.78623C68.9683 8.76434 68.9622 8.73839 68.9649 8.71261C68.9624 8.68538 68.9684 8.65803 68.9823 8.63439H69.047H69.1082L69.1637 8.62749C69.1809 8.62641 69.1979 8.62371 69.2146 8.61943C69.228 8.61674 69.2411 8.61289 69.2539 8.60793C69.2662 8.6038 69.2773 8.59669 69.2862 8.58723C69.2928 8.57855 69.2979 8.56883 69.3012 8.55847C69.3042 8.54598 69.3042 8.53299 69.3012 8.52051C69.2993 8.50411 69.2958 8.48794 69.2908 8.47219L69.0447 7.77279H68.1547C68.1194 7.77 68.0838 7.77511 68.0507 7.78775C68.0298 7.80025 68.0142 7.81987 68.0068 7.84296L67.7733 8.43653ZM68.2356 7.58989H68.9823L68.5858 6.44761H68.5593L68.1282 7.53467C68.126 7.54219 68.126 7.55016 68.1282 7.55768C68.1289 7.56382 68.1317 7.56952 68.1362 7.57378C68.1421 7.57903 68.1493 7.58261 68.157 7.58414C68.1682 7.5855 68.1794 7.5855 68.1906 7.58414H68.2391" fill="white"/>
<path d="M73.0771 6.07028H73.3857C73.5463 6.07028 73.6758 6.07028 73.7752 6.07028C73.9665 6.06661 74.1565 6.10174 74.3338 6.17353C74.511 6.24532 74.6717 6.35226 74.8061 6.48785C74.9427 6.61722 75.0509 6.77334 75.1239 6.94637C75.1969 7.1194 75.2331 7.30559 75.2302 7.49324C75.2359 7.71254 75.192 7.9303 75.102 8.13052C75.0269 8.29555 74.9068 8.43625 74.7552 8.53658C74.6207 8.62546 74.4728 8.69263 74.3172 8.73559C74.1638 8.77643 74.0056 8.79693 73.8468 8.79656C73.6769 8.79656 73.514 8.79656 73.3556 8.79656H73.0771C72.9858 8.79656 72.8043 8.79656 72.5304 8.80576C72.5222 8.79597 72.516 8.78456 72.5125 8.77228C72.5089 8.76 72.5079 8.74712 72.5096 8.73444C72.507 8.70781 72.5144 8.68117 72.5304 8.65967C72.6346 8.66792 72.7388 8.64381 72.8286 8.59065C72.8714 8.54924 72.8933 8.44571 72.8933 8.27891V6.58908C72.8933 6.42113 72.8714 6.3176 72.8286 6.27849C72.7388 6.22533 72.6346 6.20122 72.5304 6.20947C72.5222 6.19967 72.516 6.18827 72.5125 6.17599C72.5089 6.16371 72.5079 6.15082 72.5096 6.13815C72.5066 6.11113 72.514 6.08398 72.5304 6.06223C72.8113 6.06223 72.9927 6.07028 73.0725 6.07028M73.2562 8.42385C73.254 8.45612 73.2608 8.48836 73.2759 8.51699C73.291 8.54562 73.3138 8.56953 73.3417 8.58605C73.461 8.62967 73.5884 8.64694 73.7151 8.63666C73.8583 8.63872 74.0013 8.62248 74.1404 8.58835C74.2647 8.55643 74.3822 8.50224 74.4871 8.42845C74.6 8.34663 74.6861 8.23335 74.7344 8.10291C74.7963 7.93747 74.8257 7.76174 74.8211 7.58526C74.8218 7.42067 74.8008 7.25669 74.7587 7.09752C74.7165 6.94177 74.6493 6.7938 74.5599 6.65925C74.4647 6.51883 74.3334 6.4064 74.1797 6.3337C74.0016 6.25224 73.8069 6.21287 73.611 6.21867C73.3753 6.21867 73.2574 6.28654 73.2574 6.42228L73.2562 8.42385Z" fill="white"/>
<path d="M78.9599 7.2701C79.0678 7.28271 79.177 7.26519 79.2755 7.21948C79.3268 7.14942 79.3506 7.0631 79.3425 6.97676C79.3517 6.96863 79.3625 6.96258 79.3743 6.959C79.3861 6.95543 79.3985 6.95442 79.4107 6.95606C79.4364 6.95331 79.4621 6.96075 79.4823 6.97676C79.4823 7.14701 79.4742 7.26895 79.4742 7.34257C79.4742 7.39318 79.4743 7.51627 79.4823 7.71182C79.4731 7.72075 79.462 7.72754 79.4498 7.73172C79.4376 7.73589 79.4246 7.73735 79.4118 7.73598C79.3995 7.73735 79.387 7.73622 79.375 7.73266C79.3631 7.72911 79.3521 7.72319 79.3425 7.71528C79.3406 7.65933 79.3325 7.60377 79.3182 7.54963C79.3082 7.52895 79.2942 7.51047 79.2769 7.49526C79.2596 7.48005 79.2395 7.46842 79.2177 7.46105C79.1354 7.43043 79.0476 7.41711 78.9599 7.42194H78.5785V8.44573C78.5785 8.56767 78.6282 8.62864 78.7276 8.62864H79.3055C79.5729 8.62864 79.7566 8.44343 79.8568 8.07303C79.907 8.06146 79.9597 8.06884 80.0047 8.09373C79.9664 8.32665 79.9143 8.55712 79.8487 8.78393C79.6176 8.77818 79.443 8.77473 79.309 8.77473H78.404L77.855 8.78393C77.842 8.76171 77.8363 8.73594 77.8389 8.71031C77.8366 8.68323 77.8422 8.65608 77.855 8.63209C77.9596 8.64028 78.0641 8.61618 78.1544 8.56307C78.1983 8.52166 78.2203 8.41813 78.2203 8.25248V6.5914C78.2203 6.42461 78.1983 6.32223 78.1544 6.28196C78.0628 6.22898 77.9571 6.20529 77.8516 6.2141C77.8374 6.19188 77.8312 6.16549 77.8342 6.13932C77.8316 6.11245 77.8377 6.08544 77.8516 6.06225L78.3971 6.0703H79.4731C79.542 6.07041 79.6108 6.06502 79.6788 6.0542C79.6904 6.0542 79.6962 6.0542 79.6962 6.0657C79.7185 6.16156 79.7501 6.36249 79.7909 6.66848C79.7476 6.69093 79.6981 6.69861 79.6499 6.69033C79.6151 6.55977 79.5568 6.4366 79.4777 6.32683C79.4376 6.28802 79.3893 6.25851 79.3363 6.24041C79.2834 6.22232 79.2271 6.21608 79.1714 6.22215H78.7276C78.7054 6.22032 78.6831 6.22423 78.6629 6.2335C78.6426 6.24277 78.6251 6.25709 78.6121 6.27506C78.5854 6.31522 78.572 6.3627 78.5739 6.4108V7.2701H78.9599Z" fill="white"/>
<path d="M3.94689 15.1763L2.94717 15.021C3.30776 14.7656 3.66605 14.5206 4.02664 14.2802C4.24425 12.6349 4.82986 11.0592 5.74035 9.669C6.65084 8.27882 7.86301 7.1096 9.28762 6.24744C9.67974 6.01097 10.0866 5.79965 10.5058 5.61476C10.4064 5.43071 10.3093 5.24435 10.2076 5.05685L10.7485 2.90458C11.1703 3.63734 11.5668 4.37125 11.947 5.10286C12.5253 4.9429 13.116 4.83169 13.713 4.77042C15.4731 4.60213 17.2484 4.84151 18.9 5.46982V0H0V18.809H4.37337C4.03427 17.6292 3.89023 16.4022 3.94689 15.1763Z" fill="white"/>
<path d="M16.615 18.8079H18.9011V14.6748C17.9314 14.9428 16.949 15.2499 15.9504 15.6123C16.2163 16.679 16.4378 17.7442 16.615 18.8079Z" fill="white"/>
<path d="M13.6275 16.5348C12.0903 17.1978 10.5892 17.9408 9.13046 18.7607C9.10388 18.778 9.07614 18.7929 9.04956 18.809H15.5125C15.3045 17.9033 15.0645 16.9831 14.7925 16.0482C14.4065 16.2012 14.0181 16.3611 13.6286 16.5314" fill="white"/>
<path d="M15.6905 14.6092C16.7561 14.2848 17.8286 14.0179 18.9023 13.7971V9.08762C17.3213 9.34247 15.7625 9.71899 14.24 10.2138C14.8048 11.6816 15.2883 13.1479 15.6905 14.6127" fill="white"/>
<path d="M12.5422 9.89858C12.0706 8.81496 11.5563 7.71295 10.99 6.59598C10.332 6.92863 9.70902 7.32594 9.13042 7.78197C7.4488 9.10945 6.19365 10.9086 5.72095 12.9895C6.82542 12.3395 7.96349 11.7478 9.13042 11.2169C10.2418 10.7129 11.3814 10.2728 12.5434 9.89858" fill="white"/>
<path d="M9.1304 17.2791C10.5887 16.5323 12.0908 15.8735 13.6286 15.3063C13.9094 15.2016 14.1903 15.1027 14.4711 15.0061C14.2169 14.2077 13.936 13.3979 13.6286 12.5766C13.3974 11.9554 13.1482 11.3277 12.8808 10.6935C11.6003 11.173 10.3481 11.7245 9.1304 12.3454C7.95384 12.9451 6.75186 13.6318 5.52445 14.4056C5.4528 15.786 5.71978 17.2619 6.41323 18.7826C7.31934 18.2458 8.22506 17.7446 9.1304 17.2791Z" fill="white"/>
<path d="M13.6274 5.6366C13.2109 5.73152 12.8 5.84903 12.3965 5.9886C12.8388 6.89276 13.249 7.79462 13.6274 8.69418C13.7429 8.9553 13.847 9.21988 13.9533 9.48216C15.5738 9.04783 17.23 8.75795 18.9022 8.61596V5.76429C17.1839 5.27315 15.3677 5.22918 13.6274 5.6366Z" fill="white"/>
</g>
<defs>
<clipPath id="clip0_18_1545">
<rect width="80" height="19" fill="white"/>
</clipPath>
</defs>
</svg>
