<?xml version="1.0" encoding="utf-8"?>
<!-- Generator: Adobe Illustrator 26.5.0, SVG Export Plug-In . SVG Version: 6.00 Build 0)  -->
<svg version="1.1" id="Camada_1" xmlns="http://www.w3.org/2000/svg" xmlns:xlink="http://www.w3.org/1999/xlink" x="0px" y="0px"
	 viewBox="0 0 5.7 5" style="enable-background:new 0 0 5.7 5;" xml:space="preserve">
<style type="text/css">
	.st0{fill:none;stroke:#000000;stroke-width:0.1;stroke-miterlimit:10;}
</style>
<g>
	<g>
		<g>
			<path class="st0" d="M0.4,3.4V3.1h1.1c0.1,0,0.1,0,0.1-0.1V2.8c0-0.1,0-0.1-0.1-0.1L0.9,2.5C0.6,2.4,0.4,2.2,0.4,1.9V1.7
				c0-0.4,0.2-0.6,0.6-0.6h0.8L2,1.3v0.3H1.1C1,1.6,1,1.6,1,1.7v0.2C1,2,1,2,1.1,2l0.7,0.1c0.3,0.1,0.4,0.3,0.4,0.6V3
				c0,0.4-0.2,0.6-0.6,0.6H0.7L0.4,3.4z"/>
			<path class="st0" d="M5.3,1.6H4.7L4.4,2.1L4.1,1.6h-1v2H4L4.4,3l0.4,0.6h0.5V3.5l-0.6-1L5.3,1.6z M3.6,3.4V1.9l0.5,0.8L3.6,3.4z"
				/>
		</g>
	</g>
	<g>
		<g>
			<path class="st0" d="M0.4,3.4V3.1h1.1c0.1,0,0.1,0,0.1-0.1V2.8c0-0.1,0-0.1-0.1-0.1L0.9,2.5C0.6,2.4,0.4,2.2,0.4,1.9V1.7
				c0-0.4,0.2-0.6,0.6-0.6h0.8L2,1.3v0.3H1.1C1,1.6,1,1.6,1,1.7v0.2C1,2,1,2,1.1,2l0.7,0.1c0.3,0.1,0.4,0.3,0.4,0.6V3
				c0,0.4-0.2,0.6-0.6,0.6H0.7L0.4,3.4z"/>
		</g>
		<rect x="2.4" y="0.9" class="st0" width="0.5" height="0.5"/>
	</g>
</g>
</svg>
